<svg xmlns="http://www.w3.org/2000/svg" width="975" height="267" viewBox="0 0 975 267">
  <g id="Grupo_99694" data-name="Grupo 99694" transform="translate(-313 -639)">
    <path id="Trazado_106771" data-name="Trazado 106771" d="M10,0H965a10,10,0,0,1,10,10V257a10,10,0,0,1-10,10H10A10,10,0,0,1,0,257V10A10,10,0,0,1,10,0Z" transform="translate(313 639)" fill="#f3f9ff"/>
    <g id="Grupo_92578" data-name="Grupo 92578" transform="translate(0 -27)">
      <g id="app" transform="translate(466.521 735.607)">
        <g id="Grupo_92560" data-name="Grupo 92560" transform="translate(1.133 1.132)">
          <path id="Trazado_106464" data-name="Trazado 106464" d="M150.558,82.622H116.294a4.7,4.7,0,0,1-4.7-4.7V12.19a4.7,4.7,0,0,1,4.7-4.7h34.264a4.7,4.7,0,0,1,4.7,4.7V77.927A4.7,4.7,0,0,1,150.558,82.622Z" transform="translate(-111.599 -7.495)" fill="#eaf6ff"/>
        </g>
        <g id="Grupo_92561" data-name="Grupo 92561" transform="translate(37.804 1.132)">
          <path id="Trazado_106465" data-name="Trazado 106465" d="M361.186,12.186V77.928a4.693,4.693,0,0,1-4.693,4.693H354.2a3.041,3.041,0,0,0,3.041-3.041V10.534A3.041,3.041,0,0,0,354.2,7.493h2.291a4.693,4.693,0,0,1,4.693,4.693Z" transform="translate(-354.202 -7.493)" fill="#d8ecfe"/>
        </g>
        <g id="Grupo_92562" data-name="Grupo 92562" transform="translate(10.798 1.133)">
          <path id="Trazado_106466" data-name="Trazado 106466" d="M187.7,7.5H175.54l1.185,5.3a1.53,1.53,0,0,0,1.493,1.2h18.968a1.53,1.53,0,0,0,1.493-1.2l1.185-5.3Z" transform="translate(-175.54 -7.496)" fill="#537983"/>
        </g>
        <g id="Grupo_92563" data-name="Grupo 92563" transform="translate(29.502 1.132)">
          <path id="Trazado_106467" data-name="Trazado 106467" d="M304.9,7.493l-1.184,5.3a1.532,1.532,0,0,1-1.494,1.2h-2.943a1.529,1.529,0,0,0,1.493-1.2l1.186-5.3Z" transform="translate(-299.276 -7.493)" fill="#3e5959"/>
        </g>
        <g id="Grupo_92571" data-name="Grupo 92571" transform="translate(0 0)">
          <g id="Grupo_92566" data-name="Grupo 92566" transform="translate(11.308 55.159)">
            <g id="Grupo_92564" data-name="Grupo 92564" transform="translate(0 0)">
              <path id="Trazado_106468" data-name="Trazado 106468" d="M198.915,371.515h-16.7a3.3,3.3,0,0,1,0-6.6h16.7a3.3,3.3,0,0,1,0,6.6Z" transform="translate(-178.91 -364.914)" fill="#4dd0e1"/>
            </g>
            <g id="Grupo_92565" data-name="Grupo 92565" transform="translate(16.55)">
              <path id="Trazado_106469" data-name="Trazado 106469" d="M295.157,368.213a3.3,3.3,0,0,1-3.3,3.3H288.4a3.3,3.3,0,0,0,0-6.6h3.455A3.3,3.3,0,0,1,295.157,368.213Z" transform="translate(-288.401 -364.912)" fill="#4dd0e1"/>
            </g>
          </g>
          <g id="Grupo_92570" data-name="Grupo 92570" transform="translate(0)">
            <g id="Grupo_92567" data-name="Grupo 92567" transform="translate(11.993 15.668)">
              <path id="Trazado_106470" data-name="Trazado 106470" d="M204.454,105.994a5.371,5.371,0,0,0-8.03-.963,7.56,7.56,0,0,0-2.011,3.208,7.56,7.56,0,0,0-2.011-3.208,5.371,5.371,0,0,0-8.03.963,5.787,5.787,0,0,0-.924,3.426,8.383,8.383,0,0,0,1.449,4.493,25.916,25.916,0,0,0,8.772,7.582,1.536,1.536,0,0,0,1.49,0,25.916,25.916,0,0,0,8.772-7.582,8.383,8.383,0,0,0,1.449-4.493,5.785,5.785,0,0,0-.924-3.426Z" transform="translate(-183.446 -103.65)" fill="#ffca28"/>
            </g>
            <g id="Grupo_92568" data-name="Grupo 92568" transform="translate(21.219 15.667)">
              <path id="Trazado_106471" data-name="Trazado 106471" d="M257.189,109.416a8.371,8.371,0,0,1-1.45,4.491,25.891,25.891,0,0,1-8.771,7.582,1.531,1.531,0,0,1-1.489,0q-.513-.285-1-.579a25.863,25.863,0,0,0,8.682-7.531,8.381,8.381,0,0,0,1.448-4.493,5.784,5.784,0,0,0-.924-3.427,5.263,5.263,0,0,0-2.095-1.81,5.344,5.344,0,0,1,4.669,2.339A5.792,5.792,0,0,1,257.189,109.416Z" transform="translate(-244.483 -103.645)" fill="#fe2aa8"/>
            </g>
            <g id="Grupo_92569" data-name="Grupo 92569">
              <path id="Trazado_106472" data-name="Trazado 106472" d="M148.891,14.77a1.133,1.133,0,0,0,1.133-1.133V5.825A5.832,5.832,0,0,0,144.2,0h-34.27A5.832,5.832,0,0,0,104.1,5.825V71.567a5.832,5.832,0,0,0,5.825,5.825H144.2a5.832,5.832,0,0,0,5.825-5.825V18.848a1.133,1.133,0,0,0-2.266,0V71.567a3.563,3.563,0,0,1-3.559,3.559h-34.27a3.563,3.563,0,0,1-3.559-3.559V5.825a3.563,3.563,0,0,1,3.559-3.559h4.065l.987,4.411a2.648,2.648,0,0,0,2.6,2.082h18.968a2.648,2.648,0,0,0,2.6-2.082l.987-4.411H144.2a3.563,3.563,0,0,1,3.559,3.559v7.811a1.133,1.133,0,0,0,1.133,1.133ZM136.935,6.182a.4.4,0,0,1-.388.311H117.579a.4.4,0,0,1-.388-.311l-.876-3.916h21.5Z" transform="translate(-104.103)"/>
              <path id="Trazado_106473" data-name="Trazado 106473" d="M220.155,462.494a1.133,1.133,0,0,0,0,2.266h8.913a1.133,1.133,0,0,0,0-2.266Z" transform="translate(-201.651 -392.585)"/>
              <path id="Trazado_106474" data-name="Trazado 106474" d="M196.986,361.853a4.439,4.439,0,0,0-4.434-4.434H182.8a1.133,1.133,0,1,0,0,2.266h9.749a2.168,2.168,0,0,1,0,4.335h-16.7a2.168,2.168,0,0,1,0-4.335h1.705a1.133,1.133,0,0,0,0-2.266h-1.705a4.434,4.434,0,0,0,0,8.867h16.7A4.439,4.439,0,0,0,196.986,361.853Z" transform="translate(-161.24 -303.393)"/>
              <path id="Trazado_106475" data-name="Trazado 106475" d="M173.3,254.709a1.133,1.133,0,0,0,1.133,1.133h22.736a1.133,1.133,0,1,0,0-2.266H174.432A1.133,1.133,0,0,0,173.3,254.709Z" transform="translate(-162.84 -215.246)"/>
              <path id="Trazado_106476" data-name="Trazado 106476" d="M174.432,289.237h22.736a1.133,1.133,0,1,0,0-2.266H174.432a1.133,1.133,0,1,0,0,2.266Z" transform="translate(-162.84 -243.593)"/>
              <path id="Trazado_106477" data-name="Trazado 106477" d="M192.018,320.365a1.133,1.133,0,1,0,0,2.266h17.419a1.133,1.133,0,1,0,0-2.266Z" transform="translate(-177.767 -271.939)"/>
              <path id="Trazado_106478" data-name="Trazado 106478" d="M194.437,96.2a6.468,6.468,0,0,0-5.137,1.628,7.922,7.922,0,0,0-1.248,1.464,7.929,7.929,0,0,0-1.248-1.464A6.5,6.5,0,0,0,177.07,99a6.927,6.927,0,0,0-1.117,4.079,9.493,9.493,0,0,0,1.64,5.1,26.729,26.729,0,0,0,9.163,7.942,2.685,2.685,0,0,0,2.591,0,26.725,26.725,0,0,0,9.163-7.942,9.5,9.5,0,0,0,1.64-5.1A6.929,6.929,0,0,0,199.032,99,6.456,6.456,0,0,0,194.437,96.2Zm2.19,10.717a24.372,24.372,0,0,1-8.381,7.222.4.4,0,0,1-.389,0,24.378,24.378,0,0,1-8.381-7.222,7.234,7.234,0,0,1-1.257-3.883,4.713,4.713,0,0,1,.731-2.773,4.193,4.193,0,0,1,2.987-1.812,4.3,4.3,0,0,1,.516-.031,4.188,4.188,0,0,1,2.824,1.085,6.48,6.48,0,0,1,1.682,2.671,1.132,1.132,0,0,0,1.088.829h0a1.136,1.136,0,0,0,1.09-.825,6.483,6.483,0,0,1,1.683-2.676,4.238,4.238,0,0,1,6.327.758,4.713,4.713,0,0,1,.731,2.773A7.234,7.234,0,0,1,196.626,106.92Z" transform="translate(-165.091 -81.621)"/>
            </g>
          </g>
        </g>
      </g>
      <g id="navegador" transform="translate(382.07 735.607)">
        <g id="Grupo_92576" data-name="Grupo 92576" transform="translate(1.248 1.248)">
          <g id="Grupo_92572" data-name="Grupo 92572" transform="translate(15.404 16.689)">
            <path id="Trazado_106479" data-name="Trazado 106479" d="M69.825,28.639A30.069,30.069,0,0,0,53.86,15.37V46.115a2.5,2.5,0,0,1-2.5,2.5H14.34A29.942,29.942,0,0,0,69.8,58.6h.012a29.962,29.962,0,0,0,.012-29.958Z" transform="translate(-14.34 -15.37)" fill="#4dd0e1"/>
          </g>
          <g id="Grupo_92573" data-name="Grupo 92573">
            <path id="Trazado_106480" data-name="Trazado 106480" d="M2,11.986V4.5A2.5,2.5,0,0,1,4.5,2H54.427a2.5,2.5,0,0,1,2.5,2.5v7.49Z" transform="translate(-2 -2)" fill="#5cd6b3"/>
          </g>
          <g id="Grupo_92574" data-name="Grupo 92574" transform="translate(0 9.986)">
            <path id="Trazado_106481" data-name="Trazado 106481" d="M56.924,22.632V47.448a2.5,2.5,0,0,1-2.5,2.5H4.5a2.5,2.5,0,0,1-2.5-2.5V10H56.924V22.632Z" transform="translate(-2 -10)" fill="#e6e9ed"/>
          </g>
          <g id="Grupo_92575" data-name="Grupo 92575" transform="translate(4.993 14.979)">
            <path id="Trazado_106482" data-name="Trazado 106482" d="M6,14H28.469V26.483H6Z" transform="translate(-6 -14)" fill="#fcd770"/>
          </g>
        </g>
        <g id="Grupo_92577" data-name="Grupo 92577" transform="translate(0 0)">
          <path id="Trazado_106483" data-name="Trazado 106483" d="M16.986,36.883a.105.105,0,0,1-.2.017l-.856-5.128a2.721,2.721,0,0,0-5.368,0L9.7,36.9c-.019.107-.206.091-.2-.017V27H7v9.883a2.6,2.6,0,0,0,5.164.428l.856-5.129a.232.232,0,0,1,.443,0l.856,5.128a2.6,2.6,0,0,0,5.163-.428V27h-2.5Z" transform="translate(0.49 5.455)"/>
          <path id="Trazado_106484" data-name="Trazado 106484" d="M28.986,36.883a.105.105,0,0,1-.2.017l-.856-5.128a2.721,2.721,0,0,0-5.368,0L21.7,36.9a.106.106,0,0,1-.2-.017V27H19v9.883a2.6,2.6,0,0,0,5.164.428l.856-5.129a.232.232,0,0,1,.443,0l.856,5.128a2.6,2.6,0,0,0,5.163-.428V27h-2.5Z" transform="translate(3.469 5.455)"/>
          <path id="Trazado_106485" data-name="Trazado 106485" d="M40.986,36.883a.105.105,0,0,1-.2.017l-.856-5.128a2.721,2.721,0,0,0-5.368,0L33.7,36.9a.106.106,0,0,1-.2-.017V27H31v9.883a2.6,2.6,0,0,0,5.164.428l.856-5.129a.232.232,0,0,1,.443,0l.856,5.128a2.6,2.6,0,0,0,5.163-.428V27h-2.5Z" transform="translate(6.448 5.455)"/>
          <path id="Trazado_106486" data-name="Trazado 106486" d="M13,5h2.5V7.5H13Z" transform="translate(1.979 -0.007)"/>
          <path id="Trazado_106487" data-name="Trazado 106487" d="M5,5H7.5V7.5H5Z" transform="translate(-0.007 -0.007)"/>
          <path id="Trazado_106488" data-name="Trazado 106488" d="M9,5h2.5V7.5H9Z" transform="translate(0.986 -0.007)"/>
          <path id="Trazado_106489" data-name="Trazado 106489" d="M29.965,13H5V27.979H29.965Zm-2.5,12.483H7.5V15.5H27.469Z" transform="translate(-0.007 1.979)"/>
          <path id="Trazado_106490" data-name="Trazado 106490" d="M27,13h2.5v2.5H27Z" transform="translate(5.455 1.979)"/>
          <path id="Trazado_106491" data-name="Trazado 106491" d="M31,13H45.979v2.5H31Z" transform="translate(6.448 1.979)"/>
          <path id="Trazado_106492" data-name="Trazado 106492" d="M27,17H46.972v2.5H27Z" transform="translate(5.455 2.972)"/>
          <path id="Trazado_106493" data-name="Trazado 106493" d="M27,21H46.972v2.5H27Z" transform="translate(5.455 3.965)"/>
          <path id="Trazado_106494" data-name="Trazado 106494" d="M58.42,18.1V4.745A3.749,3.749,0,0,0,54.675,1H4.745A3.749,3.749,0,0,0,1,4.745V49.682a3.749,3.749,0,0,0,3.745,3.745h11.9A31.19,31.19,0,1,0,58.42,18.1ZM47.186,75.9c-4.557,0-8.747-4.932-11.269-12.483H58.43C55.922,70.894,51.776,75.9,47.186,75.9ZM35.176,60.917a50.251,50.251,0,0,1-1.371-7.49h20.87a3.749,3.749,0,0,0,3.745-3.745V48.434H60.9a53.08,53.08,0,0,1-1.719,12.483ZM58.42,30.9a51.361,51.361,0,0,1,2.464,15.035H58.42ZM63.4,48.434H75.864a28.5,28.5,0,0,1-3.471,12.483H61.813A56.433,56.433,0,0,0,63.4,48.434Zm-.017-2.5a56.38,56.38,0,0,0-1.621-12.483H72.366a28.619,28.619,0,0,1,3.48,12.483Zm7.463-14.979H61.059A35.781,35.781,0,0,0,58.42,24.57V20.779A28.686,28.686,0,0,1,70.843,30.958ZM4.745,3.5H54.675a1.249,1.249,0,0,1,1.248,1.248v6.241H3.5V4.745A1.249,1.249,0,0,1,4.745,3.5ZM3.5,49.682v-36.2H55.924v36.2a1.249,1.249,0,0,1-1.248,1.248H4.745A1.249,1.249,0,0,1,3.5,49.682Zm27.8,3.745a53.3,53.3,0,0,0,1.3,7.49H21.975a28.671,28.671,0,0,1-2.781-7.49Zm-7.815,9.986H33.3a27.964,27.964,0,0,0,6.412,11.5A28.579,28.579,0,0,1,23.483,63.413ZM54.789,74.866a27.9,27.9,0,0,0,6.327-11.453h9.736A28.8,28.8,0,0,1,54.789,74.866Z" transform="translate(-1 -1)"/>
          <path id="Trazado_106495" data-name="Trazado 106495" d="M30,45h2.5v2.5H30Z" transform="translate(6.2 9.924)"/>
          <path id="Trazado_106496" data-name="Trazado 106496" d="M34,45h2.5v2.5H34Z" transform="translate(7.193 9.924)"/>
          <path id="Trazado_106497" data-name="Trazado 106497" d="M38,45h2.5v2.5H38Z" transform="translate(8.186 9.924)"/>
        </g>
      </g>
    </g>
    <path id="Trazado_106772" data-name="Trazado 106772" d="M1.156,0V-11.375h3.9a4.76,4.76,0,0,1,2.938.773A2.724,2.724,0,0,1,9-8.3a2.456,2.456,0,0,1-.422,1.406,2.715,2.715,0,0,1-1.234.969A2.511,2.511,0,0,1,8.77-4.98a2.742,2.742,0,0,1,.5,1.66A3.028,3.028,0,0,1,8.246-.859,4.467,4.467,0,0,1,5.3,0ZM3.133-5.133v3.555h2.2a2.124,2.124,0,0,0,1.453-.461A1.618,1.618,0,0,0,7.3-3.32,1.623,1.623,0,0,0,5.492-5.133Zm0-1.453H5.07A2.241,2.241,0,0,0,6.512-7a1.432,1.432,0,0,0,.52-1.184,1.452,1.452,0,0,0-.48-1.219,2.426,2.426,0,0,0-1.5-.375H3.133Zm12.359-.133a4.7,4.7,0,0,0-.773-.062,1.741,1.741,0,0,0-1.758,1V0h-1.9V-8.453h1.813l.047.945a2.139,2.139,0,0,1,1.906-1.1A1.777,1.777,0,0,1,15.5-8.5ZM16.055-4.3a4.984,4.984,0,0,1,.492-2.238A3.6,3.6,0,0,1,17.93-8.074a3.9,3.9,0,0,1,2.047-.535,3.692,3.692,0,0,1,2.777,1.1,4.333,4.333,0,0,1,1.152,2.922l.008.445a5.029,5.029,0,0,1-.48,2.234A3.551,3.551,0,0,1,22.059-.383a3.925,3.925,0,0,1-2.066.539,3.667,3.667,0,0,1-2.863-1.191,4.563,4.563,0,0,1-1.074-3.176Zm1.9.164A3.406,3.406,0,0,0,18.492-2.1a1.752,1.752,0,0,0,1.5.738,1.733,1.733,0,0,0,1.5-.75,3.762,3.762,0,0,0,.535-2.2,3.362,3.362,0,0,0-.551-2.031,1.759,1.759,0,0,0-1.5-.75,1.743,1.743,0,0,0-1.477.738A3.691,3.691,0,0,0,17.953-4.141ZM32.945-2.617l1.344-5.836h1.852L33.836,0H32.273L30.461-5.8,28.68,0H27.117L24.8-8.453h1.852L28.023-2.68l1.734-5.773h1.43Zm9.2.32a.861.861,0,0,0-.418-.773,4.445,4.445,0,0,0-1.387-.469,7.129,7.129,0,0,1-1.617-.516A2.158,2.158,0,0,1,37.3-6.047a2.25,2.25,0,0,1,.922-1.828,3.644,3.644,0,0,1,2.344-.734,3.792,3.792,0,0,1,2.449.75,2.38,2.38,0,0,1,.934,1.945h-1.9a1.17,1.17,0,0,0-.406-.91,1.557,1.557,0,0,0-1.078-.363,1.682,1.682,0,0,0-1.02.289.911.911,0,0,0-.395.773.769.769,0,0,0,.367.68,5.049,5.049,0,0,0,1.484.488,7.027,7.027,0,0,1,1.754.586,2.484,2.484,0,0,1,.945.816A2.082,2.082,0,0,1,44.016-2.4,2.2,2.2,0,0,1,43.07-.551a4.031,4.031,0,0,1-2.477.707,4.371,4.371,0,0,1-1.852-.375A3.047,3.047,0,0,1,37.477-1.25a2.441,2.441,0,0,1-.453-1.414h1.844a1.338,1.338,0,0,0,.508,1.035,1.973,1.973,0,0,0,1.242.363,1.92,1.92,0,0,0,1.141-.285A.883.883,0,0,0,42.148-2.3ZM49.391.156A3.928,3.928,0,0,1,46.465-.98a4.124,4.124,0,0,1-1.121-3.027v-.234A5.072,5.072,0,0,1,45.832-6.5,3.716,3.716,0,0,1,47.2-8.055a3.625,3.625,0,0,1,1.969-.555,3.318,3.318,0,0,1,2.668,1.1,4.658,4.658,0,0,1,.941,3.117v.766H47.258a2.539,2.539,0,0,0,.7,1.656,2.1,2.1,0,0,0,1.543.609,2.571,2.571,0,0,0,2.125-1.055l1.023.977A3.418,3.418,0,0,1,51.293-.262,4.244,4.244,0,0,1,49.391.156Zm-.227-7.242a1.6,1.6,0,0,0-1.262.547,2.835,2.835,0,0,0-.613,1.523h3.617v-.141A2.307,2.307,0,0,0,50.4-6.6,1.586,1.586,0,0,0,49.164-7.086Zm9.516.367a4.7,4.7,0,0,0-.773-.062,1.741,1.741,0,0,0-1.758,1V0h-1.9V-8.453h1.813l.047.945a2.139,2.139,0,0,1,1.906-1.1,1.777,1.777,0,0,1,.672.109ZM64.4.977H62.906l4.477-12.352h1.492ZM76.922-11.375,80.2-2.656l3.273-8.719h2.555V0H84.063V-3.75l.2-5.016L80.9,0H79.484L76.133-8.758l.2,5.008V0H74.359V-11.375ZM87.828-4.3a4.984,4.984,0,0,1,.492-2.238A3.6,3.6,0,0,1,89.7-8.074a3.9,3.9,0,0,1,2.047-.535,3.692,3.692,0,0,1,2.777,1.1A4.333,4.333,0,0,1,95.68-4.586l.008.445a5.029,5.029,0,0,1-.48,2.234A3.551,3.551,0,0,1,93.832-.383a3.925,3.925,0,0,1-2.066.539A3.667,3.667,0,0,1,88.9-1.035a4.563,4.563,0,0,1-1.074-3.176Zm1.9.164A3.406,3.406,0,0,0,90.266-2.1a1.752,1.752,0,0,0,1.5.738,1.733,1.733,0,0,0,1.5-.75A3.762,3.762,0,0,0,93.8-4.3a3.362,3.362,0,0,0-.551-2.031,1.759,1.759,0,0,0-1.5-.75,1.743,1.743,0,0,0-1.477.738A3.691,3.691,0,0,0,89.727-4.141Zm14.984,0a5.078,5.078,0,0,1-.879,3.133A2.863,2.863,0,0,1,101.414.156,2.758,2.758,0,0,1,99.1-.914L99.008,0H97.289V-12h1.9v4.359a2.748,2.748,0,0,1,2.211-.969,2.9,2.9,0,0,1,2.43,1.148,5.162,5.162,0,0,1,.883,3.211Zm-1.9-.164a3.589,3.589,0,0,0-.484-2.062,1.613,1.613,0,0,0-1.406-.687,1.763,1.763,0,0,0-1.734,1.078v3.484a1.781,1.781,0,0,0,1.75,1.1,1.6,1.6,0,0,0,1.375-.664,3.477,3.477,0,0,0,.5-2.008ZM108.32,0h-1.9V-8.453h1.9ZM106.3-10.648a1.008,1.008,0,0,1,.277-.727,1.048,1.048,0,0,1,.793-.289,1.061,1.061,0,0,1,.8.289,1,1,0,0,1,.281.727.977.977,0,0,1-.281.715,1.069,1.069,0,0,1-.8.285,1.056,1.056,0,0,1-.793-.285A.984.984,0,0,1,106.3-10.648ZM112.406,0h-1.9V-12h1.9ZM118.2.156A3.928,3.928,0,0,1,115.27-.98a4.124,4.124,0,0,1-1.121-3.027v-.234a5.072,5.072,0,0,1,.488-2.262,3.716,3.716,0,0,1,1.371-1.551,3.625,3.625,0,0,1,1.969-.555,3.318,3.318,0,0,1,2.668,1.1,4.658,4.658,0,0,1,.941,3.117v.766h-5.523a2.539,2.539,0,0,0,.7,1.656,2.1,2.1,0,0,0,1.543.609,2.571,2.571,0,0,0,2.125-1.055l1.023.977A3.418,3.418,0,0,1,120.1-.262,4.244,4.244,0,0,1,118.2.156Zm-.227-7.242a1.6,1.6,0,0,0-1.262.547,2.835,2.835,0,0,0-.613,1.523h3.617v-.141A2.307,2.307,0,0,0,119.2-6.6,1.586,1.586,0,0,0,117.969-7.086Zm15.625,4.438h-4.406L128.266,0h-2.055l4.3-11.375h1.773L136.586,0h-2.062Zm-3.852-1.594h3.3l-1.648-4.719Zm14.977.1a5.033,5.033,0,0,1-.891,3.129A2.852,2.852,0,0,1,141.438.156a2.871,2.871,0,0,1-2.227-.914V3.25h-1.9v-11.7h1.75l.078.859a2.788,2.788,0,0,1,2.273-1.016,2.881,2.881,0,0,1,2.426,1.152,5.167,5.167,0,0,1,.879,3.2ZM142.828-4.3a3.526,3.526,0,0,0-.5-2.008,1.638,1.638,0,0,0-1.441-.742,1.747,1.747,0,0,0-1.672.961v3.75a1.763,1.763,0,0,0,1.688.984,1.636,1.636,0,0,0,1.418-.73A3.881,3.881,0,0,0,142.828-4.3Zm10.9.164a5.033,5.033,0,0,1-.891,3.129A2.852,2.852,0,0,1,150.445.156a2.871,2.871,0,0,1-2.227-.914V3.25h-1.9v-11.7h1.75l.078.859a2.788,2.788,0,0,1,2.273-1.016,2.881,2.881,0,0,1,2.426,1.152,5.167,5.167,0,0,1,.879,3.2ZM151.836-4.3a3.526,3.526,0,0,0-.5-2.008,1.638,1.638,0,0,0-1.441-.742,1.747,1.747,0,0,0-1.672.961v3.75a1.763,1.763,0,0,0,1.688.984,1.636,1.636,0,0,0,1.418-.73A3.881,3.881,0,0,0,151.836-4.3Z" transform="translate(377 814)" fill="#12263f"/>
    <g id="flecha-correcta" transform="translate(580 669.903)">
      <path id="Trazado_106498" data-name="Trazado 106498" d="M49.534,94.09l-5.443-4.846a5.272,5.272,0,1,1,7.023-7.866l15.8,14.046a5.267,5.267,0,0,1,0,7.866l-15.8,14.046a5.272,5.272,0,1,1-7.023-7.866l5.443-4.846H21.267a5.267,5.267,0,1,1,0-10.534H49.534Z" transform="translate(-14.244 -14.257)" fill="#ffc107"/>
      <path id="Trazado_106499" data-name="Trazado 106499" d="M33.359,106.169A7.023,7.023,0,0,1,28.682,93.9l1.995-1.777H7.023a7.023,7.023,0,0,1,0-14.046H30.676l-2-1.777a7.03,7.03,0,1,1,9.358-10.492l15.8,14.046a7.023,7.023,0,0,1,0,10.5L38.036,104.4A6.994,6.994,0,0,1,33.359,106.169ZM7.023,81.589a3.511,3.511,0,1,0,0,7.023H35.29a1.756,1.756,0,0,1,1.166,3.069l-5.439,4.842a3.511,3.511,0,0,0-.287,4.958l.01.011a3.648,3.648,0,0,0,4.962.281L51.5,87.727a3.529,3.529,0,0,0,0-5.236L35.7,68.445a3.511,3.511,0,0,0-4.688,5.229l5.443,4.846a1.756,1.756,0,0,1-1.166,3.069H7.023Z"/>
    </g>
    <path id="Trazado_106500" data-name="Trazado 106500" d="M103.643,84.6H67.016a6.976,6.976,0,0,0-6.042,3.488L42.66,119.812a6.976,6.976,0,0,0,0,6.977l18.314,31.72A6.976,6.976,0,0,0,67.016,162h36.628a6.977,6.977,0,0,0,6.042-3.488L128,126.789a6.978,6.978,0,0,0,0-6.977l-18.314-31.72A6.977,6.977,0,0,0,103.643,84.6Z" transform="translate(644.274 624.003)" fill="#4dd0e1" stroke="#21214b" stroke-miterlimit="10" stroke-width="2.3"/>
    <path id="Trazado_106773" data-name="Trazado 106773" d="M-38.055-2.648h-4.406L-43.383,0h-2.055l4.3-11.375h1.773L-35.062,0h-2.062Zm-3.852-1.594h3.3l-1.648-4.719Zm10.07,2.727h4.5V0H-34.2V-1.242l4.289-5.68h-4.211V-8.453H-27.5v1.2ZM-20.7-.828A2.944,2.944,0,0,1-23.07.156a2.624,2.624,0,0,1-2.082-.8,3.423,3.423,0,0,1-.707-2.328V-8.453h1.9V-3q0,1.609,1.336,1.609a1.876,1.876,0,0,0,1.867-.992v-6.07h1.9V0h-1.789Zm8.2-5.891a4.7,4.7,0,0,0-.773-.062,1.741,1.741,0,0,0-1.758,1V0h-1.9V-8.453h1.813l.047.945a2.139,2.139,0,0,1,1.906-1.1,1.777,1.777,0,0,1,.672.109ZM-7.727.156A3.928,3.928,0,0,1-10.652-.98a4.124,4.124,0,0,1-1.121-3.027v-.234A5.072,5.072,0,0,1-11.285-6.5,3.716,3.716,0,0,1-9.914-8.055a3.625,3.625,0,0,1,1.969-.555,3.318,3.318,0,0,1,2.668,1.1,4.658,4.658,0,0,1,.941,3.117v.766H-9.859a2.539,2.539,0,0,0,.7,1.656,2.1,2.1,0,0,0,1.543.609A2.571,2.571,0,0,0-5.492-2.414l1.023.977A3.418,3.418,0,0,1-5.824-.262,4.244,4.244,0,0,1-7.727.156Zm-.227-7.242a1.6,1.6,0,0,0-1.262.547,2.835,2.835,0,0,0-.613,1.523h3.617v-.141A2.307,2.307,0,0,0-6.719-6.6,1.586,1.586,0,0,0-7.953-7.086Zm17.008-2.7H5.508V0H3.547V-9.781H.031v-1.594H9.055Zm5.227,3.063a4.7,4.7,0,0,0-.773-.062,1.741,1.741,0,0,0-1.758,1V0h-1.9V-8.453h1.813l.047.945a2.139,2.139,0,0,1,1.906-1.1,1.777,1.777,0,0,1,.672.109ZM20.3,0a2.93,2.93,0,0,1-.219-.789,2.955,2.955,0,0,1-2.219.945A2.982,2.982,0,0,1,15.781-.57a2.325,2.325,0,0,1-.8-1.8,2.4,2.4,0,0,1,1-2.074,4.865,4.865,0,0,1,2.871-.723h1.164v-.555a1.481,1.481,0,0,0-.367-1.051,1.456,1.456,0,0,0-1.117-.395,1.672,1.672,0,0,0-1.062.324,1,1,0,0,0-.414.824h-1.9a2.107,2.107,0,0,1,.461-1.3,3.071,3.071,0,0,1,1.254-.949,4.4,4.4,0,0,1,1.77-.344,3.547,3.547,0,0,1,2.367.746,2.661,2.661,0,0,1,.906,2.1v3.813a4.321,4.321,0,0,0,.32,1.82V0ZM18.211-1.367a2.159,2.159,0,0,0,1.059-.273,1.827,1.827,0,0,0,.746-.734V-3.969H18.992a2.8,2.8,0,0,0-1.586.367,1.189,1.189,0,0,0-.531,1.039,1.109,1.109,0,0,0,.363.871A1.407,1.407,0,0,0,18.211-1.367ZM24.57,0V-7.047H23.281V-8.453H24.57v-.773a2.9,2.9,0,0,1,.781-2.172,2.993,2.993,0,0,1,2.188-.766,4.388,4.388,0,0,1,1.063.141l-.047,1.484a3.739,3.739,0,0,0-.727-.062,1.219,1.219,0,0,0-1.359,1.4v.75h2.906v-.578a3.382,3.382,0,0,1,.422-1.7,2.624,2.624,0,0,1,1.172-1.07,4.218,4.218,0,0,1,1.82-.359,5.306,5.306,0,0,1,1.2.133q.574.133,1.191.336l-.3,1.57a5.927,5.927,0,0,0-1.961-.375,1.759,1.759,0,0,0-1.258.379,1.516,1.516,0,0,0-.391,1.137v.531h1.664v1.406H31.273V0h-1.9V-7.047H26.469V0ZM36.078,0h-1.9V-8.453h1.9Zm5.57-1.359a1.716,1.716,0,0,0,1.18-.414,1.415,1.415,0,0,0,.5-1.023h1.789a2.789,2.789,0,0,1-.492,1.473,3.228,3.228,0,0,1-1.25,1.082,3.725,3.725,0,0,1-1.7.4A3.6,3.6,0,0,1,38.859-.992,4.555,4.555,0,0,1,37.82-4.164v-.2a4.479,4.479,0,0,1,1.031-3.09,3.571,3.571,0,0,1,2.813-1.16,3.473,3.473,0,0,1,2.457.879,3.148,3.148,0,0,1,1,2.309H43.328a1.738,1.738,0,0,0-.5-1.2,1.6,1.6,0,0,0-1.184-.469,1.671,1.671,0,0,0-1.422.668,3.408,3.408,0,0,0-.508,2.027v.3a3.465,3.465,0,0,0,.5,2.051A1.669,1.669,0,0,0,41.648-1.359Zm-69.68,9.984,3.281,8.719,3.273-8.719h2.555V20h-1.969V16.25l.2-5.016L-24.055,20h-1.414l-3.352-8.758.2,5.008V20h-1.969V8.625ZM-11.719,20a2.93,2.93,0,0,1-.219-.789,2.955,2.955,0,0,1-2.219.945,2.982,2.982,0,0,1-2.078-.727,2.325,2.325,0,0,1-.8-1.8,2.4,2.4,0,0,1,1-2.074,4.865,4.865,0,0,1,2.871-.723H-12v-.555a1.481,1.481,0,0,0-.367-1.051,1.456,1.456,0,0,0-1.117-.395,1.672,1.672,0,0,0-1.062.324,1,1,0,0,0-.414.824h-1.9a2.107,2.107,0,0,1,.461-1.3,3.071,3.071,0,0,1,1.254-.949,4.4,4.4,0,0,1,1.77-.344,3.547,3.547,0,0,1,2.367.746,2.661,2.661,0,0,1,.906,2.1v3.813a4.321,4.321,0,0,0,.32,1.82V20ZM-13.8,18.633a2.16,2.16,0,0,0,1.059-.273A1.827,1.827,0,0,0-12,17.625V16.031h-1.023a2.8,2.8,0,0,0-1.586.367,1.189,1.189,0,0,0-.531,1.039,1.109,1.109,0,0,0,.363.871A1.407,1.407,0,0,0-13.8,18.633Zm7.453-7.086.055.977a3.039,3.039,0,0,1,2.461-1.133q2.641,0,2.688,3.023V20h-1.9V14.523a1.741,1.741,0,0,0-.348-1.191,1.462,1.462,0,0,0-1.137-.387,1.829,1.829,0,0,0-1.711,1.039V20h-1.9V11.547ZM5.836,20a2.93,2.93,0,0,1-.219-.789,2.955,2.955,0,0,1-2.219.945A2.982,2.982,0,0,1,1.32,19.43a2.325,2.325,0,0,1-.8-1.8,2.4,2.4,0,0,1,1-2.074,4.865,4.865,0,0,1,2.871-.723H5.555v-.555a1.481,1.481,0,0,0-.367-1.051,1.456,1.456,0,0,0-1.117-.395,1.672,1.672,0,0,0-1.062.324,1,1,0,0,0-.414.824H.7a2.107,2.107,0,0,1,.461-1.3,3.071,3.071,0,0,1,1.254-.949,4.4,4.4,0,0,1,1.77-.344,3.547,3.547,0,0,1,2.367.746,2.661,2.661,0,0,1,.906,2.1v3.813a4.321,4.321,0,0,0,.32,1.82V20ZM3.75,18.633a2.16,2.16,0,0,0,1.059-.273,1.827,1.827,0,0,0,.746-.734V16.031H4.531a2.8,2.8,0,0,0-1.586.367,1.189,1.189,0,0,0-.531,1.039,1.109,1.109,0,0,0,.363.871A1.407,1.407,0,0,0,3.75,18.633Zm5.359-2.922a4.944,4.944,0,0,1,.926-3.145,2.971,2.971,0,0,1,2.457-1.176A2.784,2.784,0,0,1,14.766,12.4l.086-.852h1.711v8.2a3.406,3.406,0,0,1-1.035,2.625,3.943,3.943,0,0,1-2.793.961,4.5,4.5,0,0,1-1.816-.387A3.227,3.227,0,0,1,9.57,21.93l.9-1.141a2.713,2.713,0,0,0,2.156,1.039,2.1,2.1,0,0,0,1.492-.512,1.961,1.961,0,0,0,.547-1.5v-.57a2.8,2.8,0,0,1-2.187.914,2.964,2.964,0,0,1-2.426-1.18A5.1,5.1,0,0,1,9.109,15.711ZM11,15.875a3.4,3.4,0,0,0,.52,2,1.671,1.671,0,0,0,1.441.73,1.827,1.827,0,0,0,1.7-.984V13.906a1.8,1.8,0,0,0-1.687-.961,1.677,1.677,0,0,0-1.457.742A3.811,3.811,0,0,0,11,15.875Zm11.234,4.281a3.928,3.928,0,0,1-2.926-1.137,4.124,4.124,0,0,1-1.121-3.027v-.234a5.072,5.072,0,0,1,.488-2.262,3.716,3.716,0,0,1,1.371-1.551,3.625,3.625,0,0,1,1.969-.555,3.318,3.318,0,0,1,2.668,1.1,4.658,4.658,0,0,1,.941,3.117v.766H20.1a2.539,2.539,0,0,0,.7,1.656,2.1,2.1,0,0,0,1.543.609,2.571,2.571,0,0,0,2.125-1.055l1.023.977a3.418,3.418,0,0,1-1.355,1.176A4.244,4.244,0,0,1,22.234,20.156Zm-.227-7.242a1.6,1.6,0,0,0-1.262.547,2.835,2.835,0,0,0-.613,1.523H23.75v-.141a2.307,2.307,0,0,0-.508-1.441A1.586,1.586,0,0,0,22.008,12.914Zm9.516.367a4.7,4.7,0,0,0-.773-.062,1.741,1.741,0,0,0-1.758,1V20h-1.9V11.547h1.813l.047.945a2.139,2.139,0,0,1,1.906-1.1,1.777,1.777,0,0,1,.672.109Z" transform="translate(734 814)" fill="#12263f"/>
    <g id="flecha-correcta_1_" data-name="flecha-correcta (1)" transform="translate(743.024 645.984) rotate(30)">
      <g id="Grupo_92579" data-name="Grupo 92579" transform="translate(0.74 92.391)">
        <path id="Trazado_106501" data-name="Trazado 106501" d="M38.174,130.1a4.274,4.274,0,0,1-4.274-4.274v-1.178H11.955A4.455,4.455,0,0,1,7.5,120.193V109.058a4.455,4.455,0,0,1,4.455-4.455H33.9v-1.179a4.271,4.271,0,0,1,6.931-3.344l14.09,11.2a4.272,4.272,0,0,1,0,6.688l-14.09,11.2a4.286,4.286,0,0,1-2.656.929Z" transform="translate(-7.5 -99.151)" fill="#f5f5f5"/>
      </g>
      <g id="Grupo_92580" data-name="Grupo 92580" transform="translate(4.522 96.173)">
        <path id="Trazado_106502" data-name="Trazado 106502" d="M87.123,148.8l-14.09-11.2a.49.49,0,0,0-.794.383v4.472a.49.49,0,0,1-.49.49H47.2a1.36,1.36,0,0,0-1.36,1.36v9.76a1.36,1.36,0,0,0,1.36,1.36h24.55a.49.49,0,0,1,.49.49v4.472a.49.49,0,0,0,.794.383l14.09-11.2A.49.49,0,0,0,87.123,148.8Z" transform="translate(-45.839 -137.488)" fill="#fff"/>
      </g>
      <g id="Grupo_92581" data-name="Grupo 92581" transform="translate(29.928 92.391)">
        <path id="Trazado_106503" data-name="Trazado 106503" d="M321.584,111.281l-14.09-11.2a4.265,4.265,0,0,0-4.14-.663,4.282,4.282,0,0,1,1.181.663l14.09,11.2a4.272,4.272,0,0,1,0,6.688l-14.09,11.2a4.282,4.282,0,0,1-1.182.663,4.266,4.266,0,0,0,1.485.266h0a4.285,4.285,0,0,0,2.656-.929l14.09-11.2a4.272,4.272,0,0,0,0-6.688Z" transform="translate(-303.352 -99.151)" fill="#ebe5ed"/>
      </g>
      <g id="Grupo_92582" data-name="Grupo 92582" transform="translate(30.922 96.173)">
        <path id="Trazado_106504" data-name="Trazado 106504" d="M328.305,148.8l-14.09-11.2a.49.49,0,0,0-.794.383v1.338l11.925,9.48a.49.49,0,0,1,0,.767l-11.925,9.48v1.338a.49.49,0,0,0,.794.383l14.09-11.2A.49.49,0,0,0,328.305,148.8Z" transform="translate(-313.421 -137.488)" fill="#fcce63"/>
      </g>
      <g id="Grupo_92583" data-name="Grupo 92583" transform="translate(0 91.651)">
        <path id="Trazado_106505" data-name="Trazado 106505" d="M31.414,124.08a5.02,5.02,0,0,1-5.014-5.014v-.438H20.526a.74.74,0,0,1,0-1.48h6.613a.74.74,0,0,1,.74.74v1.178a3.531,3.531,0,0,0,5.73,2.766l14.09-11.2a3.532,3.532,0,0,0,0-5.53L33.61,93.9a3.531,3.531,0,0,0-5.73,2.765v1.179a.74.74,0,0,1-.74.74H5.195A3.719,3.719,0,0,0,1.48,102.3v11.135a3.719,3.719,0,0,0,3.715,3.715H17.566a.74.74,0,1,1,0,1.48H5.195A5.2,5.2,0,0,1,0,113.433V102.3A5.2,5.2,0,0,1,5.195,97.1H26.4v-.439a5.011,5.011,0,0,1,8.131-3.923l14.09,11.2a5.012,5.012,0,0,1,0,7.846l-14.09,11.2a5.028,5.028,0,0,1-3.117,1.09Z" transform="translate(0 -91.651)" fill="#21214b"/>
      </g>
      <g id="Grupo_92584" data-name="Grupo 92584" transform="translate(3.782 95.433)">
        <path id="Trazado_106506" data-name="Trazado 106506" d="M65.969,154.848a1.234,1.234,0,0,1-.536-.124,1.221,1.221,0,0,1-.7-1.108v-4.222h-24.3a2.1,2.1,0,0,1-2.1-2.1v-9.76a2.1,2.1,0,0,1,2.1-2.1h5.1a.74.74,0,1,1,0,1.48h-5.1a.621.621,0,0,0-.62.62v9.76a.621.621,0,0,0,.62.62h24.55a1.231,1.231,0,0,1,1.23,1.23V153.1l13.438-10.683L66.217,131.732v3.953a1.231,1.231,0,0,1-1.23,1.23H48.5a.74.74,0,1,1,0-1.48H64.738v-4.222a1.23,1.23,0,0,1,1.995-.963l14.09,11.2a1.23,1.23,0,0,1,0,1.925l-14.09,11.2A1.224,1.224,0,0,1,65.969,154.848Z" transform="translate(-38.338 -129.982)" fill="#21214b"/>
      </g>
    </g>
    <g id="flecha-correcta-2" data-name="flecha-correcta" transform="translate(812 669.903)">
      <path id="Trazado_106498-2" data-name="Trazado 106498" d="M49.534,94.09l-5.443-4.846a5.272,5.272,0,1,1,7.023-7.866l15.8,14.046a5.267,5.267,0,0,1,0,7.866l-15.8,14.046a5.272,5.272,0,1,1-7.023-7.866l5.443-4.846H21.267a5.267,5.267,0,1,1,0-10.534H49.534Z" transform="translate(-14.244 -14.257)" fill="#ffc107"/>
      <path id="Trazado_106499-2" data-name="Trazado 106499" d="M33.359,106.169A7.023,7.023,0,0,1,28.682,93.9l1.995-1.777H7.023a7.023,7.023,0,0,1,0-14.046H30.676l-2-1.777a7.03,7.03,0,1,1,9.358-10.492l15.8,14.046a7.023,7.023,0,0,1,0,10.5L38.036,104.4A6.994,6.994,0,0,1,33.359,106.169ZM7.023,81.589a3.511,3.511,0,1,0,0,7.023H35.29a1.756,1.756,0,0,1,1.166,3.069l-5.439,4.842a3.511,3.511,0,0,0-.287,4.958l.01.011a3.648,3.648,0,0,0,4.962.281L51.5,87.727a3.529,3.529,0,0,0,0-5.236L35.7,68.445a3.511,3.511,0,0,0-4.688,5.229l5.443,4.846a1.756,1.756,0,0,1-1.166,3.069H7.023Z"/>
    </g>
    <g id="Trazado_106774" data-name="Trazado 106774" transform="translate(896 707)" fill="#fff">
      <path d="M 30 33 L 5 33 C 2.794389963150024 33 1 31.20561027526855 1 29 L 1 5 C 1 2.794389963150024 2.794389963150024 1 5 1 L 30 1 C 32.20560836791992 1 34 2.794389963150024 34 5 L 34 29 C 34 31.20561027526855 32.20560836791992 33 30 33 Z" stroke="none"/>
      <path d="M 5 2 C 3.345790863037109 2 2 3.345790863037109 2 5 L 2 29 C 2 30.65420913696289 3.345790863037109 32 5 32 L 30 32 C 31.65420913696289 32 33 30.65420913696289 33 29 L 33 5 C 33 3.345790863037109 31.65420913696289 2 30 2 L 5 2 M 5 0 L 30 0 C 32.76142120361328 0 35 2.238580703735352 35 5 L 35 29 C 35 31.76141929626465 32.76142120361328 34 30 34 L 5 34 C 2.238571166992188 34 0 31.76141929626465 0 29 L 0 5 C 0 2.238580703735352 2.238571166992188 0 5 0 Z" stroke="none" fill="#21214b"/>
    </g>
    <path id="Trazado_106776" data-name="Trazado 106776" d="M-29.484-2.648h-4.406L-34.812,0h-2.055l4.3-11.375H-30.8L-26.492,0h-2.062Zm-3.852-1.594h3.3l-1.648-4.719Zm10.07,2.727h4.5V0h-6.859V-1.242l4.289-5.68h-4.211V-8.453h6.617v1.2Zm11.141.688A2.944,2.944,0,0,1-14.5.156a2.624,2.624,0,0,1-2.082-.8,3.423,3.423,0,0,1-.707-2.328V-8.453h1.9V-3q0,1.609,1.336,1.609a1.876,1.876,0,0,0,1.867-.992v-6.07h1.9V0h-1.789Zm8.2-5.891A4.7,4.7,0,0,0-4.7-6.781a1.741,1.741,0,0,0-1.758,1V0h-1.9V-8.453h1.813l.047.945a2.139,2.139,0,0,1,1.906-1.1,1.777,1.777,0,0,1,.672.109ZM.844.156A3.928,3.928,0,0,1-2.082-.98,4.124,4.124,0,0,1-3.2-4.008v-.234A5.072,5.072,0,0,1-2.715-6.5,3.716,3.716,0,0,1-1.344-8.055,3.625,3.625,0,0,1,.625-8.609a3.318,3.318,0,0,1,2.668,1.1,4.658,4.658,0,0,1,.941,3.117v.766H-1.289a2.539,2.539,0,0,0,.7,1.656,2.1,2.1,0,0,0,1.543.609A2.571,2.571,0,0,0,3.078-2.414L4.1-1.437A3.418,3.418,0,0,1,2.746-.262,4.244,4.244,0,0,1,.844.156ZM.617-7.086a1.6,1.6,0,0,0-1.262.547,2.835,2.835,0,0,0-.613,1.523H2.359v-.141A2.307,2.307,0,0,0,1.852-6.6,1.586,1.586,0,0,0,.617-7.086ZM16.242-2.648H11.836L10.914,0H8.859l4.3-11.375H14.93L19.234,0H17.172ZM12.391-4.242h3.3L14.039-8.961Zm14.977.1a5.033,5.033,0,0,1-.891,3.129A2.852,2.852,0,0,1,24.086.156a2.871,2.871,0,0,1-2.227-.914V3.25h-1.9v-11.7h1.75l.078.859a2.788,2.788,0,0,1,2.273-1.016,2.881,2.881,0,0,1,2.426,1.152,5.167,5.167,0,0,1,.879,3.2ZM25.477-4.3a3.526,3.526,0,0,0-.5-2.008,1.638,1.638,0,0,0-1.441-.742,1.747,1.747,0,0,0-1.672.961v3.75a1.763,1.763,0,0,0,1.688.984,1.636,1.636,0,0,0,1.418-.73A3.881,3.881,0,0,0,25.477-4.3Zm10.9.164a5.033,5.033,0,0,1-.891,3.129A2.852,2.852,0,0,1,33.094.156a2.871,2.871,0,0,1-2.227-.914V3.25h-1.9v-11.7h1.75l.078.859A2.788,2.788,0,0,1,33.07-8.609,2.881,2.881,0,0,1,35.5-7.457a5.167,5.167,0,0,1,.879,3.2ZM34.484-4.3a3.526,3.526,0,0,0-.5-2.008,1.638,1.638,0,0,0-1.441-.742,1.747,1.747,0,0,0-1.672.961v3.75a1.763,1.763,0,0,0,1.688.984,1.636,1.636,0,0,0,1.418-.73A3.881,3.881,0,0,0,34.484-4.3Zm-58,21.375a1.374,1.374,0,0,0-.527-1.156,6.345,6.345,0,0,0-1.9-.82,9.186,9.186,0,0,1-2.187-.922,2.919,2.919,0,0,1-1.555-2.547,2.772,2.772,0,0,1,1.121-2.266,4.538,4.538,0,0,1,2.91-.891,4.916,4.916,0,0,1,2.117.438,3.475,3.475,0,0,1,1.461,1.246,3.2,3.2,0,0,1,.531,1.793h-1.969a1.782,1.782,0,0,0-.559-1.395,2.305,2.305,0,0,0-1.6-.5,2.408,2.408,0,0,0-1.5.414,1.379,1.379,0,0,0-.535,1.156,1.247,1.247,0,0,0,.578,1.043,6.66,6.66,0,0,0,1.906.813,8.768,8.768,0,0,1,2.133.9,3.392,3.392,0,0,1,1.18,1.156,3.011,3.011,0,0,1,.375,1.527,2.707,2.707,0,0,1-1.09,2.262,4.727,4.727,0,0,1-2.957.84,5.557,5.557,0,0,1-2.27-.457,3.812,3.812,0,0,1-1.609-1.262,3.144,3.144,0,0,1-.574-1.875h1.977a1.84,1.84,0,0,0,.641,1.5,2.805,2.805,0,0,0,1.836.531,2.437,2.437,0,0,0,1.551-.418A1.349,1.349,0,0,0-23.512,17.07Zm7.25,3.086a3.928,3.928,0,0,1-2.926-1.137,4.124,4.124,0,0,1-1.121-3.027v-.234A5.072,5.072,0,0,1-19.82,13.5a3.716,3.716,0,0,1,1.371-1.551,3.625,3.625,0,0,1,1.969-.555,3.318,3.318,0,0,1,2.668,1.1,4.658,4.658,0,0,1,.941,3.117v.766h-5.523a2.539,2.539,0,0,0,.7,1.656,2.1,2.1,0,0,0,1.543.609,2.571,2.571,0,0,0,2.125-1.055l1.023.977a3.418,3.418,0,0,1-1.355,1.176A4.244,4.244,0,0,1-16.262,20.156Zm-.227-7.242a1.6,1.6,0,0,0-1.262.547,2.835,2.835,0,0,0-.613,1.523h3.617v-.141a2.307,2.307,0,0,0-.508-1.441A1.586,1.586,0,0,0-16.488,12.914Zm9.516.367a4.7,4.7,0,0,0-.773-.062,1.741,1.741,0,0,0-1.758,1V20h-1.9V11.547H-9.59l.047.945a2.139,2.139,0,0,1,1.906-1.1,1.777,1.777,0,0,1,.672.109Zm4.32,4.313,1.789-6.047H1.1L-1.832,20H-3.48l-2.953-8.453h1.969ZM4.3,20H2.4V11.547H4.3ZM2.285,9.352a1.008,1.008,0,0,1,.277-.727,1.048,1.048,0,0,1,.793-.289,1.061,1.061,0,0,1,.8.289,1,1,0,0,1,.281.727.977.977,0,0,1-.281.715,1.069,1.069,0,0,1-.8.285,1.056,1.056,0,0,1-.793-.285A.984.984,0,0,1,2.285,9.352ZM9.84,18.641a1.716,1.716,0,0,0,1.18-.414,1.415,1.415,0,0,0,.5-1.023h1.789a2.789,2.789,0,0,1-.492,1.473,3.228,3.228,0,0,1-1.25,1.082,3.725,3.725,0,0,1-1.7.4,3.6,3.6,0,0,1-2.812-1.148,4.555,4.555,0,0,1-1.039-3.172v-.2a4.479,4.479,0,0,1,1.031-3.09,3.571,3.571,0,0,1,2.813-1.16,3.473,3.473,0,0,1,2.457.879,3.148,3.148,0,0,1,1,2.309H11.52a1.738,1.738,0,0,0-.5-1.2,1.6,1.6,0,0,0-1.184-.469,1.671,1.671,0,0,0-1.422.668,3.408,3.408,0,0,0-.508,2.027v.3a3.465,3.465,0,0,0,.5,2.051A1.669,1.669,0,0,0,9.84,18.641Zm8.625,1.516a3.928,3.928,0,0,1-2.926-1.137,4.124,4.124,0,0,1-1.121-3.027v-.234a5.072,5.072,0,0,1,.488-2.262,3.716,3.716,0,0,1,1.371-1.551,3.625,3.625,0,0,1,1.969-.555,3.318,3.318,0,0,1,2.668,1.1,4.658,4.658,0,0,1,.941,3.117v.766H16.332a2.539,2.539,0,0,0,.7,1.656,2.1,2.1,0,0,0,1.543.609A2.571,2.571,0,0,0,20.7,17.586l1.023.977a3.418,3.418,0,0,1-1.355,1.176A4.244,4.244,0,0,1,18.465,20.156Zm-.227-7.242a1.6,1.6,0,0,0-1.262.547,2.835,2.835,0,0,0-.613,1.523H19.98v-.141a2.307,2.307,0,0,0-.508-1.441A1.586,1.586,0,0,0,18.238,12.914ZM28.066,17.7a.861.861,0,0,0-.418-.773,4.445,4.445,0,0,0-1.387-.469,7.129,7.129,0,0,1-1.617-.516,2.158,2.158,0,0,1-1.422-1.992,2.25,2.25,0,0,1,.922-1.828,3.644,3.644,0,0,1,2.344-.734,3.792,3.792,0,0,1,2.449.75,2.38,2.38,0,0,1,.934,1.945h-1.9a1.17,1.17,0,0,0-.406-.91,1.557,1.557,0,0,0-1.078-.363,1.682,1.682,0,0,0-1.02.289.911.911,0,0,0-.395.773.769.769,0,0,0,.367.68,5.049,5.049,0,0,0,1.484.488,7.027,7.027,0,0,1,1.754.586,2.484,2.484,0,0,1,.945.816,2.082,2.082,0,0,1,.309,1.156,2.2,2.2,0,0,1-.945,1.848,4.031,4.031,0,0,1-2.477.707,4.371,4.371,0,0,1-1.852-.375,3.047,3.047,0,0,1-1.266-1.031,2.441,2.441,0,0,1-.453-1.414h1.844a1.338,1.338,0,0,0,.508,1.035,1.973,1.973,0,0,0,1.242.363,1.92,1.92,0,0,0,1.141-.285A.883.883,0,0,0,28.066,17.7Z" transform="translate(940 814)" fill="#12263f"/>
    <g id="flecha-correcta-3" data-name="flecha-correcta" transform="translate(1001.805 669.903)">
      <path id="Trazado_106498-3" data-name="Trazado 106498" d="M49.534,94.09l-5.443-4.846a5.272,5.272,0,1,1,7.023-7.866l15.8,14.046a5.267,5.267,0,0,1,0,7.866l-15.8,14.046a5.272,5.272,0,1,1-7.023-7.866l5.443-4.846H21.267a5.267,5.267,0,1,1,0-10.534H49.534Z" transform="translate(-14.244 -14.257)" fill="#ffc107"/>
      <path id="Trazado_106499-3" data-name="Trazado 106499" d="M33.359,106.169A7.023,7.023,0,0,1,28.682,93.9l1.995-1.777H7.023a7.023,7.023,0,0,1,0-14.046H30.676l-2-1.777a7.03,7.03,0,1,1,9.358-10.492l15.8,14.046a7.023,7.023,0,0,1,0,10.5L38.036,104.4A6.994,6.994,0,0,1,33.359,106.169ZM7.023,81.589a3.511,3.511,0,1,0,0,7.023H35.29a1.756,1.756,0,0,1,1.166,3.069l-5.439,4.842a3.511,3.511,0,0,0-.287,4.958l.01.011a3.648,3.648,0,0,0,4.962.281L51.5,87.727a3.529,3.529,0,0,0,0-5.236L35.7,68.445a3.511,3.511,0,0,0-4.688,5.229l5.443,4.846a1.756,1.756,0,0,1-1.166,3.069H7.023Z"/>
    </g>
    <g id="Trazado_106777" data-name="Trazado 106777" transform="translate(942 707)" fill="#fff">
      <path d="M 30 33 L 5 33 C 2.794389963150024 33 1 31.20561027526855 1 29 L 1 5 C 1 2.794389963150024 2.794389963150024 1 5 1 L 30 1 C 32.20560836791992 1 34 2.794389963150024 34 5 L 34 29 C 34 31.20561027526855 32.20560836791992 33 30 33 Z" stroke="none"/>
      <path d="M 5 2 C 3.345790863037109 2 2 3.345790863037109 2 5 L 2 29 C 2 30.65420913696289 3.345790863037109 32 5 32 L 30 32 C 31.65420913696289 32 33 30.65420913696289 33 29 L 33 5 C 33 3.345790863037109 31.65420913696289 2 30 2 L 5 2 M 5 0 L 30 0 C 32.76142120361328 0 35 2.238580703735352 35 5 L 35 29 C 35 31.76141929626465 32.76142120361328 34 30 34 L 5 34 C 2.238571166992188 34 0 31.76141929626465 0 29 L 0 5 C 0 2.238580703735352 2.238571166992188 0 5 0 Z" stroke="none" fill="#21214b"/>
    </g>
    <g id="Trazado_106775" data-name="Trazado 106775" transform="translate(896 749)" fill="#fff">
      <path d="M 30 33 L 5 33 C 2.794389963150024 33 1 31.20561027526855 1 29 L 1 5 C 1 2.794389963150024 2.794389963150024 1 5 1 L 30 1 C 32.20560836791992 1 34 2.794389963150024 34 5 L 34 29 C 34 31.20561027526855 32.20560836791992 33 30 33 Z" stroke="none"/>
      <path d="M 5 2 C 3.345790863037109 2 2 3.345790863037109 2 5 L 2 29 C 2 30.65420913696289 3.345790863037109 32 5 32 L 30 32 C 31.65420913696289 32 33 30.65420913696289 33 29 L 33 5 C 33 3.345790863037109 31.65420913696289 2 30 2 L 5 2 M 5 0 L 30 0 C 32.76142120361328 0 35 2.238580703735352 35 5 L 35 29 C 35 31.76141929626465 32.76142120361328 34 30 34 L 5 34 C 2.238571166992188 34 0 31.76141929626465 0 29 L 0 5 C 0 2.238580703735352 2.238571166992188 0 5 0 Z" stroke="none" fill="#21214b"/>
    </g>
    <g id="Trazado_106778" data-name="Trazado 106778" transform="translate(942 749)" fill="#fff">
      <path d="M 30 33 L 5 33 C 2.794389963150024 33 1 31.20561027526855 1 29 L 1 5 C 1 2.794389963150024 2.794389963150024 1 5 1 L 30 1 C 32.20560836791992 1 34 2.794389963150024 34 5 L 34 29 C 34 31.20561027526855 32.20560836791992 33 30 33 Z" stroke="none"/>
      <path d="M 5 2 C 3.345790863037109 2 2 3.345790863037109 2 5 L 2 29 C 2 30.65420913696289 3.345790863037109 32 5 32 L 30 32 C 31.65420913696289 32 33 30.65420913696289 33 29 L 33 5 C 33 3.345790863037109 31.65420913696289 2 30 2 L 5 2 M 5 0 L 30 0 C 32.76142120361328 0 35 2.238580703735352 35 5 L 35 29 C 35 31.76141929626465 32.76142120361328 34 30 34 L 5 34 C 2.238571166992188 34 0 31.76141929626465 0 29 L 0 5 C 0 2.238580703735352 2.238571166992188 0 5 0 Z" stroke="none" fill="#21214b"/>
    </g>
    <g id="clouds" transform="translate(904.195 663.229)">
      <path id="Trazado_106507" data-name="Trazado 106507" d="M44.74,74.968h4.2A12.34,12.34,0,0,1,56.41,69a4.328,4.328,0,0,0-5.294-2.482c0-.066.005-.131.005-.2a5.815,5.815,0,0,0-11.486-1.286,3.49,3.49,0,0,0-3.975,1.325,4.375,4.375,0,1,0-1.1,8.609h6.994" transform="translate(-26.755 -7.646)" fill="#9fdef7"/>
      <path id="Trazado_106508" data-name="Trazado 106508" d="M49.647,135.085a12.314,12.314,0,0,0-21.007,5.684,7.388,7.388,0,0,0-8.418,2.806,9.264,9.264,0,1,0-2.33,18.231H28.106a5.737,5.737,0,0,1,7.449-5.433c0-.087-.007-.174-.007-.262a7.711,7.711,0,0,1,15.232-1.706,4.626,4.626,0,0,1,5.271,1.758,5.807,5.807,0,0,1,6.433,2.63,9.159,9.159,0,0,0-9.53-14.881c0-.139.01-.278.01-.418a12.261,12.261,0,0,0-1.41-5.728" transform="translate(-7.649 -70.288)" fill="#beeafc"/>
      <path id="Trazado_106509" data-name="Trazado 106509" d="M202.916,301.906H185.75a5.733,5.733,0,1,1,1.717-11.205c0-.087-.007-.174-.007-.262a7.711,7.711,0,0,1,15.232-1.706,4.626,4.626,0,0,1,5.271,1.758,5.8,5.8,0,1,1,1.459,11.416H206.1" transform="translate(-159.56 -204.615)" fill="#e4f2f9"/>
      <path id="Trazado_106510" data-name="Trazado 106510" d="M191.865,291.255a14.288,14.288,0,0,1,1.228-5.813,7.713,7.713,0,0,0-5.633,7.426c0,.088,0,.175.007.262a5.734,5.734,0,1,0-1.717,11.205h14.569A14.341,14.341,0,0,1,191.865,291.255Z" transform="translate(-159.56 -207.021)" fill="#d7edf9"/>
      <path id="Trazado_106511" data-name="Trazado 106511" d="M18.454,240.043c-.185-.011-.371-.017-.558-.017a9.263,9.263,0,0,0,0,18.527H28.108a5.708,5.708,0,0,1,.71-2.726A28.745,28.745,0,0,1,18.454,240.043Z" transform="translate(-7.651 -166.766)" fill="#aee4ff"/>
      <path id="Trazado_106512" data-name="Trazado 106512" d="M37.657,111.353a28.718,28.718,0,0,1,1.317-8.623,3.49,3.49,0,0,0-2.233,1.446,4.375,4.375,0,1,0-1.1,8.609h2.051Q37.657,112.073,37.657,111.353Z" transform="translate(-27.714 -45.072)" fill="#83d4ed"/>
      <path id="Trazado_106513" data-name="Trazado 106513" d="M58.183,82.362A10.143,10.143,0,0,0,46.27,72.381a13.319,13.319,0,0,0-1.5-5.36.981.981,0,1,0-1.735.913,11.358,11.358,0,0,1,1.3,5.271c0,.1,0,.2-.007.3l0,.087a.98.98,0,0,0,1.273.967,8.177,8.177,0,0,1,9.25,12.34c-.034-.037-.071-.072-.106-.109s-.077-.08-.116-.119l-.081-.077q-.092-.088-.187-.173l-.031-.027a6.752,6.752,0,0,0-4.465-1.684,6.834,6.834,0,0,0-1.064.083,5.607,5.607,0,0,0-4.982-1.839A8.692,8.692,0,0,0,26.97,84.888a6.8,6.8,0,0,0-.78-.045c-.11,0-.219,0-.328.008l-.124.009c-.066,0-.132.009-.2.015s-.1.012-.157.018l-.157.02-.179.029-.127.023c-.067.013-.133.027-.2.042l-.1.022q-.111.027-.22.057l-.061.017c-.083.024-.166.049-.248.076l-.014,0a6.734,6.734,0,0,0-4.529,5.354h-9.31a8.283,8.283,0,1,1,2.084-16.3.981.981,0,0,0,1.051-.391,6.407,6.407,0,0,1,7.3-2.434.981.981,0,0,0,1.267-.714,11.459,11.459,0,0,1,1.023-2.789.971.971,0,0,0,.075-.117A11.406,11.406,0,0,1,29.921,62.3a1,1,0,0,0,.1-.035A11.485,11.485,0,0,1,33,61.871a11.225,11.225,0,0,1,8.281,3.6.981.981,0,0,0,1.433-1.339,13.279,13.279,0,0,0-12.542-3.911,5.285,5.285,0,0,0-4.517-2.522q-.189,0-.378.013A6.8,6.8,0,0,0,12.2,56.248q-.212-.02-.426-.02a4.472,4.472,0,0,0-3.26,1.412A5.355,5.355,0,1,0,7.8,68.3H14.8a.98.98,0,0,0,0-1.961H7.8a3.394,3.394,0,1,1,.855-6.679.981.981,0,0,0,1.051-.391,2.51,2.51,0,0,1,2.859-.954.98.98,0,0,0,1.266-.714,4.835,4.835,0,0,1,9.549,1.07c0,.042,0,.083,0,.124v.042a.981.981,0,0,0,1.273.968,3.351,3.351,0,0,1,3.533,1l-.1.042-.185.077c-.1.04-.193.081-.289.123-.114.05-.227.1-.34.158l-.117.056a13.211,13.211,0,0,0-2.512,1.6,13.353,13.353,0,0,0-2.7,2.972c-.032.048-.063.1-.094.145-.06.092-.119.185-.177.279-.017.027-.035.053-.051.081H17.984a.98.98,0,1,0,0,1.961h2.66c-.128.322-.245.649-.348.981a8.367,8.367,0,0,0-8.126,2.909A10.244,10.244,0,1,0,10.244,92.5h9.3a6.723,6.723,0,0,0,6.646,5.772H43.356a.98.98,0,1,0,0-1.961H26.19a4.758,4.758,0,0,1-4.753-4.753c0-.023,0-.045,0-.068,0-.068,0-.136.006-.2,0-.008,0-.017,0-.025,0-.073.01-.145.018-.217h0a4.757,4.757,0,0,1,6.148-4.021.981.981,0,0,0,1.273-.967l0-.059c0-.057,0-.114,0-.171a6.731,6.731,0,0,1,13.295-1.49.981.981,0,0,0,1.267.714A3.645,3.645,0,0,1,47.6,86.434a.98.98,0,0,0,1.052.391,4.839,4.839,0,0,1,1.213-.154c.1,0,.19,0,.285.009l.106.008q.085.007.169.016l.138.018.111.018a4.824,4.824,0,0,1,3.05,1.864l.009.012a4.817,4.817,0,0,1-3.867,7.695H46.542a.98.98,0,0,0,0,1.961h3.319a6.777,6.777,0,0,0,6.147-9.64A10.11,10.11,0,0,0,58.183,82.362Z" transform="translate(0 0)" fill="#21214b"/>
    </g>
    <g id="almacenamiento-de-base-de-datos" transform="translate(1101.337 711.337)">
      <g id="Grupo_92595" data-name="Grupo 92595" transform="translate(2.183 2.183)">
        <g id="Grupo_92585" data-name="Grupo 92585" transform="translate(9.461 21.288)">
          <path id="Trazado_106514" data-name="Trazado 106514" d="M47.846,20v9.461c0,2.614-8.468,4.731-18.923,4.731S10,32.075,10,29.461V20c0,2.614,8.468,4.731,18.923,4.731S47.846,22.614,47.846,20Z" transform="translate(-10 -20)" fill="#4dd0e1"/>
        </g>
        <g id="Grupo_92586" data-name="Grupo 92586" transform="translate(29.165 40.211)">
          <path id="Trazado_106515" data-name="Trazado 106515" d="M44.8,36v9.461c0,2.2-6.032,4.045-14.192,4.577V46.644l-3.039-.769A14.085,14.085,0,0,0,26.66,43.7l1.608-2.708C37.718,40.731,44.8,38.436,44.8,36Z" transform="translate(-26.66 -36)" fill="#4dd0e1"/>
        </g>
        <g id="Grupo_92587" data-name="Grupo 92587" transform="translate(9.461 30.75)">
          <path id="Trazado_106516" data-name="Trazado 106516" d="M10,28c0,2.614,8.468,4.731,18.923,4.731S47.846,30.614,47.846,28v9.461c0,2.436-7.084,4.731-16.534,4.991L26.3,37.438l-2.708,1.608a14.085,14.085,0,0,0-2.176-.911L20.644,35.1h-7.1l-.769,3.039a14.085,14.085,0,0,0-2.176.911l-.6-.355Z" transform="translate(-10 -28)" fill="#dbfbff"/>
        </g>
        <g id="Grupo_92588" data-name="Grupo 92588" transform="translate(9.461 16.558)">
          <ellipse id="Elipse_1720" data-name="Elipse 1720" cx="19" cy="5" rx="19" ry="5" transform="translate(0.019 -0.077)" fill="#dbfbff"/>
        </g>
        <g id="Grupo_92589" data-name="Grupo 92589" transform="translate(0 37.846)">
          <path id="Trazado_106517" data-name="Trazado 106517" d="M35.115,50.4v3.7l-3.039.769a14.085,14.085,0,0,1-.911,2.176l1.608,2.708-5.015,5.015L25.05,63.165a14.085,14.085,0,0,1-2.176.911l-.769,3.039h-7.1l-.769-3.039a14.085,14.085,0,0,1-2.176-.911L9.356,64.773,4.342,59.759,5.95,57.05a14.085,14.085,0,0,1-.911-2.176L2,54.106v-7.1l3.039-.769a14.085,14.085,0,0,1,.911-2.176L4.342,41.356l5.015-5.015L11.461,37.6l.6.355a14.085,14.085,0,0,1,2.176-.911L15.009,34h7.1l.769,3.039a14.085,14.085,0,0,1,2.176.911l2.708-1.608,5.015,5.015-1.608,2.708a14.085,14.085,0,0,1,.911,2.176l3.039.769Zm-7.1.154a9.461,9.461,0,1,0-9.461,9.461A9.459,9.459,0,0,0,28.019,50.558Z" transform="translate(-2 -34)" fill="#ffc729"/>
        </g>
        <g id="Grupo_92590" data-name="Grupo 92590" transform="translate(7.096 44.942)">
          <path id="Trazado_106518" data-name="Trazado 106518" d="M17.461,40A9.461,9.461,0,1,1,8,49.461,9.459,9.459,0,0,1,17.461,40Zm4.731,9.461a4.731,4.731,0,1,0-4.731,4.731A4.729,4.729,0,0,0,22.192,49.461Z" transform="translate(-8 -40)" fill="#fcd770"/>
        </g>
        <g id="Grupo_92591" data-name="Grupo 92591" transform="translate(54.403)">
          <path id="Trazado_106519" data-name="Trazado 106519" d="M64.558,2V25.654H48V2Z" transform="translate(-48 -2)" fill="#e6e9ed"/>
        </g>
        <g id="Grupo_92592" data-name="Grupo 92592" transform="translate(54.403 47.307)">
          <path id="Trazado_106520" data-name="Trazado 106520" d="M64.558,42V65.654H48V42H64.558Z" transform="translate(-48 -42)" fill="#e6e9ed"/>
        </g>
        <g id="Grupo_92593" data-name="Grupo 92593" transform="translate(59.134 61.499)">
          <path id="Trazado_106521" data-name="Trazado 106521" d="M52,54h7.1v4.731H52Z" transform="translate(-52 -54)" fill="#b4dd7f"/>
        </g>
        <g id="Grupo_92594" data-name="Grupo 92594" transform="translate(59.134 31.932)">
          <ellipse id="Elipse_1721" data-name="Elipse 1721" cx="3.5" cy="4" rx="3.5" ry="4" transform="translate(0.347 -0.452)" fill="#ff826e"/>
        </g>
      </g>
      <g id="Grupo_92602" data-name="Grupo 92602" transform="translate(1 1)">
        <g id="Grupo_92596" data-name="Grupo 92596" transform="translate(9.461 22.471)">
          <path id="Trazado_106522" data-name="Trazado 106522" d="M9,20h2.365V40.148H9Z" transform="translate(-9 -20)" fill="#12263f"/>
        </g>
        <g id="Grupo_92597" data-name="Grupo 92597" transform="translate(34.221 22.471)">
          <path id="Trazado_106523" data-name="Trazado 106523" d="M30.088,54.14l-.153-2.361c9.193-.594,13.086-2.669,13.086-3.4V20h2.365V48.384C45.387,52.809,33.677,53.909,30.088,54.14Z" transform="translate(-29.935 -20)" fill="#12263f"/>
        </g>
        <g id="Grupo_92598" data-name="Grupo 92598" transform="translate(7.096 44.942)">
          <path id="Trazado_106524" data-name="Trazado 106524" d="M17.644,60.288A10.644,10.644,0,1,1,28.288,49.644,10.656,10.656,0,0,1,17.644,60.288Zm0-18.923a8.279,8.279,0,1,0,8.279,8.279A8.289,8.289,0,0,0,17.644,41.365Z" transform="translate(-7 -39)" fill="#12263f"/>
        </g>
        <g id="Grupo_92599" data-name="Grupo 92599" transform="translate(0 37.846)">
          <path id="Trazado_106525" data-name="Trazado 106525" d="M23.207,68.48H14.272l-.843-3.314c-.377-.141-.756-.3-1.131-.473L9.354,66.443,3.037,60.125l1.75-2.944c-.174-.375-.332-.755-.473-1.131L1,55.207V46.272l3.314-.843c.141-.376.3-.756.473-1.131l-1.75-2.944,6.318-6.318L12.3,36.786c.375-.174.753-.332,1.131-.473L14.273,33h8.935l.843,3.314c.377.141.756.3,1.131.473l2.944-1.749,6.318,6.318L32.693,44.3c.174.375.332.755.473,1.131l3.314.843v8.935l-3.314.843c-.141.376-.3.756-.473,1.131l1.75,2.944-6.318,6.318-2.944-1.749c-.375.174-.753.332-1.131.473Zm-7.1-2.365h5.257l.708-2.784.624-.2a13.017,13.017,0,0,0,1.99-.833l.583-.3,2.479,1.474,3.717-3.717L30,57.276l.3-.582A12.983,12.983,0,0,0,31.13,54.7l.2-.624,2.785-.706V48.112l-2.784-.707-.2-.624a12.984,12.984,0,0,0-.833-1.994L30,44.2l1.474-2.478L27.755,38.01l-2.479,1.474-.583-.3a13.016,13.016,0,0,0-1.99-.833l-.624-.2-.708-2.784H16.112L15.4,38.149l-.624.2a13.017,13.017,0,0,0-1.99.833l-.583.3L9.727,38.01,6.01,41.727,7.483,44.2l-.3.582a12.983,12.983,0,0,0-.833,1.994l-.2.624-2.784.706v5.257l2.784.707.2.624a12.983,12.983,0,0,0,.833,1.994l.3.582L6.009,59.753l3.717,3.717L12.2,62l.583.3a13.016,13.016,0,0,0,1.99.833l.624.2Z" transform="translate(-1 -33)" fill="#12263f"/>
        </g>
        <g id="Grupo_92600" data-name="Grupo 92600" transform="translate(11.827 49.673)">
          <path id="Trazado_106526" data-name="Trazado 106526" d="M16.913,54.827a5.913,5.913,0,1,1,5.913-5.913A5.92,5.92,0,0,1,16.913,54.827Zm0-9.461a3.548,3.548,0,1,0,3.548,3.548A3.552,3.552,0,0,0,16.913,45.365Z" transform="translate(-11 -43)" fill="#12263f"/>
        </g>
        <g id="Grupo_92601" data-name="Grupo 92601" transform="translate(9.461)">
          <path id="Trazado_106527" data-name="Trazado 106527" d="M29.106,26.827c6.954,0,20.106-1.236,20.106-5.913S36.06,15,29.106,15,9,16.236,9,20.913,22.151,26.827,29.106,26.827Zm0-9.461c11.524,0,17.74,2.518,17.74,3.548s-6.216,3.548-17.74,3.548-17.74-2.518-17.74-3.548S17.582,17.365,29.106,17.365Z" transform="translate(-9 1.558)" fill="#12263f"/>
          <path id="Trazado_106528" data-name="Trazado 106528" d="M29.173,29.322c.784-.031,1.586-.076,2.4-.135l-.17-2.358c-.788.057-1.566.1-2.325.13Z" transform="translate(-5.332 3.718)" fill="#12263f"/>
          <path id="Trazado_106529" data-name="Trazado 106529" d="M33.256,29.048c.8-.088,1.6-.19,2.4-.312L35.293,26.4c-.76.117-1.528.215-2.294.3Z" transform="translate(-4.616 3.64)" fill="#12263f"/>
          <path id="Trazado_106530" data-name="Trazado 106530" d="M37.339,28.453c.828-.173,1.627-.37,2.38-.587l-.653-2.273c-.7.2-1.441.382-2.213.545Z" transform="translate(-3.912 3.493)" fill="#12263f"/>
          <path id="Trazado_106531" data-name="Trazado 106531" d="M33,42.755l.257,2.351c.8-.088,1.6-.19,2.4-.312l-.358-2.338c-.76.118-1.528.216-2.294.3Z" transform="translate(-4.616 6.573)" fill="#12263f"/>
          <path id="Trazado_106532" data-name="Trazado 106532" d="M36.853,42.2l.486,2.315c.837-.175,1.638-.373,2.38-.585l-.653-2.273C38.38,41.847,37.636,42.032,36.853,42.2Z" transform="translate(-3.912 6.426)" fill="#12263f"/>
          <path id="Trazado_106533" data-name="Trazado 106533" d="M49.211,28H46.846c0,1.03-6.216,3.548-17.74,3.548S11.365,29.03,11.365,28H9c0,4.678,13.151,5.913,20.106,5.913S49.211,32.678,49.211,28Z" transform="translate(-9 3.932)" fill="#12263f"/>
          <path id="Trazado_106534" data-name="Trazado 106534" d="M27.993,39.811l.066,2.365C36.576,41.937,45.741,39.9,45.741,36H43.376C43.376,37.01,38.143,39.526,27.993,39.811Z" transform="translate(-5.53 5.394)" fill="#12263f"/>
          <path id="Trazado_106535" data-name="Trazado 106535" d="M66.836,27.019V1H47.913V27.019h8.279V33.1a4.725,4.725,0,0,0-3.38,3.38H42v2.365H52.812a4.725,4.725,0,0,0,3.38,3.38v6.081H47.913V74.326H66.836V48.307H58.558V42.226a4.708,4.708,0,0,0,0-9.126V27.019ZM64.471,71.961H50.279V50.673H64.471Zm-4.731-34.3A2.365,2.365,0,1,1,57.375,35.3,2.368,2.368,0,0,1,59.74,37.663Zm-9.461-34.3H64.471V24.654H50.279Z" transform="translate(-2.972 -1)" fill="#12263f"/>
          <path id="Trazado_106536" data-name="Trazado 106536" d="M51,45h9.461v2.365H51Z" transform="translate(-1.327 7.038)" fill="#12263f"/>
          <path id="Trazado_106537" data-name="Trazado 106537" d="M60.461,53H51v7.1h9.461ZM58.1,57.731H53.365V55.365H58.1Z" transform="translate(-1.327 8.499)" fill="#12263f"/>
          <path id="Trazado_106538" data-name="Trazado 106538" d="M51,5h9.461V7.365H51Z" transform="translate(-1.327 -0.269)" fill="#12263f"/>
          <path id="Trazado_106539" data-name="Trazado 106539" d="M51,9h9.461v2.365H51Z" transform="translate(-1.327 0.461)" fill="#12263f"/>
          <path id="Trazado_106540" data-name="Trazado 106540" d="M51,13h9.461v2.365H51Z" transform="translate(-1.327 1.192)" fill="#12263f"/>
          <path id="Trazado_106541" data-name="Trazado 106541" d="M51,17h9.461v2.365H51Z" transform="translate(-1.327 1.923)" fill="#12263f"/>
          <path id="Trazado_106542" data-name="Trazado 106542" d="M51,49h9.461v2.365H51Z" transform="translate(-1.327 7.769)" fill="#12263f"/>
          <path id="Trazado_106543" data-name="Trazado 106543" d="M27,19h2.365v2.365H27Z" transform="translate(-5.712 2.288)" fill="#12263f"/>
          <path id="Trazado_106544" data-name="Trazado 106544" d="M31,19h2.365v2.365H31Z" transform="translate(-4.981 2.288)" fill="#12263f"/>
          <path id="Trazado_106545" data-name="Trazado 106545" d="M35,19h2.365v2.365H35Z" transform="translate(-4.25 2.288)" fill="#12263f"/>
          <path id="Trazado_106546" data-name="Trazado 106546" d="M15,19h2.365v2.365H15Z" transform="translate(-7.904 2.288)" fill="#12263f"/>
          <path id="Trazado_106547" data-name="Trazado 106547" d="M19,19h2.365v2.365H19Z" transform="translate(-7.173 2.288)" fill="#12263f"/>
          <path id="Trazado_106548" data-name="Trazado 106548" d="M23,19h2.365v2.365H23Z" transform="translate(-6.442 2.288)" fill="#12263f"/>
        </g>
      </g>
    </g>
    <path id="Trazado_106779" data-name="Trazado 106779" d="M-49.137-2.648h-4.406L-54.465,0H-56.52l4.3-11.375h1.773L-46.145,0h-2.062Zm-3.852-1.594h3.3L-51.34-8.961Zm10.07,2.727h4.5V0h-6.859V-1.242l4.289-5.68H-45.2V-8.453h6.617v1.2Zm11.141.688a2.944,2.944,0,0,1-2.375.984,2.624,2.624,0,0,1-2.082-.8,3.423,3.423,0,0,1-.707-2.328V-8.453h1.9V-3q0,1.609,1.336,1.609a1.876,1.876,0,0,0,1.867-.992v-6.07h1.9V0H-31.73Zm8.2-5.891a4.7,4.7,0,0,0-.773-.062,1.741,1.741,0,0,0-1.758,1V0h-1.9V-8.453H-26.2l.047.945a2.139,2.139,0,0,1,1.906-1.1,1.777,1.777,0,0,1,.672.109ZM-18.809.156A3.928,3.928,0,0,1-21.734-.98a4.124,4.124,0,0,1-1.121-3.027v-.234A5.072,5.072,0,0,1-22.367-6.5,3.716,3.716,0,0,1-21-8.055a3.625,3.625,0,0,1,1.969-.555,3.318,3.318,0,0,1,2.668,1.1,4.658,4.658,0,0,1,.941,3.117v.766h-5.523a2.539,2.539,0,0,0,.7,1.656,2.1,2.1,0,0,0,1.543.609,2.571,2.571,0,0,0,2.125-1.055l1.023.977A3.418,3.418,0,0,1-16.906-.262,4.244,4.244,0,0,1-18.809.156Zm-.227-7.242a1.6,1.6,0,0,0-1.262.547,2.835,2.835,0,0,0-.613,1.523h3.617v-.141A2.307,2.307,0,0,0-17.8-6.6,1.586,1.586,0,0,0-19.035-7.086ZM-9.777,0V-11.375h3.359a5.269,5.269,0,0,1,2.676.672A4.581,4.581,0,0,1-1.934-8.8a6.051,6.051,0,0,1,.641,2.828v.57a6.026,6.026,0,0,1-.645,2.844A4.526,4.526,0,0,1-3.773-.664,5.513,5.513,0,0,1-6.5,0ZM-7.8-9.781v8.2h1.289a2.968,2.968,0,0,0,2.387-.973,4.237,4.237,0,0,0,.848-2.793v-.633a4.347,4.347,0,0,0-.8-2.828,2.853,2.853,0,0,0-2.336-.977ZM5.543,0a2.93,2.93,0,0,1-.219-.789A2.955,2.955,0,0,1,3.105.156,2.982,2.982,0,0,1,1.027-.57a2.325,2.325,0,0,1-.8-1.8,2.4,2.4,0,0,1,1-2.074A4.865,4.865,0,0,1,4.1-5.164H5.262v-.555A1.481,1.481,0,0,0,4.895-6.77a1.456,1.456,0,0,0-1.117-.395,1.672,1.672,0,0,0-1.062.324,1,1,0,0,0-.414.824H.4a2.107,2.107,0,0,1,.461-1.3,3.071,3.071,0,0,1,1.254-.949,4.4,4.4,0,0,1,1.77-.344,3.547,3.547,0,0,1,2.367.746,2.661,2.661,0,0,1,.906,2.1v3.813a4.321,4.321,0,0,0,.32,1.82V0ZM3.457-1.367a2.159,2.159,0,0,0,1.059-.273,1.827,1.827,0,0,0,.746-.734V-3.969H4.238A2.8,2.8,0,0,0,2.652-3.6a1.189,1.189,0,0,0-.531,1.039,1.109,1.109,0,0,0,.363.871A1.407,1.407,0,0,0,3.457-1.367Zm8.07-9.141v2.055H13.02v1.406H11.527v4.719a1.039,1.039,0,0,0,.191.7.888.888,0,0,0,.684.215,2.924,2.924,0,0,0,.664-.078V-.023a4.676,4.676,0,0,1-1.25.18q-2.187,0-2.187-2.414V-7.047H8.238V-8.453H9.629v-2.055ZM19.52,0A2.93,2.93,0,0,1,19.3-.789a2.955,2.955,0,0,1-2.219.945A2.982,2.982,0,0,1,15-.57a2.325,2.325,0,0,1-.8-1.8,2.4,2.4,0,0,1,1-2.074,4.865,4.865,0,0,1,2.871-.723h1.164v-.555a1.481,1.481,0,0,0-.367-1.051,1.456,1.456,0,0,0-1.117-.395,1.672,1.672,0,0,0-1.062.324,1,1,0,0,0-.414.824h-1.9a2.107,2.107,0,0,1,.461-1.3,3.071,3.071,0,0,1,1.254-.949,4.4,4.4,0,0,1,1.77-.344,3.547,3.547,0,0,1,2.367.746,2.661,2.661,0,0,1,.906,2.1v3.813a4.321,4.321,0,0,0,.32,1.82V0ZM17.434-1.367a2.159,2.159,0,0,0,1.059-.273,1.827,1.827,0,0,0,.746-.734V-3.969H18.215a2.8,2.8,0,0,0-1.586.367A1.189,1.189,0,0,0,16.1-2.562a1.109,1.109,0,0,0,.363.871A1.407,1.407,0,0,0,17.434-1.367ZM30.543-4.141a5.078,5.078,0,0,1-.879,3.133A2.863,2.863,0,0,1,27.246.156a2.758,2.758,0,0,1-2.312-1.07L24.84,0H23.121V-12h1.9v4.359a2.748,2.748,0,0,1,2.211-.969,2.9,2.9,0,0,1,2.43,1.148,5.162,5.162,0,0,1,.883,3.211Zm-1.9-.164a3.589,3.589,0,0,0-.484-2.062,1.613,1.613,0,0,0-1.406-.687A1.763,1.763,0,0,0,25.02-5.977v3.484a1.781,1.781,0,0,0,1.75,1.1,1.6,1.6,0,0,0,1.375-.664,3.477,3.477,0,0,0,.5-2.008ZM37.184,0a2.93,2.93,0,0,1-.219-.789,2.955,2.955,0,0,1-2.219.945A2.982,2.982,0,0,1,32.668-.57a2.325,2.325,0,0,1-.8-1.8,2.4,2.4,0,0,1,1-2.074,4.865,4.865,0,0,1,2.871-.723H36.9v-.555a1.481,1.481,0,0,0-.367-1.051,1.456,1.456,0,0,0-1.117-.395,1.672,1.672,0,0,0-1.062.324,1,1,0,0,0-.414.824h-1.9a2.107,2.107,0,0,1,.461-1.3,3.071,3.071,0,0,1,1.254-.949,4.4,4.4,0,0,1,1.77-.344,3.547,3.547,0,0,1,2.367.746,2.661,2.661,0,0,1,.906,2.1v3.813a4.321,4.321,0,0,0,.32,1.82V0ZM35.1-1.367a2.16,2.16,0,0,0,1.059-.273,1.827,1.827,0,0,0,.746-.734V-3.969H35.879a2.8,2.8,0,0,0-1.586.367,1.189,1.189,0,0,0-.531,1.039,1.109,1.109,0,0,0,.363.871A1.407,1.407,0,0,0,35.1-1.367Zm10.43-.93a.861.861,0,0,0-.418-.773,4.445,4.445,0,0,0-1.387-.469,7.129,7.129,0,0,1-1.617-.516,2.158,2.158,0,0,1-1.422-1.992,2.25,2.25,0,0,1,.922-1.828,3.644,3.644,0,0,1,2.344-.734,3.792,3.792,0,0,1,2.449.75,2.38,2.38,0,0,1,.934,1.945h-1.9a1.17,1.17,0,0,0-.406-.91,1.557,1.557,0,0,0-1.078-.363,1.682,1.682,0,0,0-1.02.289.911.911,0,0,0-.395.773.769.769,0,0,0,.367.68,5.049,5.049,0,0,0,1.484.488,7.027,7.027,0,0,1,1.754.586,2.484,2.484,0,0,1,.945.816A2.082,2.082,0,0,1,47.395-2.4a2.2,2.2,0,0,1-.945,1.848,4.031,4.031,0,0,1-2.477.707,4.371,4.371,0,0,1-1.852-.375A3.047,3.047,0,0,1,40.855-1.25,2.441,2.441,0,0,1,40.4-2.664h1.844a1.338,1.338,0,0,0,.508,1.035A1.973,1.973,0,0,0,44-1.266a1.92,1.92,0,0,0,1.141-.285A.883.883,0,0,0,45.527-2.3ZM52.77.156A3.928,3.928,0,0,1,49.844-.98a4.124,4.124,0,0,1-1.121-3.027v-.234A5.072,5.072,0,0,1,49.211-6.5a3.716,3.716,0,0,1,1.371-1.551,3.625,3.625,0,0,1,1.969-.555,3.318,3.318,0,0,1,2.668,1.1,4.658,4.658,0,0,1,.941,3.117v.766H50.637a2.539,2.539,0,0,0,.7,1.656,2.1,2.1,0,0,0,1.543.609A2.571,2.571,0,0,0,55-2.414l1.023.977A3.418,3.418,0,0,1,54.672-.262,4.244,4.244,0,0,1,52.77.156Zm-.227-7.242a1.6,1.6,0,0,0-1.262.547,2.835,2.835,0,0,0-.613,1.523h3.617v-.141A2.307,2.307,0,0,0,53.777-6.6,1.586,1.586,0,0,0,52.543-7.086ZM-48.613,15.18h-4.578V20h-1.977V8.625h7.227v1.594h-5.25V13.6h4.578Zm1.531.516a4.984,4.984,0,0,1,.492-2.238,3.6,3.6,0,0,1,1.383-1.531,3.9,3.9,0,0,1,2.047-.535,3.692,3.692,0,0,1,2.777,1.1,4.333,4.333,0,0,1,1.152,2.922l.008.445a5.029,5.029,0,0,1-.48,2.234,3.551,3.551,0,0,1-1.375,1.523,3.925,3.925,0,0,1-2.066.539,3.667,3.667,0,0,1-2.863-1.191,4.563,4.563,0,0,1-1.074-3.176Zm1.9.164a3.406,3.406,0,0,0,.539,2.043,1.752,1.752,0,0,0,1.5.738,1.733,1.733,0,0,0,1.5-.75,3.762,3.762,0,0,0,.535-2.2,3.362,3.362,0,0,0-.551-2.031,1.759,1.759,0,0,0-1.5-.75,1.743,1.743,0,0,0-1.477.738A3.691,3.691,0,0,0-45.184,15.859Zm11.992-2.578a4.7,4.7,0,0,0-.773-.062,1.741,1.741,0,0,0-1.758,1V20h-1.9V11.547h1.813l.047.945a2.139,2.139,0,0,1,1.906-1.1,1.777,1.777,0,0,1,.672.109Zm7.344,2.492V20h-1.977V8.625h4.352a4.4,4.4,0,0,1,3.027.992,3.334,3.334,0,0,1,1.121,2.625,3.224,3.224,0,0,1-1.1,2.6,4.617,4.617,0,0,1-3.074.93Zm0-1.586h2.375a2.339,2.339,0,0,0,1.609-.5,1.823,1.823,0,0,0,.555-1.434,1.967,1.967,0,0,0-.562-1.473,2.168,2.168,0,0,0-1.547-.566h-2.43Zm7.609,1.508a4.984,4.984,0,0,1,.492-2.238,3.6,3.6,0,0,1,1.383-1.531,3.9,3.9,0,0,1,2.047-.535,3.692,3.692,0,0,1,2.777,1.1,4.333,4.333,0,0,1,1.152,2.922l.008.445a5.029,5.029,0,0,1-.48,2.234,3.551,3.551,0,0,1-1.375,1.523,3.925,3.925,0,0,1-2.066.539,3.667,3.667,0,0,1-2.863-1.191,4.563,4.563,0,0,1-1.074-3.176Zm1.9.164A3.406,3.406,0,0,0-15.8,17.9a1.752,1.752,0,0,0,1.5.738,1.733,1.733,0,0,0,1.5-.75,3.762,3.762,0,0,0,.535-2.2,3.362,3.362,0,0,0-.551-2.031,1.759,1.759,0,0,0-1.5-.75,1.743,1.743,0,0,0-1.477.738A3.691,3.691,0,0,0-16.34,15.859Zm12.3,1.844a.861.861,0,0,0-.418-.773,4.445,4.445,0,0,0-1.387-.469,7.129,7.129,0,0,1-1.617-.516,2.158,2.158,0,0,1-1.422-1.992,2.25,2.25,0,0,1,.922-1.828,3.644,3.644,0,0,1,2.344-.734,3.792,3.792,0,0,1,2.449.75,2.38,2.38,0,0,1,.934,1.945h-1.9a1.17,1.17,0,0,0-.406-.91,1.557,1.557,0,0,0-1.078-.363,1.682,1.682,0,0,0-1.02.289.911.911,0,0,0-.395.773.769.769,0,0,0,.367.68,5.049,5.049,0,0,0,1.484.488,7.027,7.027,0,0,1,1.754.586,2.484,2.484,0,0,1,.945.816A2.082,2.082,0,0,1-2.168,17.6a2.2,2.2,0,0,1-.945,1.848,4.031,4.031,0,0,1-2.477.707,4.371,4.371,0,0,1-1.852-.375A3.047,3.047,0,0,1-8.707,18.75a2.441,2.441,0,0,1-.453-1.414h1.844a1.338,1.338,0,0,0,.508,1.035,1.973,1.973,0,0,0,1.242.363,1.92,1.92,0,0,0,1.141-.285A.883.883,0,0,0-4.035,17.7Zm5.9-8.211v2.055H3.355v1.406H1.863v4.719a1.039,1.039,0,0,0,.191.7.888.888,0,0,0,.684.215,2.924,2.924,0,0,0,.664-.078v1.469a4.676,4.676,0,0,1-1.25.18q-2.188,0-2.187-2.414V12.953H-1.426V11.547H-.035V9.492Zm2.609,6.219A4.944,4.944,0,0,1,5.4,12.566a2.971,2.971,0,0,1,2.457-1.176A2.784,2.784,0,0,1,10.129,12.4l.086-.852h1.711v8.2a3.406,3.406,0,0,1-1.035,2.625,3.943,3.943,0,0,1-2.793.961,4.5,4.5,0,0,1-1.816-.387A3.227,3.227,0,0,1,4.934,21.93l.9-1.141a2.713,2.713,0,0,0,2.156,1.039,2.1,2.1,0,0,0,1.492-.512,1.961,1.961,0,0,0,.547-1.5v-.57a2.8,2.8,0,0,1-2.187.914,2.964,2.964,0,0,1-2.426-1.18A5.1,5.1,0,0,1,4.473,15.711Zm1.891.164a3.4,3.4,0,0,0,.52,2,1.671,1.671,0,0,0,1.441.73,1.827,1.827,0,0,0,1.7-.984V13.906a1.8,1.8,0,0,0-1.687-.961,1.677,1.677,0,0,0-1.457.742A3.811,3.811,0,0,0,6.363,15.875ZM18.3,13.281a4.7,4.7,0,0,0-.773-.062,1.741,1.741,0,0,0-1.758,1V20h-1.9V11.547h1.813l.047.945a2.139,2.139,0,0,1,1.906-1.1,1.777,1.777,0,0,1,.672.109Zm4.773,6.875a3.928,3.928,0,0,1-2.926-1.137,4.124,4.124,0,0,1-1.121-3.027v-.234a5.072,5.072,0,0,1,.488-2.262,3.716,3.716,0,0,1,1.371-1.551,3.625,3.625,0,0,1,1.969-.555,3.318,3.318,0,0,1,2.668,1.1,4.658,4.658,0,0,1,.941,3.117v.766H20.941a2.539,2.539,0,0,0,.7,1.656,2.1,2.1,0,0,0,1.543.609,2.571,2.571,0,0,0,2.125-1.055l1.023.977a3.418,3.418,0,0,1-1.355,1.176A4.244,4.244,0,0,1,23.074,20.156Zm-.227-7.242a1.6,1.6,0,0,0-1.262.547,2.835,2.835,0,0,0-.613,1.523H24.59v-.141a2.307,2.307,0,0,0-.508-1.441A1.586,1.586,0,0,0,22.848,12.914ZM34.066,17.07a1.374,1.374,0,0,0-.527-1.156,6.345,6.345,0,0,0-1.9-.82,9.186,9.186,0,0,1-2.187-.922,2.919,2.919,0,0,1-1.555-2.547,2.772,2.772,0,0,1,1.121-2.266,4.538,4.538,0,0,1,2.91-.891,4.916,4.916,0,0,1,2.117.438A3.475,3.475,0,0,1,35.5,10.152a3.2,3.2,0,0,1,.531,1.793H34.066a1.782,1.782,0,0,0-.559-1.395,2.305,2.305,0,0,0-1.6-.5,2.408,2.408,0,0,0-1.5.414,1.379,1.379,0,0,0-.535,1.156,1.247,1.247,0,0,0,.578,1.043,6.66,6.66,0,0,0,1.906.813,8.768,8.768,0,0,1,2.133.9,3.392,3.392,0,0,1,1.18,1.156,3.011,3.011,0,0,1,.375,1.527,2.707,2.707,0,0,1-1.09,2.262,4.727,4.727,0,0,1-2.957.84,5.557,5.557,0,0,1-2.27-.457,3.812,3.812,0,0,1-1.609-1.262,3.144,3.144,0,0,1-.574-1.875H29.52a1.84,1.84,0,0,0,.641,1.5A2.805,2.805,0,0,0,32,18.594a2.437,2.437,0,0,0,1.551-.418A1.349,1.349,0,0,0,34.066,17.07Zm12.75-2.461a7.021,7.021,0,0,1-.512,2.8,4.562,4.562,0,0,1-1.434,1.879l1.953,1.523-1.281,1.156-2.422-1.914a4.906,4.906,0,0,1-1.023.1,4.542,4.542,0,0,1-2.457-.676,4.438,4.438,0,0,1-1.672-1.926,6.761,6.761,0,0,1-.6-2.883v-.641a6.919,6.919,0,0,1,.59-2.937,4.433,4.433,0,0,1,1.664-1.949,4.516,4.516,0,0,1,2.457-.676,4.6,4.6,0,0,1,2.48.668,4.377,4.377,0,0,1,1.66,1.922,6.9,6.9,0,0,1,.594,2.918Zm-1.984-.594a4.939,4.939,0,0,0-.719-2.914,2.361,2.361,0,0,0-2.031-.992,2.324,2.324,0,0,0-2,1,4.861,4.861,0,0,0-.738,2.832v.664a4.989,4.989,0,0,0,.723,2.883,2.526,2.526,0,0,0,4.055.039,5.041,5.041,0,0,0,.707-2.922ZM50.8,18.422h5.164V20H48.824V8.625H50.8Z" transform="translate(1139 814)" fill="#12263f"/>
    <g id="flecha-correcta_1_2" data-name="flecha-correcta (1)" transform="translate(715.905 848.82) rotate(-150)">
      <g id="Grupo_92579-2" data-name="Grupo 92579" transform="translate(0.74 92.391)">
        <path id="Trazado_106501-2" data-name="Trazado 106501" d="M38.174,130.1a4.274,4.274,0,0,1-4.274-4.274v-1.178H11.955A4.455,4.455,0,0,1,7.5,120.193V109.058a4.455,4.455,0,0,1,4.455-4.455H33.9v-1.179a4.271,4.271,0,0,1,6.931-3.344l14.09,11.2a4.272,4.272,0,0,1,0,6.688l-14.09,11.2a4.286,4.286,0,0,1-2.656.929Z" transform="translate(-7.5 -99.151)" fill="#f5f5f5"/>
      </g>
      <g id="Grupo_92580-2" data-name="Grupo 92580" transform="translate(4.522 96.173)">
        <path id="Trazado_106502-2" data-name="Trazado 106502" d="M87.123,148.8l-14.09-11.2a.49.49,0,0,0-.794.383v4.472a.49.49,0,0,1-.49.49H47.2a1.36,1.36,0,0,0-1.36,1.36v9.76a1.36,1.36,0,0,0,1.36,1.36h24.55a.49.49,0,0,1,.49.49v4.472a.49.49,0,0,0,.794.383l14.09-11.2A.49.49,0,0,0,87.123,148.8Z" transform="translate(-45.839 -137.488)" fill="#fff"/>
      </g>
      <g id="Grupo_92581-2" data-name="Grupo 92581" transform="translate(29.928 92.391)">
        <path id="Trazado_106503-2" data-name="Trazado 106503" d="M321.584,111.281l-14.09-11.2a4.265,4.265,0,0,0-4.14-.663,4.282,4.282,0,0,1,1.181.663l14.09,11.2a4.272,4.272,0,0,1,0,6.688l-14.09,11.2a4.282,4.282,0,0,1-1.182.663,4.266,4.266,0,0,0,1.485.266h0a4.285,4.285,0,0,0,2.656-.929l14.09-11.2a4.272,4.272,0,0,0,0-6.688Z" transform="translate(-303.352 -99.151)" fill="#ebe5ed"/>
      </g>
      <g id="Grupo_92582-2" data-name="Grupo 92582" transform="translate(30.922 96.173)">
        <path id="Trazado_106504-2" data-name="Trazado 106504" d="M328.305,148.8l-14.09-11.2a.49.49,0,0,0-.794.383v1.338l11.925,9.48a.49.49,0,0,1,0,.767l-11.925,9.48v1.338a.49.49,0,0,0,.794.383l14.09-11.2A.49.49,0,0,0,328.305,148.8Z" transform="translate(-313.421 -137.488)" fill="#fcce63"/>
      </g>
      <g id="Grupo_92583-2" data-name="Grupo 92583" transform="translate(0 91.651)">
        <path id="Trazado_106505-2" data-name="Trazado 106505" d="M31.414,124.08a5.02,5.02,0,0,1-5.014-5.014v-.438H20.526a.74.74,0,0,1,0-1.48h6.613a.74.74,0,0,1,.74.74v1.178a3.531,3.531,0,0,0,5.73,2.766l14.09-11.2a3.532,3.532,0,0,0,0-5.53L33.61,93.9a3.531,3.531,0,0,0-5.73,2.765v1.179a.74.74,0,0,1-.74.74H5.195A3.719,3.719,0,0,0,1.48,102.3v11.135a3.719,3.719,0,0,0,3.715,3.715H17.566a.74.74,0,1,1,0,1.48H5.195A5.2,5.2,0,0,1,0,113.433V102.3A5.2,5.2,0,0,1,5.195,97.1H26.4v-.439a5.011,5.011,0,0,1,8.131-3.923l14.09,11.2a5.012,5.012,0,0,1,0,7.846l-14.09,11.2a5.028,5.028,0,0,1-3.117,1.09Z" transform="translate(0 -91.651)" fill="#21214b"/>
      </g>
      <g id="Grupo_92584-2" data-name="Grupo 92584" transform="translate(3.782 95.433)">
        <path id="Trazado_106506-2" data-name="Trazado 106506" d="M65.969,154.848a1.234,1.234,0,0,1-.536-.124,1.221,1.221,0,0,1-.7-1.108v-4.222h-24.3a2.1,2.1,0,0,1-2.1-2.1v-9.76a2.1,2.1,0,0,1,2.1-2.1h5.1a.74.74,0,1,1,0,1.48h-5.1a.621.621,0,0,0-.62.62v9.76a.621.621,0,0,0,.62.62h24.55a1.231,1.231,0,0,1,1.23,1.23V153.1l13.438-10.683L66.217,131.732v3.953a1.231,1.231,0,0,1-1.23,1.23H48.5a.74.74,0,1,1,0-1.48H64.738v-4.222a1.23,1.23,0,0,1,1.995-.963l14.09,11.2a1.23,1.23,0,0,1,0,1.925l-14.09,11.2A1.224,1.224,0,0,1,65.969,154.848Z" transform="translate(-38.338 -129.982)" fill="#21214b"/>
      </g>
    </g>
  </g>
</svg>
