<svg xmlns="http://www.w3.org/2000/svg" width="445.151" height="253.06" viewBox="0 0 445.151 253.06">
  <g id="Grupo_99693" data-name="Grupo 99693" transform="translate(-49.333 -70.835)">
    <g id="Grupo_99640" data-name="Grupo 99640" transform="translate(109.701 80.517)">
      <g id="Grupo_99633" data-name="Grupo 99633" transform="translate(33.551 22.137)">
        <path id="Trazado_106635" data-name="Trazado 106635" d="M243.475,149.142v-7a1.239,1.239,0,0,0-1.239-1.239h-1.8a1.137,1.137,0,0,1-1.112-.873,24.761,24.761,0,0,0-3.118-7.567,1.155,1.155,0,0,1,.151-1.433l1.267-1.267a1.24,1.24,0,0,0,0-1.754l-4.949-4.949a1.239,1.239,0,0,0-1.753,0l-1.265,1.265a1.154,1.154,0,0,1-1.433.15,24.783,24.783,0,0,0-7.569-3.122,1.136,1.136,0,0,1-.872-1.112v-1.8a1.24,1.24,0,0,0-1.24-1.24h-7a1.24,1.24,0,0,0-1.24,1.24v1.8a1.137,1.137,0,0,1-.873,1.112,24.768,24.768,0,0,0-7.57,3.121,1.154,1.154,0,0,1-1.433-.151l-1.264-1.264a1.239,1.239,0,0,0-1.753,0l-4.949,4.949a1.24,1.24,0,0,0,0,1.754l1.265,1.265a1.153,1.153,0,0,1,.15,1.432,24.809,24.809,0,0,0-3.119,7.569,1.136,1.136,0,0,1-1.112.873h-1.8a1.24,1.24,0,0,0-1.24,1.239v7a1.24,1.24,0,0,0,1.24,1.239h1.8a1.137,1.137,0,0,1,1.112.872,24.794,24.794,0,0,0,3.119,7.567,1.154,1.154,0,0,1-.15,1.433l-1.267,1.267a1.239,1.239,0,0,0,0,1.753l4.949,4.95a1.239,1.239,0,0,0,1.753,0l1.268-1.269a1.155,1.155,0,0,1,1.433-.15,24.784,24.784,0,0,0,7.566,3.115,1.137,1.137,0,0,1,.873,1.112v1.8a1.24,1.24,0,0,0,1.24,1.24h7a1.24,1.24,0,0,0,1.24-1.24v-1.806a1.137,1.137,0,0,1,.873-1.112,24.777,24.777,0,0,0,7.565-3.115,1.154,1.154,0,0,1,1.432.15l1.27,1.27a1.24,1.24,0,0,0,1.753,0l4.949-4.95a1.239,1.239,0,0,0,0-1.753l-1.268-1.268a1.155,1.155,0,0,1-.151-1.433,24.758,24.758,0,0,0,3.119-7.566,1.137,1.137,0,0,1,1.112-.873h1.8A1.239,1.239,0,0,0,243.475,149.142Zm-28.437,16.235a19.733,19.733,0,1,1,19.724-19.741A19.73,19.73,0,0,1,215.038,165.378Z" transform="translate(-186.604 -117.207)" fill="none" stroke="#dee3fc" stroke-miterlimit="10" stroke-width="0.79"/>
        <path id="Trazado_106636" data-name="Trazado 106636" d="M299.028,188.562v-4.77a.845.845,0,0,0-.845-.845h-1.228a.775.775,0,0,1-.758-.595,16.885,16.885,0,0,0-2.125-5.157.786.786,0,0,1,.1-.977l.863-.863a.845.845,0,0,0,0-1.2l-3.373-3.373a.845.845,0,0,0-1.194,0l-.862.863a.788.788,0,0,1-.977.1,16.874,16.874,0,0,0-5.158-2.127.775.775,0,0,1-.595-.758v-1.224a.844.844,0,0,0-.845-.845h-4.77a.844.844,0,0,0-.845.845v1.224a.775.775,0,0,1-.595.758,16.891,16.891,0,0,0-5.159,2.127.788.788,0,0,1-.977-.1l-.861-.861a.845.845,0,0,0-1.2,0l-3.372,3.373a.845.845,0,0,0,0,1.2l.862.863a.787.787,0,0,1,.1.976,16.882,16.882,0,0,0-2.125,5.159.775.775,0,0,1-.758.594h-1.227a.845.845,0,0,0-.845.845v4.77a.845.845,0,0,0,.845.845h1.227a.774.774,0,0,1,.757.594,16.912,16.912,0,0,0,2.126,5.157.786.786,0,0,1-.1.977l-.863.863a.845.845,0,0,0,0,1.2l3.372,3.373a.845.845,0,0,0,1.2,0l.865-.865a.786.786,0,0,1,.976-.1,16.9,16.9,0,0,0,5.157,2.123.775.775,0,0,1,.595.758v1.231a.845.845,0,0,0,.845.845h4.77a.845.845,0,0,0,.845-.845V203.48a.774.774,0,0,1,.595-.757,16.906,16.906,0,0,0,5.156-2.124.787.787,0,0,1,.976.1l.865.865a.845.845,0,0,0,1.194,0l3.373-3.373a.845.845,0,0,0,0-1.2l-.865-.864a.788.788,0,0,1-.1-.977A16.888,16.888,0,0,0,296.2,190a.775.775,0,0,1,.758-.594h1.229A.845.845,0,0,0,299.028,188.562Zm-19.379,10.306a12.689,12.689,0,1,1,12.684-12.694A12.687,12.687,0,0,1,279.648,198.868Z" transform="translate(-209.964 -132.933)" fill="#dee3fc"/>
      </g>
      <g id="Grupo_99634" data-name="Grupo 99634" transform="translate(6.862)">
        <circle id="Elipse_1724" data-name="Elipse 1724" cx="2.312" cy="2.312" r="2.312" transform="translate(23.616 199.443)" fill="#a9ebf4"/>
        <circle id="Elipse_1725" data-name="Elipse 1725" cx="2.312" cy="2.312" r="2.312" transform="translate(333.402 136.26)" fill="#4dd0e1"/>
        <circle id="Elipse_1726" data-name="Elipse 1726" cx="2.312" cy="2.312" r="2.312" transform="translate(328.778 53.691)" fill="#4dd0e1"/>
        <circle id="Elipse_1727" data-name="Elipse 1727" cx="1.45" cy="1.45" r="1.45" transform="translate(246.5 26.488)" fill="#a4afff"/>
        <path id="Trazado_106637" data-name="Trazado 106637" d="M197.4,96.736a1.45,1.45,0,1,1-1.451-1.45A1.451,1.451,0,0,1,197.4,96.736Z" transform="translate(-162.418 -88.119)" fill="#a4afff"/>
        <path id="Trazado_106638" data-name="Trazado 106638" d="M244.409,227.533a1.451,1.451,0,1,1-1.451-1.451A1.451,1.451,0,0,1,244.409,227.533Z" transform="translate(-177.325 -129.594)" fill="#a4afff"/>
        <path id="Trazado_106639" data-name="Trazado 106639" d="M166.488,382.942a1.45,1.45,0,1,1-1.45-1.45A1.45,1.45,0,0,1,166.488,382.942Z" transform="translate(-152.616 -178.875)" fill="#a9ebf4"/>
        <circle id="Elipse_1728" data-name="Elipse 1728" cx="2.312" cy="2.312" r="2.312" transform="translate(299.482 200.809)" fill="#a4afff"/>
        <circle id="Elipse_1729" data-name="Elipse 1729" cx="2.312" cy="2.312" r="2.312" transform="translate(348.651 200.809)" fill="#a4afff"/>
        <circle id="Elipse_1730" data-name="Elipse 1730" cx="2.312" cy="2.312" r="2.312" transform="translate(72.535)" fill="#a4afff"/>
        <path id="Trazado_106640" data-name="Trazado 106640" d="M487.877,240.8a3.094,3.094,0,1,1-3.094-3.094A3.094,3.094,0,0,1,487.877,240.8Z" transform="translate(-253.486 -133.28)" fill="#4dd0e1"/>
        <path id="Trazado_106641" data-name="Trazado 106641" d="M153.71,184.774a3.094,3.094,0,1,1-3.094-3.094A3.094,3.094,0,0,1,153.71,184.774Z" transform="translate(-147.522 -115.515)" fill="#a4afff"/>
      </g>
      <g id="Grupo_99635" data-name="Grupo 99635" transform="translate(0 18.277)">
        <rect id="Rectángulo_33828" data-name="Rectángulo 33828" width="4.798" height="4.798" rx="0.664" fill="#fff"/>
        <rect id="Rectángulo_33829" data-name="Rectángulo 33829" width="4.798" height="4.798" rx="0.664" transform="translate(6.418)" fill="#fff"/>
        <rect id="Rectángulo_33830" data-name="Rectángulo 33830" width="4.798" height="4.798" rx="0.664" transform="translate(12.836)" fill="#fff"/>
      </g>
      <g id="Grupo_99639" data-name="Grupo 99639" transform="translate(30.125 184.142)">
        <g id="Grupo_99638" data-name="Grupo 99638">
          <rect id="Rectángulo_33834" data-name="Rectángulo 33834" width="4.798" height="4.798" rx="0.664" fill="#ffca28"/>
          <rect id="Rectángulo_33835" data-name="Rectángulo 33835" width="4.798" height="4.798" rx="0.664" transform="translate(6.418)" fill="#ffca28"/>
          <rect id="Rectángulo_33836" data-name="Rectángulo 33836" width="4.798" height="4.798" rx="0.664" transform="translate(12.836)" fill="#ffca28"/>
        </g>
      </g>
    </g>
    <g id="Grupo_99649" data-name="Grupo 99649" transform="translate(211.13 75.871)">
      <g id="Grupo_99641" data-name="Grupo 99641">
        <rect id="Rectángulo_33837" data-name="Rectángulo 33837" width="121.557" height="234.823" rx="19" fill="#ffca28"/>
        <rect id="Rectángulo_33838" data-name="Rectángulo 33838" width="117.005" height="229.429" rx="18.7" transform="translate(2.276 2.056)" fill="#fff"/>
        <path id="Trazado_106642" data-name="Trazado 106642" d="M403.594,95.1V298.75a8.648,8.648,0,0,1-8.648,8.648H305.481a8.648,8.648,0,0,1-8.648-8.648V95.1a8.649,8.649,0,0,1,8.648-8.649H320.4a2.187,2.187,0,0,1,1.956,1.208l1.584,3.163a4.273,4.273,0,0,0,3.832,2.373h44.882a4.273,4.273,0,0,0,3.832-2.373l1.584-3.163a2.187,2.187,0,0,1,1.956-1.208h14.919A8.649,8.649,0,0,1,403.594,95.1Z" transform="translate(-289.435 -80.672)" fill="#dbfbff"/>
        <path id="Trazado_106643" data-name="Trazado 106643" d="M385.089,89.493H348.941a1.522,1.522,0,0,1-1.522-1.522h0a1.522,1.522,0,0,1,1.522-1.522h36.149a1.522,1.522,0,0,1,1.522,1.522h0A1.522,1.522,0,0,1,385.089,89.493Z" transform="translate(-305.476 -80.672)" fill="#dee3fc"/>
      </g>
      <rect id="Rectángulo_33839" data-name="Rectángulo 33839" width="91.885" height="39.848" rx="8.379" transform="translate(13.795 179.81)" fill="none" stroke="#698bd1" stroke-linecap="round" stroke-linejoin="round" stroke-width="1" stroke-dasharray="2.837"/>
      <rect id="Rectángulo_33840" data-name="Rectángulo 33840" width="48.159" height="27.977" rx="6.044" transform="translate(51.849 93.898)" fill="none" stroke="#698bd1" stroke-linecap="round" stroke-linejoin="round" stroke-width="1" stroke-dasharray="2.837"/>
      <g id="Grupo_99645" data-name="Grupo 99645" transform="translate(13.795 124.978)">
        <rect id="Rectángulo_33841" data-name="Rectángulo 33841" width="92.249" height="44.595" rx="7.201" transform="translate(3.345 3.608)" fill="#a9ebf4"/>
        <path id="Trazado_106644" data-name="Trazado 106644" d="M398.085,265.91v34.78a4.905,4.905,0,0,1-4.91,4.9H311.11a4.905,4.905,0,0,1-4.91-4.9V265.91a4.911,4.911,0,0,1,4.91-4.91h82.064A4.911,4.911,0,0,1,398.085,265.91Z" transform="translate(-306.2 -261)" fill="#ffca28"/>
        <rect id="Rectángulo_33842" data-name="Rectángulo 33842" width="30.816" height="30.816" rx="4.861" transform="translate(4.245 10.154)" fill="#fff"/>
        <g id="Grupo_99642" data-name="Grupo 99642" transform="translate(38.054 11.956)">
          <path id="Trazado_106645" data-name="Trazado 106645" d="M384.264,280.6H362.972a1.048,1.048,0,0,1-1.048-1.048h0a1.048,1.048,0,0,1,1.048-1.048h21.292a1.049,1.049,0,0,1,1.049,1.048h0A1.049,1.049,0,0,1,384.264,280.6Z" transform="translate(-361.924 -278.508)" fill="#fff"/>
          <path id="Trazado_106646" data-name="Trazado 106646" d="M374.562,286.734h-11.59a1.048,1.048,0,0,1-1.048-1.048h0a1.049,1.049,0,0,1,1.048-1.049h11.59a1.049,1.049,0,0,1,1.048,1.049h0A1.049,1.049,0,0,1,374.562,286.734Z" transform="translate(-361.924 -280.452)" fill="#fff"/>
          <path id="Trazado_106647" data-name="Trazado 106647" d="M417.549,286.734h-31.36a1.048,1.048,0,0,1-1.048-1.048h0a1.049,1.049,0,0,1,1.048-1.049h31.36a1.049,1.049,0,0,1,1.048,1.049h0A1.049,1.049,0,0,1,417.549,286.734Z" transform="translate(-369.286 -280.452)" fill="#fff"/>
          <path id="Trazado_106648" data-name="Trazado 106648" d="M380.9,292.864H362.972a1.048,1.048,0,0,1-1.048-1.048h0a1.048,1.048,0,0,1,1.048-1.048H380.9a1.049,1.049,0,0,1,1.048,1.048h0A1.049,1.049,0,0,1,380.9,292.864Z" transform="translate(-361.924 -282.395)" fill="#fff"/>
          <path id="Trazado_106649" data-name="Trazado 106649" d="M406.284,292.864H395.011a1.049,1.049,0,0,1-1.048-1.048h0a1.048,1.048,0,0,1,1.048-1.048h11.273a1.049,1.049,0,0,1,1.048,1.048h0A1.049,1.049,0,0,1,406.284,292.864Z" transform="translate(-372.084 -282.395)" fill="#fff"/>
          <path id="Trazado_106650" data-name="Trazado 106650" d="M427.291,292.864H416.909a1.049,1.049,0,0,1-1.048-1.048h0a1.049,1.049,0,0,1,1.048-1.048h10.382a1.048,1.048,0,0,1,1.048,1.048h0A1.049,1.049,0,0,1,427.291,292.864Z" transform="translate(-379.027 -282.395)" fill="#fff"/>
          <path id="Trazado_106651" data-name="Trazado 106651" d="M410.187,298.993H362.972a1.048,1.048,0,0,1-1.048-1.048h0a1.048,1.048,0,0,1,1.048-1.048h47.215a1.048,1.048,0,0,1,1.048,1.048h0A1.048,1.048,0,0,1,410.187,298.993Z" transform="translate(-361.924 -284.339)" fill="#fff"/>
          <path id="Trazado_106652" data-name="Trazado 106652" d="M388.958,305.122H362.972a1.048,1.048,0,0,1-1.048-1.048h0a1.048,1.048,0,0,1,1.048-1.048h25.986a1.049,1.049,0,0,1,1.048,1.048h0A1.049,1.049,0,0,1,388.958,305.122Z" transform="translate(-361.924 -286.282)" fill="#fff"/>
          <path id="Trazado_106653" data-name="Trazado 106653" d="M424.2,305.122h-17.04a1.049,1.049,0,0,1-1.048-1.048h0a1.049,1.049,0,0,1,1.048-1.048H424.2a1.049,1.049,0,0,1,1.048,1.048h0A1.049,1.049,0,0,1,424.2,305.122Z" transform="translate(-375.935 -286.282)" fill="#fff"/>
          <path id="Trazado_106654" data-name="Trazado 106654" d="M378.24,311.25H362.972a1.048,1.048,0,0,1-1.048-1.048h0a1.048,1.048,0,0,1,1.048-1.048H378.24a1.048,1.048,0,0,1,1.048,1.048h0A1.048,1.048,0,0,1,378.24,311.25Z" transform="translate(-361.924 -288.226)" fill="#fff"/>
          <path id="Trazado_106655" data-name="Trazado 106655" d="M406.648,311.25H391.38a1.048,1.048,0,0,1-1.048-1.048h0a1.048,1.048,0,0,1,1.048-1.048h15.268A1.049,1.049,0,0,1,407.7,310.2h0A1.048,1.048,0,0,1,406.648,311.25Z" transform="translate(-370.932 -288.226)" fill="#fff"/>
          <path id="Trazado_106656" data-name="Trazado 106656" d="M428,311.25h-8.859a1.048,1.048,0,0,1-1.048-1.048h0a1.048,1.048,0,0,1,1.048-1.048H428a1.049,1.049,0,0,1,1.048,1.048h0A1.048,1.048,0,0,1,428,311.25Z" transform="translate(-379.734 -288.226)" fill="#fff"/>
          <path id="Trazado_106657" data-name="Trazado 106657" d="M384.264,317.38H362.972a1.049,1.049,0,0,1-1.048-1.049h0a1.048,1.048,0,0,1,1.048-1.048h21.292a1.049,1.049,0,0,1,1.049,1.048h0A1.049,1.049,0,0,1,384.264,317.38Z" transform="translate(-361.924 -290.169)" fill="#fff"/>
          <path id="Trazado_106658" data-name="Trazado 106658" d="M422.224,280.6H400.931a1.048,1.048,0,0,1-1.048-1.048h0a1.048,1.048,0,0,1,1.048-1.048h21.293a1.049,1.049,0,0,1,1.048,1.048h0A1.049,1.049,0,0,1,422.224,280.6Z" transform="translate(-373.961 -278.508)" fill="#fff"/>
        </g>
        <g id="Grupo_99644" data-name="Grupo 99644">
          <path id="Trazado_106659" data-name="Trazado 106659" d="M398.085,265.91v1.461H306.2V265.91a4.911,4.911,0,0,1,4.91-4.91h82.064A4.911,4.911,0,0,1,398.085,265.91Z" transform="translate(-306.2 -261)" fill="#4dd0e1"/>
          <g id="Grupo_99643" data-name="Grupo 99643" transform="translate(72.289 2.163)">
            <path id="Trazado_106660" data-name="Trazado 106660" d="M414.332,265.3a1.138,1.138,0,1,1-1.138-1.138A1.139,1.139,0,0,1,414.332,265.3Z" transform="translate(-412.055 -264.167)" fill="#dee3fc"/>
            <path id="Trazado_106661" data-name="Trazado 106661" d="M422.86,265.3a1.138,1.138,0,1,1-1.138-1.138A1.139,1.139,0,0,1,422.86,265.3Z" transform="translate(-414.759 -264.167)" fill="#dee3fc"/>
            <path id="Trazado_106662" data-name="Trazado 106662" d="M431.388,265.3a1.138,1.138,0,1,1-1.138-1.138A1.139,1.139,0,0,1,431.388,265.3Z" transform="translate(-417.463 -264.167)" fill="#dee3fc"/>
          </g>
        </g>
      </g>
      <g id="Grupo_99647" data-name="Grupo 99647" transform="translate(19.174 93.924)">
        <rect id="Rectángulo_33843" data-name="Rectángulo 33843" width="27.952" height="27.952" rx="7.151" fill="none" stroke="#ffa726" stroke-miterlimit="10" stroke-width="0.896"/>
        <g id="Grupo_99646" data-name="Grupo 99646" transform="translate(5.589 9.933)">
          <path id="Trazado_106663" data-name="Trazado 106663" d="M326.287,230.071,322.26,234.1l4.059,4.059" transform="translate(-322.26 -230.071)" fill="none" stroke="#ffa726" stroke-linecap="round" stroke-linejoin="round" stroke-width="1.672"/>
          <path id="Trazado_106664" data-name="Trazado 106664" d="M340.912,230.071l4.027,4.027-4.059,4.059" transform="translate(-328.165 -230.071)" fill="none" stroke="#ffa726" stroke-linecap="round" stroke-linejoin="round" stroke-width="1.672"/>
          <line id="Línea_179" data-name="Línea 179" x1="3.771" y2="8.086" transform="translate(6.502)" fill="none" stroke="#ffa726" stroke-linecap="round" stroke-linejoin="round" stroke-width="1.672"/>
        </g>
      </g>
      <g id="Grupo_99648" data-name="Grupo 99648" transform="translate(13.795 20.112)">
        <rect id="Rectángulo_33844" data-name="Rectángulo 33844" width="91.885" height="68.038" rx="8.18" fill="#a9ebf4"/>
        <circle id="Elipse_1731" data-name="Elipse 1731" cx="13.317" cy="13.317" r="13.317" transform="translate(59.959 4.651)" fill="#f0f4ff"/>
        <path id="Trazado_106665" data-name="Trazado 106665" d="M360.211,182.607H311.786a5.588,5.588,0,0,1-5.586-5.586v-8.953l21.19-36.706a2.878,2.878,0,0,1,4.985,0l16,27.712,11.882,20.583A2.824,2.824,0,0,1,360.211,182.607Z" transform="translate(-306.2 -114.569)" fill="#fff"/>
        <path id="Trazado_106666" data-name="Trazado 106666" d="M394.368,189.653H348.06l13.59-23.533,7.321-12.682a2.59,2.59,0,0,1,4.487,0Z" transform="translate(-319.474 -121.615)" fill="#f0f4ff"/>
      </g>
    </g>
    <g id="Grupo_99659" data-name="Grupo 99659" transform="translate(317.328 167.216)">
      <g id="Grupo_99651" data-name="Grupo 99651" transform="translate(38.64 102.471)">
        <rect id="Rectángulo_33845" data-name="Rectángulo 33845" width="35.7" height="53.651" fill="#ffca28"/>
        <rect id="Rectángulo_33846" data-name="Rectángulo 33846" width="13.669" height="53.651" transform="translate(49.369 53.651) rotate(180)" fill="#ffa726"/>
        <g id="Grupo_99650" data-name="Grupo 99650" transform="translate(37.657 2.06)">
          <rect id="Rectángulo_33847" data-name="Rectángulo 33847" width="10.036" height="1.712" fill="#ffca28"/>
          <rect id="Rectángulo_33848" data-name="Rectángulo 33848" width="10.036" height="1.712" transform="translate(0 3.678)" fill="#ffca28"/>
          <rect id="Rectángulo_33849" data-name="Rectángulo 33849" width="10.036" height="1.712" transform="translate(0 7.357)" fill="#ffca28"/>
          <rect id="Rectángulo_33850" data-name="Rectángulo 33850" width="10.036" height="1.712" transform="translate(0 11.035)" fill="#ffca28"/>
          <rect id="Rectángulo_33851" data-name="Rectángulo 33851" width="10.036" height="1.712" transform="translate(0 14.713)" fill="#ffca28"/>
          <rect id="Rectángulo_33852" data-name="Rectángulo 33852" width="10.036" height="1.712" transform="translate(0 18.391)" fill="#ffca28"/>
          <rect id="Rectángulo_33853" data-name="Rectángulo 33853" width="10.036" height="1.712" transform="translate(0 22.07)" fill="#ffca28"/>
          <rect id="Rectángulo_33854" data-name="Rectángulo 33854" width="10.036" height="1.712" transform="translate(0 25.748)" fill="#ffca28"/>
          <rect id="Rectángulo_33855" data-name="Rectángulo 33855" width="10.036" height="1.712" transform="translate(0 29.426)" fill="#ffca28"/>
          <rect id="Rectángulo_33856" data-name="Rectángulo 33856" width="10.036" height="1.712" transform="translate(0 33.105)" fill="#ffca28"/>
          <rect id="Rectángulo_33857" data-name="Rectángulo 33857" width="10.036" height="1.712" transform="translate(0 36.783)" fill="#ffca28"/>
          <rect id="Rectángulo_33858" data-name="Rectángulo 33858" width="10.036" height="1.712" transform="translate(0 40.461)" fill="#ffca28"/>
          <rect id="Rectángulo_33859" data-name="Rectángulo 33859" width="10.036" height="1.712" transform="translate(0 44.14)" fill="#ffca28"/>
          <rect id="Rectángulo_33860" data-name="Rectángulo 33860" width="10.036" height="1.712" transform="translate(0 47.818)" fill="#ffca28"/>
        </g>
      </g>
      <g id="Grupo_99658" data-name="Grupo 99658">
        <path id="Trazado_106667" data-name="Trazado 106667" d="M489.589,437h18.143a9.9,9.9,0,0,0-1.183-7.233s-1.46,1.171-5.835.379a19.452,19.452,0,0,1-3.086,2.157C496.361,432.919,489.1,434.345,489.589,437Z" transform="translate(-456.748 -280.883)" fill="#281616"/>
        <path id="Trazado_106668" data-name="Trazado 106668" d="M491.261,363.741c1.172,6.992,6.579,30.649,8.9,44.624a21.326,21.326,0,0,0,7.37-.375c-.212-4.873-.631-16.53-.582-21.642.081-8.639.486-20.032-3.317-26.284l-12.788,1.007c.078.675.149,1.224.211,1.617C491.121,363.064,491.191,363.412,491.261,363.741Z" transform="translate(-457.155 -258.779)" fill="#002c54"/>
        <path id="Trazado_106669" data-name="Trazado 106669" d="M441.533,437h18.144a9.9,9.9,0,0,0-1.184-7.233s-1.461,1.171-5.835.379a19.473,19.473,0,0,1-3.087,2.157C448.3,432.919,441.044,434.345,441.533,437Z" transform="translate(-441.509 -280.883)" fill="#281616"/>
        <path id="Trazado_106670" data-name="Trazado 106670" d="M457.066,406a20.815,20.815,0,0,0,7.167.641c.965-5.618,2.488-17.977,3.86-23.77,2.128-9.005,4.211-21.39,2.764-25.808l-12.579-3.159C458.235,354.305,457.212,392.208,457.066,406Z" transform="translate(-446.442 -256.827)" fill="#052635"/>
        <path id="Trazado_106671" data-name="Trazado 106671" d="M507.678,333.028h0c-.253-2.486-.544-4.3-.544-4.3l-14.054,3.44-11.939,2.72c-4.426.986-9.772,2.173-14.486,3.238-5.289,1.2-8.8,5.22-7.642,10.516l1.326,6.424c7.4-.1,42.179-3.435,45.154-4.937C508.856,348.429,509.867,342.428,507.678,333.028Z" transform="translate(-446.99 -248.842)" fill="#052635"/>
        <path id="Trazado_106672" data-name="Trazado 106672" d="M538.4,332.632h0a19.416,19.416,0,0,0-1.465-5.153L523.8,331.77l-11.939,2.72c-4.426.986-9.773,2.173-14.486,3.238-5.289,1.2-8.8,5.219-7.642,10.516l1.326,6.424c7.4-.1,38.318-1.179,45.154-4.937C539.515,347.917,540.589,342.032,538.4,332.632Z" transform="translate(-456.732 -248.446)" fill="#002c54"/>
        <g id="Grupo_99652" data-name="Grupo 99652" transform="translate(21.671 62.793)">
          <path id="Trazado_106673" data-name="Trazado 106673" d="M493.9,304.949s6.242-2.82,7.96.008c.94,1.548.29,4.424-1.839,5.631s-14.159,6.3-25.515,9.133a27.572,27.572,0,0,0-1.267-3.24,59.785,59.785,0,0,0,10.158-5.669,64.755,64.755,0,0,1,10.5-5.863Z" transform="translate(-473.243 -303.698)" fill="#e5918f"/>
        </g>
        <path id="Trazado_106674" data-name="Trazado 106674" d="M503.3,276.985l-5.35,21.369s.553,5.4,6.008,2.751,9.072-19.676,9.072-19.676Z" transform="translate(-459.406 -232.435)" fill="#e5918f"/>
        <path id="Trazado_106675" data-name="Trazado 106675" d="M513.689,283.224c-.662-.16-1.293-.335-1.9-.518q-.936-.275-1.781-.571a30.014,30.014,0,0,1-7.831-3.836,56.117,56.117,0,0,1,5.236-14.688,2.177,2.177,0,0,0,.13-.228l.137-.228a13.361,13.361,0,0,1,3.722-3.873l.449-.312.632,11.157.106,1.149Z" transform="translate(-460.746 -226.722)" fill="#fff"/>
        <path id="Trazado_106676" data-name="Trazado 106676" d="M517.326,288.3c-.662-.16-1.293-.335-1.9-.518q-.936-.275-1.781-.571c1.067-7.515,2.032-12.238,2.032-12.238l.548,1.377Z" transform="translate(-464.383 -231.796)" fill="#c7e5f2"/>
        <path id="Trazado_106677" data-name="Trazado 106677" d="M548.96,261.979c-.13,3.3-.708,8.607-1.21,13.934-.16,1.689-.312,3.387-.442,5.023-.091,1.02-1.628,6.462-1.69,7.435-.274,4.657-2.557,8.143-.4,15.236a11.166,11.166,0,0,1,.647,3.272c0,.487-.632,1-.882,1.134a14.907,14.907,0,0,1-4.848,1.157h-.008a125.767,125.767,0,0,1-13.455.616c-4.65,0-11.628-.738-12.511-1.91-.807-1.073-.061-2.633.32-4.787,1.713-9.718,1.1-14.786,1-21.8,0-.175-.007-.35-.007-.533-.175-10.822-.891-20.083-.388-23.424l.449-.312c.738-.5,1.461-.951,2.161-1.347.061-.03.137-.076.213-.122.213-.122.434-.236.639-.35a2.464,2.464,0,0,1,.244-.122,53.04,53.04,0,0,1,5.19-2.047c.167-.053.32-.107.449-.145,1.24-.076,2.587-.091,4.041-.053,1.263.038,3.2.2,5.3.479h.008a54.735,54.735,0,0,1,7.032,1.316s.023.008.038.016a14.475,14.475,0,0,1,5.533,3.873A18.741,18.741,0,0,1,548.96,261.979Z" transform="translate(-464.434 -224.769)" fill="#fff"/>
        <path id="Trazado_106678" data-name="Trazado 106678" d="M556.985,311.174a11.164,11.164,0,0,1,.647,3.272c0,.487-.632,1-.882,1.134a14.905,14.905,0,0,1-4.848,1.157,3.437,3.437,0,0,0,2.428-2.793c0-.893-1.157-6.918-.837-10.807s.951-10.06-.251-15.007-2.344-11.454-2.344-11.454l6.781,4.095s.875,1.225,1.834,2.709c-.16,1.689-.312,3.387-.442,5.023C558.979,289.523,554.824,304.082,556.985,311.174Z" transform="translate(-476.196 -232.337)" fill="#c7e5f2"/>
        <g id="Grupo_99656" data-name="Grupo 99656" transform="translate(47.773)">
          <path id="Trazado_106679" data-name="Trazado 106679" d="M516.13,224.354s.587,7.092,2.938,7.569,1.774-2.537,1.774-2.537l-.329-3.367Z" transform="translate(-512.944 -215.746)" fill="#002c54"/>
          <path id="Trazado_106680" data-name="Trazado 106680" d="M530.571,253.738c-4.6-.548-2.885-5.023-2.253-6.051.167-.053.959-.3,1.02-.335a.025.025,0,0,1,.016-.008,1.262,1.262,0,0,0,.357-.533,10.923,10.923,0,0,0,.229-3.684V242.7c.076-.281.152-.548.213-.8l2.42-1.9,5.121-4.026s-1.362,6.735-.266,10.982a1.6,1.6,0,0,0,.677,1.02c0,.008.008,0,.008,0a1.24,1.24,0,0,0,.51.182C539.878,248.746,538.128,254.637,530.571,253.738Z" transform="translate(-516.542 -219.428)" fill="#e5918f"/>
          <path id="Trazado_106681" data-name="Trazado 106681" d="M535.665,242.236a7.639,7.639,0,0,1-4.922,6.561,10.8,10.8,0,0,0,.23-3.677l2.044-1.6Z" transform="translate(-517.578 -221.416)" fill="#cc6362"/>
          <path id="Trazado_106682" data-name="Trazado 106682" d="M517.776,222.564s1.065,14.715,5.038,15.965a10.333,10.333,0,0,0,8.7-4.412c1.048-1.409,2.37-1.725,2.8-3.426.7-2.763,1.692-7.859.429-10.93C532.943,215.387,517.947,211.914,517.776,222.564Z" transform="translate(-513.466 -212.946)" fill="#e5918f"/>
          <path id="Trazado_106683" data-name="Trazado 106683" d="M532.8,216.134a4.327,4.327,0,0,0-2.771-3.671c-2.693-1.261-8.291-.717-14.061.57-1.353.3-3.051-.529-4,.127-1.142.792,0,4.412,0,4.412,2.226,6.741,10.417,4.549,12.878,3.717.585,1.736.51,4.149,1.969,5.393.831.709,2.277.729,3.746.485.181.343.861.647,1,1.119a23.819,23.819,0,0,1,.382,5.941l.695-.339C532.729,233.372,539.913,216.355,532.8,216.134Z" transform="translate(-511.465 -211.748)" fill="#002c54"/>
          <g id="Grupo_99653" data-name="Grupo 99653" transform="translate(4.9 11.737)">
            <path id="Trazado_106684" data-name="Trazado 106684" d="M522.126,232.189a1.8,1.8,0,1,1-2.1-1.92A2.043,2.043,0,0,1,522.126,232.189Z" transform="translate(-518.64 -229.352)" fill="none" stroke="#fff" stroke-miterlimit="10" stroke-width="0.501"/>
            <path id="Trazado_106685" data-name="Trazado 106685" d="M529.156,230.875a1.8,1.8,0,1,1-2.1-1.92A2.043,2.043,0,0,1,529.156,230.875Z" transform="translate(-520.87 -228.935)" fill="none" stroke="#fff" stroke-miterlimit="10" stroke-width="0.501"/>
            <path id="Trazado_106686" data-name="Trazado 106686" d="M523.744,232.967s.21-.342,1.316-.246" transform="translate(-520.258 -230.13)" fill="none" stroke="#fff" stroke-miterlimit="10" stroke-width="0.501"/>
            <line id="Línea_180" data-name="Línea 180" y1="0.656" x2="4.104" transform="translate(8.328 1.577)" fill="none" stroke="#fff" stroke-miterlimit="10" stroke-width="0.501"/>
          </g>
          <g id="Grupo_99654" data-name="Grupo 99654" transform="translate(16.46 12.327)">
            <path id="Trazado_106687" data-name="Trazado 106687" d="M536.741,235.995c2.827,1.082,3.709-5.874,1.025-6.182-2.035-.234-2.118,2.606-2.118,2.606S535.127,235.377,536.741,235.995Z" transform="translate(-535.568 -229.799)" fill="#e5918f"/>
          </g>
          <g id="Grupo_99655" data-name="Grupo 99655" transform="translate(17.608 13.389)" opacity="0.5">
            <path id="Trazado_106688" data-name="Trazado 106688" d="M538.207,231.355s-1.67.884-.6,3.6" transform="translate(-537.25 -231.355)" fill="none" stroke="#cc6362" stroke-miterlimit="10" stroke-width="0.724"/>
            <path id="Trazado_106689" data-name="Trazado 106689" d="M538.66,233.289a1.476,1.476,0,0,0-1.373,1.019" transform="translate(-537.262 -231.968)" fill="none" stroke="#cc6362" stroke-miterlimit="10" stroke-width="0.724"/>
          </g>
        </g>
        <path id="Trazado_106690" data-name="Trazado 106690" d="M570.368,299.2v.007c-1.242,1.441-5.956,2.491-8.224.5a13.16,13.16,0,0,1-2.307-4.384,135.741,135.741,0,0,1-3.914-13.25l10.548-5.39s1.357,6.085,2.526,11.867c0,0,.01.059.032.161.38,1.852.735,3.674,1.013,5.237a.731.731,0,0,1,.021.124A22.157,22.157,0,0,1,570.368,299.2Z" transform="translate(-477.789 -232.337)" fill="#e5918f"/>
        <path id="Trazado_106691" data-name="Trazado 106691" d="M550.089,268.508a126.7,126.7,0,0,0,4.22,12.262,16.707,16.707,0,0,0,7.741-.936,14.263,14.263,0,0,0,4.931-3.2s-2.124-5.967-4.029-10.255c-1.711-3.849-2.738-5.286-3.478-6.048a16.763,16.763,0,0,0-4.188-3.115Z" transform="translate(-475.94 -226.165)" fill="#fff"/>
        <path id="Trazado_106692" data-name="Trazado 106692" d="M564.482,270.729l-6.19-2.671-4.877-12.567s.894.272,2.071.747h.006c.022.011.073.028.158.062a.649.649,0,0,1,.09.04c1.052.492,5.132,2.9,7.956,11.633l.068.221c.3,1.007.52,1.816.639,2.235.012.04.023.079.034.124S564.466,270.672,564.482,270.729Z" transform="translate(-476.995 -225.619)" fill="#fff"/>
        <g id="Grupo_99657" data-name="Grupo 99657" transform="translate(52.993 56.051)">
          <path id="Trazado_106693" data-name="Trazado 106693" d="M562.013,304.635v.007c-.091.772-.3,1.328-.686,1.524-.061.039-.927.555-.987.593a52.645,52.645,0,0,1-6.538,3.381,236.875,236.875,0,0,1-22.832,8.2,26.915,26.915,0,0,0-1.4-3.187,59.818,59.818,0,0,0,9.912-6.085c4.92-3.755,12-8.317,12-8.317l1.787-2.1s6.352-5.847,7.373-4.671c0,0,.01.059.032.161.152.61.656,2.853,1.013,5.237a.732.732,0,0,1,.021.124A22.157,22.157,0,0,1,562.013,304.635Z" transform="translate(-522.427 -293.826)" fill="#e5918f"/>
          <path id="Trazado_106694" data-name="Trazado 106694" d="M526.985,324.134a3.93,3.93,0,0,1-2.508.482c-.7-.147-.983-.434-1.5-.524a11.658,11.658,0,0,1-2.579-.6c-.682-.335-.948-.372-.925.313s1.371,1.278,1.736,1.468a3.459,3.459,0,0,1,.873.874c.05.077-2.245,1.277-2.861,1.033a1.787,1.787,0,0,0-.079.861c.1.308.576.417.613.572s-.109.471-.006.718.523.247.693.646-.017.406.106.823.657.492.758.707.048.466.271.615a10.4,10.4,0,0,0,3.04-.837c.753-.323,2.766-3.221,4.993-4.208Z" transform="translate(-519.109 -303.161)" fill="#e5918f"/>
        </g>
        <path id="Trazado_106695" data-name="Trazado 106695" d="M538.631,342.748H522.585v-1.57h16.046a.785.785,0,0,1,.785.785h0A.785.785,0,0,1,538.631,342.748Z" transform="translate(-467.218 -252.79)" fill="#375f84"/>
        <path id="Trazado_106696" data-name="Trazado 106696" d="M510.4,328.762H470.221a1.07,1.07,0,0,1-1.032-.785l-8.223-29.6a1.029,1.029,0,0,1,.991-1.3h38.852a2.015,2.015,0,0,1,1.941,1.476l8.194,29.5A.567.567,0,0,1,510.4,328.762Z" transform="translate(-447.667 -238.804)" fill="#375f84"/>
        <path id="Trazado_106697" data-name="Trazado 106697" d="M508.268,328.762H468.092a1.072,1.072,0,0,1-1.033-.785l-8.223-29.6a1.029,1.029,0,0,1,.991-1.3h38.852a2.016,2.016,0,0,1,1.942,1.476l8.193,29.5A.567.567,0,0,1,508.268,328.762Z" transform="translate(-446.992 -238.804)" fill="#ffca28"/>
      </g>
    </g>
    <g id="Grupo_99660" data-name="Grupo 99660" transform="translate(141.675 205.588)">
      <path id="Trazado_106698" data-name="Trazado 106698" d="M298.064,309.657l4.654-4.771a12.482,12.482,0,0,1,.414-2.577,11.844,11.844,0,0,1,1.234-2.292,1.686,1.686,0,0,1,.979,0,4.479,4.479,0,0,1,.936-.218,2.746,2.746,0,0,1,.832.265s.7-.047.985-.047a.619.619,0,0,1,.383.081,20.555,20.555,0,0,1,1.666-1.726c.544-.434,1.375-1.235,1.621-1.232s.335.411.165.846a4.821,4.821,0,0,1-.9,1.136l-2.12,3.213a4.561,4.561,0,0,0,.555-.266c.193-.121,1.487-1.329,1.565-1.377s.658-.434,1-.048-2.22,3.451-2.631,3.862a22.4,22.4,0,0,1-2.762,1.6s-2.483,4.467-2.725,4.756S298.064,309.657,298.064,309.657Z" transform="translate(-220.37 -277.198)" fill="#e49191"/>
      <path id="Trazado_106699" data-name="Trazado 106699" d="M296.45,279.56s-2.6,15.059-5.047,15.409c0,0-9.769.394-11.945-11.457-1.888-10.277,5.682-12.468,9.223-11.682S297.21,273.127,296.45,279.56Z" transform="translate(-214.376 -269.126)" fill="#e49191"/>
      <path id="Trazado_106700" data-name="Trazado 106700" d="M287.346,298.455s-1.369,1.844-1.848,6.313a14.5,14.5,0,0,1-7.819-1.349,55.345,55.345,0,0,0,2.269-13.146" transform="translate(-213.906 -275.02)" fill="#e49191"/>
      <path id="Trazado_106701" data-name="Trazado 106701" d="M284.12,268.12c-5.338,1.179-4.911,4.505-4.911,4.505-2.5.619-3.036,1.651-3.016,6.264s1.69,10.153,2.611,10.6,6.139.473,6.575.314,2.262-4.39,1.836-5.135.021-3.673,1.237-3.783.977,1.773.977,1.773l1-.219.772-1.892c7.054.42,8.877-7.619,8.877-7.619C298.382,271.826,289.459,266.941,284.12,268.12Z" transform="translate(-213.435 -267.938)" fill="#002c54"/>
      <path id="Trazado_106702" data-name="Trazado 106702" d="M199.63,417.457l5.4.78-1.788,6.3-5.846-1.474a3.8,3.8,0,0,1,1.212-5.609A1.966,1.966,0,0,1,199.63,417.457Z" transform="translate(-188.203 -315.328)" fill="#e5918f"/>
      <path id="Trazado_106703" data-name="Trazado 106703" d="M242.275,382.42l-7.956-24.089s-2.411-.859-3.646,0c0,0-8.288,4.457-7.4,17.164a207.642,207.642,0,0,0,3.509,24.136l-21.225-.785a7.232,7.232,0,0,0-.925,7.164s26.671,7.173,30.428,7.836c3.053.539,6.4.955,8.009-.428C245.908,410.983,242.275,382.42,242.275,382.42Z" transform="translate(-190.561 -296.481)"/>
      <path id="Trazado_106704" data-name="Trazado 106704" d="M236.431,417.457l5.4.78-1.788,6.3-5.846-1.474a3.8,3.8,0,0,1,1.212-5.609A1.966,1.966,0,0,1,236.431,417.457Z" transform="translate(-199.873 -315.328)" fill="#e5918f"/>
      <path id="Trazado_106705" data-name="Trazado 106705" d="M230.563,420.011c-.121,1.241.965,2.358.766,2.667s-3.827,6.4-3.827,6.4,2.739,1.193,2.3,2.916h-6.937a5.758,5.758,0,0,1-1.767-3.977,20.124,20.124,0,0,1,1.709-5.081c1.237-2.386,4.05-7.773,4.05-7.773a3.928,3.928,0,0,1,2.312.044,14.024,14.024,0,0,1,3.356,1.5S230.862,416.944,230.563,420.011Z" transform="translate(-195.963 -314.577)" fill="#4dd0e1"/>
      <path id="Trazado_106706" data-name="Trazado 106706" d="M292.111,408.536c-1.713-6.391-17.827-33.673-23.279-41.04-11.2-4.862-23.131-8.987-23.131-8.987-4.935,1.179-7.366,11.124-4.567,17.753,1.92,4.549,14.1,16,21.564,22.736l-20.7-.025s-2.439,3.645-.229,7.108c0,0,34.433,7.829,37.453,8.271a68.641,68.641,0,0,0,9.8,0S293.553,413.916,292.111,408.536Z" transform="translate(-201.943 -296.658)" fill="#12263f"/>
      <path id="Trazado_106707" data-name="Trazado 106707" d="M193.762,420.011c-.121,1.241.965,2.358.766,2.667s-3.828,6.4-3.828,6.4,2.74,1.193,2.3,2.916h-6.937a5.755,5.755,0,0,1-1.767-3.977A20.124,20.124,0,0,1,186,422.933c1.237-2.386,4.05-7.773,4.05-7.773a3.927,3.927,0,0,1,2.312.044,14.039,14.039,0,0,1,3.356,1.5S194.061,416.944,193.762,420.011Z" transform="translate(-184.294 -314.577)" fill="#4dd0e1"/>
      <path id="Trazado_106708" data-name="Trazado 106708" d="M342.385,308.679l-11.1,19.533-7.953-7.927-6.582,9.8,1.911.918-.688.572s15.348,7.474,17.187,5.826,10.408-26.5,10.408-26.5Z" transform="translate(-226.294 -280.857)" fill="#e49191"/>
      <path id="Trazado_106709" data-name="Trazado 106709" d="M300.34,319.866s-2.1,8.844-6.29,13.037l-10.728-4.084s-4.978,8.372-9.847,14.792c-1.871,2.479-2.493,5.969-4.692,6.426-.137-.048-.266-.089-.4-.123-5.962-1.789-14.758.109-22.017-2.588-8.017-2.984-6.46-4.664-6.46-4.664a103.565,103.565,0,0,0,7.621-18.042,110.629,110.629,0,0,0,2.65-10.879,12.526,12.526,0,0,1,10.544-10.086c.061-.007.116-.021.178-.027,6.078-.772,21.989,1.106,25.083,2.431S300.34,319.866,300.34,319.866Z" transform="translate(-201.889 -279.198)" fill="#4dd0e1"/>
      <path id="Trazado_106710" data-name="Trazado 106710" d="M296.789,339.941s-4.978,8.372-9.847,14.792c-1.871,2.479-2.493,5.969-4.692,6.426.963-.341,2.561-5.409,3.128-6.549s1.482-2.274,3.449-6.255,4.621-9.833,4.621-9.833Z" transform="translate(-215.356 -290.32)" fill="#5996ef"/>
      <path id="Trazado_106711" data-name="Trazado 106711" d="M273.26,417.8a34.742,34.742,0,0,1,10.7,1.538" transform="translate(-212.505 -315.456)" fill="none" stroke="#000" stroke-miterlimit="10" stroke-width="1.065"/>
      <path id="Trazado_106712" data-name="Trazado 106712" d="M362.291,296.528a10.392,10.392,0,0,0-1.867,1.347l.633-1.212a11.929,11.929,0,0,0,1.138-1.252c.3-.444.143-.888-.095-.912a9.308,9.308,0,0,0-1.749,1.25l.128-.244a11.933,11.933,0,0,0,1.138-1.252c.3-.444.143-.888-.095-.912a14.989,14.989,0,0,0-2.164,1.593l-.938,1.256.707-1.373a5.929,5.929,0,0,0,.621-.952c.248-.5.069-.649-.069-.814s-1.435.8-1.766,1.186a20.021,20.021,0,0,0-1.462,2.173l-1.084,2.242c-.07-.649-.178-1.761-.255-2.469-.111-1.021-1.035-1.263-1.067-.766a25.982,25.982,0,0,0-.43,4.263c.116,1.325.338,2.193.421,2.939a5.85,5.85,0,0,1-.69,2.234s3.09,1.919,3.6,1.345a24.139,24.139,0,0,0,2.124-2.709,14.43,14.43,0,0,0,1.209-2.732l.966-2.063a11.928,11.928,0,0,0,1.138-1.252C362.687,296.995,362.529,296.551,362.291,296.528Z" transform="translate(-237.9 -275.895)" fill="#e49191"/>
    </g>
    <g id="Grupo_99662" data-name="Grupo 99662" transform="translate(403.005 164.024)">
      <path id="Trazado_106713" data-name="Trazado 106713" d="M607.413,207.074H571.175a4.205,4.205,0,0,0-4.205,4.205v8.56a4.207,4.207,0,0,0,3.675,4.173.605.605,0,0,1,.531.6V229.3a.279.279,0,0,0,.505.162l3.691-5.161a.611.611,0,0,1,.5-.256h31.544a4.205,4.205,0,0,0,4.205-4.205v-8.56A4.205,4.205,0,0,0,607.413,207.074Z" transform="translate(-566.97 -207.074)" fill="none" stroke="#fff" stroke-miterlimit="10" stroke-width="0.896"/>
      <g id="Grupo_99661" data-name="Grupo 99661" transform="translate(6.996 7.088)">
        <path id="Trazado_106714" data-name="Trazado 106714" d="M579.983,218.838a1.385,1.385,0,1,1-1.385-1.385A1.384,1.384,0,0,1,579.983,218.838Z" transform="translate(-577.214 -217.453)" fill="none" stroke="#fff" stroke-miterlimit="10" stroke-width="0.896"/>
        <path id="Trazado_106715" data-name="Trazado 106715" d="M590.192,218.838a1.385,1.385,0,1,1-1.384-1.385A1.384,1.384,0,0,1,590.192,218.838Z" transform="translate(-580.451 -217.453)" fill="none" stroke="#fff" stroke-miterlimit="10" stroke-width="0.896"/>
        <path id="Trazado_106716" data-name="Trazado 106716" d="M600.4,218.838a1.384,1.384,0,1,1-1.384-1.385A1.384,1.384,0,0,1,600.4,218.838Z" transform="translate(-583.689 -217.453)" fill="none" stroke="#fff" stroke-miterlimit="10" stroke-width="0.896"/>
        <path id="Trazado_106717" data-name="Trazado 106717" d="M610.611,218.838a1.385,1.385,0,1,1-1.385-1.385A1.384,1.384,0,0,1,610.611,218.838Z" transform="translate(-586.926 -217.453)" fill="none" stroke="#fff" stroke-miterlimit="10" stroke-width="0.896"/>
        <path id="Trazado_106718" data-name="Trazado 106718" d="M620.82,218.838a1.385,1.385,0,1,1-1.384-1.385A1.384,1.384,0,0,1,620.82,218.838Z" transform="translate(-590.163 -217.453)" fill="none" stroke="#fff" stroke-miterlimit="10" stroke-width="0.896"/>
      </g>
    </g>
    <g id="Grupo_99664" data-name="Grupo 99664" transform="translate(152.901 201.554)">
      <path id="Trazado_106719" data-name="Trazado 106719" d="M204.938,262.031h36.238a4.2,4.2,0,0,1,4.2,4.2V274.8a4.205,4.205,0,0,1-3.674,4.172.606.606,0,0,0-.531.6v4.686a.279.279,0,0,1-.505.162l-3.691-5.161a.611.611,0,0,0-.5-.255H204.938a4.205,4.205,0,0,1-4.205-4.205v-8.561A4.205,4.205,0,0,1,204.938,262.031Z" transform="translate(-200.733 -262.031)" fill="none" stroke="#fff" stroke-miterlimit="10" stroke-width="0.896"/>
      <g id="Grupo_99663" data-name="Grupo 99663" transform="translate(6.996 7.088)">
        <path id="Trazado_106720" data-name="Trazado 106720" d="M251.814,273.795a1.385,1.385,0,1,0,1.385-1.385A1.385,1.385,0,0,0,251.814,273.795Z" transform="translate(-223.926 -272.41)" fill="none" stroke="#fff" stroke-miterlimit="10" stroke-width="0.896"/>
        <path id="Trazado_106721" data-name="Trazado 106721" d="M241.605,273.795a1.385,1.385,0,1,0,1.384-1.385A1.385,1.385,0,0,0,241.605,273.795Z" transform="translate(-220.689 -272.41)" fill="none" stroke="#fff" stroke-miterlimit="10" stroke-width="0.896"/>
        <path id="Trazado_106722" data-name="Trazado 106722" d="M231.4,273.795a1.385,1.385,0,1,0,1.385-1.385A1.385,1.385,0,0,0,231.4,273.795Z" transform="translate(-217.452 -272.41)" fill="none" stroke="#fff" stroke-miterlimit="10" stroke-width="0.896"/>
        <path id="Trazado_106723" data-name="Trazado 106723" d="M221.186,273.795a1.385,1.385,0,1,0,1.384-1.385A1.385,1.385,0,0,0,221.186,273.795Z" transform="translate(-214.214 -272.41)" fill="none" stroke="#fff" stroke-miterlimit="10" stroke-width="0.896"/>
        <path id="Trazado_106724" data-name="Trazado 106724" d="M210.977,273.795a1.385,1.385,0,1,0,1.384-1.385A1.384,1.384,0,0,0,210.977,273.795Z" transform="translate(-210.977 -272.41)" fill="none" stroke="#fff" stroke-miterlimit="10" stroke-width="0.896"/>
      </g>
    </g>
    <g id="Grupo_99666" data-name="Grupo 99666" transform="translate(303.311 131.083)">
      <path id="Trazado_106725" data-name="Trazado 106725" d="M493.627,172.029H427.579a6.6,6.6,0,0,1-6.6-6.6h0a6.6,6.6,0,0,1,6.6-6.6h66.048a6.6,6.6,0,0,1,6.6,6.6h0A6.6,6.6,0,0,1,493.627,172.029Z" transform="translate(-420.984 -158.838)" fill="#fff" stroke="#4dd0e1" stroke-miterlimit="10" stroke-width="0.896"/>
      <g id="Grupo_99665" data-name="Grupo 99665" transform="translate(64.661 2.633)">
        <path id="Trazado_106726" data-name="Trazado 106726" d="M522.684,166.2a3.507,3.507,0,1,1-3.507-3.508A3.507,3.507,0,0,1,522.684,166.2Z" transform="translate(-515.669 -162.694)" fill="#4dd0e1" stroke="#039be5" stroke-miterlimit="10" stroke-width="1.672"/>
        <line id="Línea_181" data-name="Línea 181" x2="1.937" y2="1.937" transform="translate(5.987 5.988)" fill="none" stroke="#039be5" stroke-linecap="round" stroke-miterlimit="10" stroke-width="1.672"/>
      </g>
    </g>
    <g id="Grupo_99689" data-name="Grupo 99689" transform="translate(108.11 71.31)">
      <g id="Grupo_99667" data-name="Grupo 99667" transform="translate(140.968 225.202)">
        <rect id="Rectángulo_33861" data-name="Rectángulo 33861" width="27.143" height="27.143" rx="7.708" transform="translate(4.947)" fill="#ffca28"/>
        <rect id="Rectángulo_33862" data-name="Rectángulo 33862" width="27.143" height="27.143" rx="7.708" fill="#4dd0e1"/>
        <path id="Trazado_106727" data-name="Trazado 106727" d="M356.245,413.408l7.792,4.5a.722.722,0,0,1,0,1.25l-7.792,4.5a.721.721,0,0,1-1.082-.625v-9A.721.721,0,0,1,356.245,413.408Z" transform="translate(-345.879 -404.959)" fill="#fff"/>
      </g>
      <g id="Grupo_99668" data-name="Grupo 99668" transform="translate(304.601 216.862)">
        <rect id="Rectángulo_33863" data-name="Rectángulo 33863" width="35.483" height="35.483" rx="10.076" transform="translate(6.467)" fill="#a9ebf4"/>
        <rect id="Rectángulo_33864" data-name="Rectángulo 33864" width="35.483" height="35.483" rx="10.076" fill="#4dd0e1"/>
        <path id="Trazado_106728" data-name="Trazado 106728" d="M609.446,399.638a4.263,4.263,0,1,1-4.263-4.263A4.263,4.263,0,0,1,609.446,399.638Z" transform="translate(-587.441 -390.933)" fill="#fff"/>
        <path id="Trazado_106729" data-name="Trazado 106729" d="M611.923,418.628v6.294a1.03,1.03,0,0,1-1.029,1.03H595.178a1.03,1.03,0,0,1-1.03-1.03v-6.294a8.887,8.887,0,0,1,8.887-8.887h0A8.887,8.887,0,0,1,611.923,418.628Z" transform="translate(-585.294 -395.488)" fill="#fff"/>
      </g>
      <g id="Grupo_99669" data-name="Grupo 99669" transform="translate(227.992 78.465)">
        <path id="Trazado_106730" data-name="Trazado 106730" d="M484,188.307H470.049A1.048,1.048,0,0,1,469,187.258h0a1.049,1.049,0,0,1,1.048-1.048H484a1.048,1.048,0,0,1,1.048,1.048h0A1.048,1.048,0,0,1,484,188.307Z" transform="translate(-469.001 -186.21)" fill="#f0f4ff"/>
        <path id="Trazado_106731" data-name="Trazado 106731" d="M506.227,188.307h-10.1a1.049,1.049,0,0,1-1.048-1.048h0a1.049,1.049,0,0,1,1.048-1.048h10.1a1.048,1.048,0,0,1,1.048,1.048h0A1.048,1.048,0,0,1,506.227,188.307Z" transform="translate(-477.272 -186.21)" fill="#f0f4ff"/>
        <path id="Trazado_106732" data-name="Trazado 106732" d="M475.977,195.057h-5.928A1.048,1.048,0,0,1,469,194.008h0a1.049,1.049,0,0,1,1.048-1.048h5.928a1.049,1.049,0,0,1,1.048,1.048h0A1.048,1.048,0,0,1,475.977,195.057Z" transform="translate(-469.001 -188.35)" fill="#f0f4ff"/>
        <path id="Trazado_106733" data-name="Trazado 106733" d="M502.343,195.057H483.881a1.049,1.049,0,0,1-1.048-1.048h0a1.049,1.049,0,0,1,1.048-1.048h18.462a1.048,1.048,0,0,1,1.048,1.048h0A1.048,1.048,0,0,1,502.343,195.057Z" transform="translate(-473.387 -188.35)" fill="#f0f4ff"/>
        <path id="Trazado_106734" data-name="Trazado 106734" d="M488.439,201.807h-18.39A1.048,1.048,0,0,1,469,200.758h0a1.049,1.049,0,0,1,1.048-1.048h18.39a1.048,1.048,0,0,1,1.048,1.048h0A1.048,1.048,0,0,1,488.439,201.807Z" transform="translate(-469.001 -190.491)" fill="#f0f4ff"/>
        <path id="Trazado_106735" data-name="Trazado 106735" d="M508.163,201.807h-5.927a1.049,1.049,0,0,1-1.049-1.048h0a1.049,1.049,0,0,1,1.049-1.048h5.927a1.048,1.048,0,0,1,1.048,1.048h0A1.048,1.048,0,0,1,508.163,201.807Z" transform="translate(-479.207 -190.491)" fill="#f0f4ff"/>
      </g>
      <g id="Grupo_99677" data-name="Grupo 99677" transform="translate(270.796 0)">
        <circle id="Elipse_1735" data-name="Elipse 1735" cx="22.198" cy="22.198" r="22.198" transform="matrix(0.233, -0.972, 0.972, 0.233, 0, 43.174)" fill="none" stroke="#ffca28" stroke-miterlimit="10" stroke-width="0.79"/>
        <path id="Trazado_106770" data-name="Trazado 106770" d="M19.3,0A19.3,19.3,0,1,1,0,19.3,19.3,19.3,0,0,1,19.3,0Z" transform="translate(1.302 16.92) rotate(-23.868)" fill="#ffca28"/>
        <path id="Trazado_106748" data-name="Trazado 106748" d="M571.806,109.679a1.756,1.756,0,1,1-1.756-1.757A1.756,1.756,0,0,1,571.806,109.679Z" transform="translate(-543.291 -82.92)" fill="#fff"/>
        <path id="Trazado_106749" data-name="Trazado 106749" d="M567.571,104.757h0a.55.55,0,0,1-.747-.214l-5.676-10.237a.549.549,0,0,1,.214-.747h0a.549.549,0,0,1,.747.214l5.676,10.237A.549.549,0,0,1,567.571,104.757Z" transform="translate(-541.003 -78.343)" fill="#fff"/>
        <path id="Trazado_106750" data-name="Trazado 106750" d="M571.2,110.828h0a.55.55,0,0,1,.777,0l4.91,4.911a.549.549,0,0,1,0,.776h0a.549.549,0,0,1-.777,0l-4.91-4.91A.55.55,0,0,1,571.2,110.828Z" transform="translate(-544.161 -83.79)" fill="#fff"/>
        <g id="Grupo_99674" data-name="Grupo 99674" transform="translate(9.093 9.093)">
          <line id="Línea_183" data-name="Línea 183" y1="2.219" transform="translate(17.785)" fill="none" stroke="#fff" stroke-linecap="round" stroke-miterlimit="10" stroke-width="2"/>
          <line id="Línea_184" data-name="Línea 184" x2="2.219" transform="translate(33.113 17.785)" fill="none" stroke="#fff" stroke-linecap="round" stroke-miterlimit="10" stroke-width="2"/>
          <line id="Línea_185" data-name="Línea 185" y2="2.219" transform="translate(17.548 33.113)" fill="none" stroke="#fff" stroke-linecap="round" stroke-miterlimit="10" stroke-width="2"/>
          <line id="Línea_186" data-name="Línea 186" x1="2.219" transform="translate(0 17.548)" fill="none" stroke="#fff" stroke-linecap="round" stroke-miterlimit="10" stroke-width="2"/>
        </g>
        <g id="Grupo_99675" data-name="Grupo 99675" transform="translate(11.4 11.4)" opacity="0.5">
          <line id="Línea_187" data-name="Línea 187" x1="1.11" y1="1.922" transform="translate(6.628)" fill="none" stroke="#dee3fc" stroke-linecap="round" stroke-miterlimit="10" stroke-width="1"/>
          <line id="Línea_188" data-name="Línea 188" y1="1.11" x2="1.922" transform="translate(28.795 6.628)" fill="none" stroke="#dee3fc" stroke-linecap="round" stroke-miterlimit="10" stroke-width="1"/>
          <line id="Línea_189" data-name="Línea 189" x2="1.11" y2="1.922" transform="translate(22.98 28.795)" fill="none" stroke="#dee3fc" stroke-linecap="round" stroke-miterlimit="10" stroke-width="1"/>
          <line id="Línea_190" data-name="Línea 190" x1="1.922" y2="1.11" transform="translate(0 22.98)" fill="none" stroke="#dee3fc" stroke-linecap="round" stroke-miterlimit="10" stroke-width="1"/>
        </g>
        <g id="Grupo_99676" data-name="Grupo 99676" transform="translate(11.518 11.518)" opacity="0.5">
          <line id="Línea_191" data-name="Línea 191" x1="1.922" y1="1.11" transform="translate(0 6.305)" fill="none" stroke="#dee3fc" stroke-linecap="round" stroke-miterlimit="10" stroke-width="1"/>
          <line id="Línea_192" data-name="Línea 192" y1="1.922" x2="1.11" transform="translate(23.066)" fill="none" stroke="#dee3fc" stroke-linecap="round" stroke-miterlimit="10" stroke-width="1"/>
          <line id="Línea_193" data-name="Línea 193" x2="1.922" y2="1.11" transform="translate(28.559 23.066)" fill="none" stroke="#dee3fc" stroke-linecap="round" stroke-miterlimit="10" stroke-width="1"/>
          <line id="Línea_194" data-name="Línea 194" x1="1.11" y2="1.922" transform="translate(6.305 28.559)" fill="none" stroke="#dee3fc" stroke-linecap="round" stroke-miterlimit="10" stroke-width="1"/>
        </g>
      </g>
      <g id="Grupo_99680" data-name="Grupo 99680" transform="translate(0 97.781)">
        <rect id="Rectángulo_33866" data-name="Rectángulo 33866" width="37.446" height="37.446" rx="9.569" transform="translate(2.902 3.244)" fill="#193091"/>
        <rect id="Rectángulo_33867" data-name="Rectángulo 33867" width="37.446" height="37.446" rx="7.667" fill="#ffca28" stroke="#dee3fc" stroke-miterlimit="10" stroke-width="1"/>
        <g id="Grupo_99679" data-name="Grupo 99679" transform="translate(10.408 5.905)">
          <g id="Grupo_99678" data-name="Grupo 99678">
            <path id="Trazado_106751" data-name="Trazado 106751" d="M165.184,231.672h-.2v-2.145a6.384,6.384,0,1,0-12.769,0v2.145h-.043a1.791,1.791,0,0,0-1.791,1.791v8.084a1.792,1.792,0,0,0,1.791,1.792h13.007a1.792,1.792,0,0,0,1.792-1.792v-8.084A1.792,1.792,0,0,0,165.184,231.672Zm-11.347-2.145a4.767,4.767,0,1,1,9.535,0v2.145h-9.535Z" transform="translate(-150.385 -223.141)" fill="#fff"/>
            <path id="Trazado_106752" data-name="Trazado 106752" d="M163.677,240.75a2.084,2.084,0,1,0-3.134,1.8.373.373,0,0,1,.189.418l-.363,1.338a1.251,1.251,0,1,0,2.415,0l-.359-1.324a.375.375,0,0,1,.194-.421A2.074,2.074,0,0,0,163.677,240.75Z" transform="translate(-153.279 -228.064)" fill="#4dd0e1"/>
          </g>
          <path id="Trazado_106753" data-name="Trazado 106753" d="M166.207,256.155H151.153a.768.768,0,0,1-.768-.768h0a.768.768,0,0,1,.768-.768h15.054a.769.769,0,0,1,.768.768h0A.768.768,0,0,1,166.207,256.155Z" transform="translate(-150.385 -230.458)" fill="#fff"/>
          <path id="Trazado_106754" data-name="Trazado 106754" d="M166.207,259.968H151.153a.768.768,0,0,1-.768-.768h0a.768.768,0,0,1,.768-.768h15.054a.768.768,0,0,1,.768.768h0A.769.769,0,0,1,166.207,259.968Z" transform="translate(-150.385 -231.667)" fill="#fff"/>
        </g>
      </g>
      <g id="Grupo_99687" data-name="Grupo 99687" transform="translate(308.863 158.532)">
        <g id="Grupo_99681" data-name="Grupo 99681">
          <path id="Rectángulo_33868" data-name="Rectángulo 33868" d="M5.634,0H16.411a5.634,5.634,0,0,1,5.634,5.634V16.411a5.633,5.633,0,0,1-5.633,5.633H5.634A5.634,5.634,0,0,1,0,16.411V5.634A5.634,5.634,0,0,1,5.634,0Z" transform="translate(1.709 1.91)" fill="#4dd0e1"/>
          <rect id="Rectángulo_33869" data-name="Rectángulo 33869" width="22.045" height="22.045" rx="4.513" fill="#ffca28" stroke="#dee3fc" stroke-miterlimit="10" stroke-width="1"/>
        </g>
        <g id="Grupo_99686" data-name="Grupo 99686" transform="translate(4.439 4.438)">
          <g id="Grupo_99682" data-name="Grupo 99682" transform="translate(1.446)">
            <path id="Trazado_106755" data-name="Trazado 106755" d="M596.725,323.121a.649.649,0,0,1-.186-.026.682.682,0,0,1-.471-.842l3.334-11.8a.683.683,0,1,1,1.314.371l-3.334,11.8A.683.683,0,0,1,596.725,323.121Z" transform="translate(-596.041 -309.953)" fill="#fff"/>
          </g>
          <g id="Grupo_99683" data-name="Grupo 99683" transform="translate(7.021)">
            <path id="Trazado_106756" data-name="Trazado 106756" d="M604.888,323.121a.641.641,0,0,1-.186-.026.681.681,0,0,1-.472-.842l3.335-11.8a.683.683,0,1,1,1.314.371l-3.335,11.8A.682.682,0,0,1,604.888,323.121Z" transform="translate(-604.204 -309.953)" fill="#fff"/>
          </g>
          <g id="Grupo_99684" data-name="Grupo 99684" transform="translate(0 3.227)">
            <path id="Trazado_106757" data-name="Trazado 106757" d="M606.407,316.045h-11.8a.683.683,0,1,1,0-1.366h11.8a.683.683,0,1,1,0,1.366Z" transform="translate(-593.923 -314.679)" fill="#fff"/>
          </g>
          <g id="Grupo_99685" data-name="Grupo 99685" transform="translate(0 8.618)">
            <path id="Trazado_106758" data-name="Trazado 106758" d="M606.407,323.939h-11.8a.683.683,0,1,1,0-1.366h11.8a.683.683,0,1,1,0,1.366Z" transform="translate(-593.923 -322.573)" fill="#fff"/>
          </g>
        </g>
      </g>
      <g id="Grupo_99688" data-name="Grupo 99688" transform="translate(53.171 110.589)">
        <path id="Trazado_106759" data-name="Trazado 106759" d="M222.475,235.122H213.94a.936.936,0,0,1-.936-.936h0a.936.936,0,0,1,.936-.936h8.535a.936.936,0,0,1,.936.936h0A.936.936,0,0,1,222.475,235.122Z" transform="translate(-213.004 -233.25)" fill="#f0f4ff"/>
        <path id="Trazado_106760" data-name="Trazado 106760" d="M231.073,241.2H213.94a.936.936,0,0,1-.936-.936h0a.936.936,0,0,1,.936-.936h17.133a.936.936,0,0,1,.936.936h0A.935.935,0,0,1,231.073,241.2Z" transform="translate(-213.004 -235.179)" fill="#f0f4ff"/>
        <path id="Trazado_106761" data-name="Trazado 106761" d="M215.964,247.289H213.94a.936.936,0,0,1-.936-.936h0a.936.936,0,0,1,.936-.936h2.023a.935.935,0,0,1,.936.936h0A.936.936,0,0,1,215.964,247.289Z" transform="translate(-213.004 -237.108)" fill="#f0f4ff"/>
        <path id="Trazado_106762" data-name="Trazado 106762" d="M233.489,247.289H221.56a.936.936,0,0,1-.936-.936h0a.935.935,0,0,1,.936-.936h11.93a.935.935,0,0,1,.936.936h0A.936.936,0,0,1,233.489,247.289Z" transform="translate(-215.42 -237.108)" fill="#f0f4ff"/>
        <path id="Trazado_106763" data-name="Trazado 106763" d="M236.626,235.122h-5.174a.936.936,0,0,1-.936-.936h0a.936.936,0,0,1,.936-.936h5.174a.936.936,0,0,1,.936.936h0A.936.936,0,0,1,236.626,235.122Z" transform="translate(-218.557 -233.25)" fill="#f0f4ff"/>
      </g>
      <path id="Trazado_106764" data-name="Trazado 106764" d="M159,420.674a5.926,5.926,0,0,0-3.043.836,6.382,6.382,0,0,0-12.686,1.418,4.874,4.874,0,1,0-.9,9.663H159a5.958,5.958,0,1,0,0-11.917Z" transform="translate(-131.05 -389.087)" fill="#4dd0e1"/>
    </g>
    <g id="Grupo_99692" data-name="Grupo 99692" transform="translate(68.232 249.933)">
      <path id="Trazado_106765" data-name="Trazado 106765" d="M99.459,368.771a6.281,6.281,0,0,1,.085-2.68,26.547,26.547,0,0,0-.3-14.435c-3.19-9.96-16.119-18.782-16.119-18.782s3.509,14.7,6.395,20.957a78.832,78.832,0,0,0,7.857,12.542,6.128,6.128,0,0,1,1.128,2.575,107.224,107.224,0,0,1,1.782,20.659l.97.038A108.236,108.236,0,0,0,99.459,368.771Z" transform="translate(-78.771 -332.874)" fill="#f5e8c1"/>
      <path id="Trazado_106766" data-name="Trazado 106766" d="M117.962,363.515a116.372,116.372,0,0,0,3.762-17.684S110.133,355.4,109.183,362.8a24.838,24.838,0,0,0,.79,10.308,7.051,7.051,0,0,1,.273,2.8,98.12,98.12,0,0,0-.239,19.366l.872-.1a96.643,96.643,0,0,1,.138-18.181,7.233,7.233,0,0,1,1.6-3.841A30.36,30.36,0,0,0,117.962,363.515Z" transform="translate(-86.966 -336.983)" fill="#ffca28"/>
      <path id="Trazado_106767" data-name="Trazado 106767" d="M130.57,345.278s-12.492,4.636-15.758,14.835a27.209,27.209,0,0,0-.272,14.917,5.125,5.125,0,0,1,0,2.542,114.452,114.452,0,0,0-2.971,24.048h.994a113.669,113.669,0,0,1,2.872-23.529,8.822,8.822,0,0,1,1.481-3.163,79.739,79.739,0,0,0,7.855-12.587C127.724,355.931,130.57,345.278,130.57,345.278Z" transform="translate(-87.79 -336.807)" fill="#f5e8c1"/>
      <path id="Trazado_106768" data-name="Trazado 106768" d="M97.489,391.609A34.645,34.645,0,0,0,94.6,380.271a3.871,3.871,0,0,1-.291-2.051,18.744,18.744,0,0,0-.292-6.1c-1.014-5-7.656-15.815-17.273-16.448a69.971,69.971,0,0,1,5.025,9.8c2.16,5.646,5.244,11.553,10.357,13.82a3.843,3.843,0,0,1,1.978,2.054,33.516,33.516,0,0,1,2.5,10.326Z" transform="translate(-76.749 -340.104)" fill="#ffca28"/>
      <g id="Grupo_99691" data-name="Grupo 99691" transform="translate(10.096 46.118)">
        <g id="Grupo_99690" data-name="Grupo 99690">
          <path id="Trazado_106769" data-name="Trazado 106769" d="M95.675,427.693h15.869l4.118-25.162a1.83,1.83,0,0,0-1.806-2.125H93.363a1.83,1.83,0,0,0-1.806,2.125Z" transform="translate(-91.533 -400.406)" fill="#ffca28"/>
        </g>
      </g>
    </g>
    <line id="Línea_195" data-name="Línea 195" x2="444.036" transform="translate(49.89 323.338)" fill="none" stroke="#ffca28" stroke-linecap="round" stroke-miterlimit="10" stroke-width="1.114"/>
  </g>
</svg>
