<svg xmlns="http://www.w3.org/2000/svg" xmlns:xlink="http://www.w3.org/1999/xlink" width="382.838" height="271.006" viewBox="0 0 382.838 271.006">
  <defs>
    <linearGradient id="linear-gradient" y1="0.5" x2="1" y2="0.5" gradientUnits="objectBoundingBox">
      <stop offset="0.494" stop-color="#ebeff2"/>
      <stop offset="1" stop-color="#fff"/>
    </linearGradient>
  </defs>
  <g id="Grupo_92538" data-name="Grupo 92538" transform="translate(-404.649 -516.18)">
    <path id="Trazado_106240" data-name="Trazado 106240" d="M626.409,581.3s-82.033,4.98-80.012,51.358c.579,13.3-2.732,26.6-12.485,36.525-6.123,6.229-14.3,10.768-18.6,18.508-8.5,15.3-2.9,34.011,1.784,49.352,4.661,15.249,7.707,31.281,16.8,44.854a81.272,81.272,0,0,0,19.038,20.026c10.206,7.427,23.312,10.6,36.031,10.79,73.039,1.116,153.719-4.036,161.888-95.853S704.686,569.349,626.409,581.3Z" transform="translate(35.822 -25.646)" fill="#a0ebf5"/>
    <g id="Grupo_92528" data-name="Grupo 92528" transform="translate(404.649 623.12)">
      <g id="Grupo_92527" data-name="Grupo 92527" transform="translate(0 0)">
        <path id="Trazado_106241" data-name="Trazado 106241" d="M911.71,2943.933l-259.136-2.24v6.628a3.52,3.52,0,0,0,2.661,3.6l73.276,13.051a10.152,10.152,0,0,0,2.629.122l177.754-14.88a3.353,3.353,0,0,0,2.816-3.515Z" transform="translate(-646.302 -2812.095)" fill="#bfc8d6"/>
        <g id="Grupo_92526" data-name="Grupo 92526">
          <path id="Trazado_106242" data-name="Trazado 106242" d="M758.307,1733.986l-164.7,12.125a4.992,4.992,0,0,1-5.344-5.15V1618.312a5.449,5.449,0,0,1,5.344-5.543h164.7c2.428,0,4.391,2.244,4.391,5.011v110.872C762.7,1731.419,760.735,1733.807,758.307,1733.986Z" transform="translate(-588.262 -1612.769)" fill="#bfc8d6"/>
          <path id="Trazado_106243" data-name="Trazado 106243" d="M785.236,1733.986l-164.7,12.125a4.992,4.992,0,0,1-5.344-5.15V1618.312a5.449,5.449,0,0,1,5.344-5.543h164.7c2.428,0,4.391,2.244,4.391,5.011v110.872C789.627,1731.419,787.664,1733.807,785.236,1733.986Z" transform="translate(-612.565 -1612.769)" fill="#fff"/>
          <path id="Trazado_106244" data-name="Trazado 106244" d="M846.407,1792.068,693,1802.6a4.092,4.092,0,0,1-4.347-4.227V1690.994A4.464,4.464,0,0,1,693,1686.45l153.4-.661a3.875,3.875,0,0,1,3.623,4.106v97.8A4.234,4.234,0,0,1,846.407,1792.068Z" transform="translate(-678.866 -1678.668)" fill="#d8dee8"/>
          <path id="Trazado_106245" data-name="Trazado 106245" d="M1538.969,1628.085a1.9,1.9,0,1,1-1.895-2.062A1.992,1.992,0,0,1,1538.969,1628.085Z" transform="translate(-1442.832 -1624.73)" fill="#fff"/>
          <path id="Trazado_106246" data-name="Trazado 106246" d="M620.534,1746.111,784.4,1734.047l.834-.061a4.421,4.421,0,0,0,2.9-1.468c-11.792-.645-19.116-4.83-23.841-9.154-9.488-8.684-7.843-17.247-18.075-22.956-12.762-7.121-22.8,1.9-32.481-7-5.871-5.4-2.989-9.423-10.213-17.489-8-8.934-13.211-5.931-21.253-13.971-10.168-10.167-5.082-18.076-13.841-25.376-10.625-8.855-22.084-.659-32.2-9.151-4.362-3.663-6.756-8.988-8.006-14.651h-7.7a5.449,5.449,0,0,0-5.344,5.543v122.649A4.992,4.992,0,0,0,620.534,1746.111Z" transform="translate(-612.565 -1612.769)" fill="#fff" opacity="0.48" style="mix-blend-mode: soft-light;isolation: isolate"/>
        </g>
        <path id="Trazado_106247" data-name="Trazado 106247" d="M826.734,2848.527l-174.16,12.762,75.937,13.525a10.152,10.152,0,0,0,2.629.122l180.57-15.116L829.5,2848.614A13.277,13.277,0,0,0,826.734,2848.527Z" transform="translate(-646.302 -2727.983)" fill="url(#linear-gradient)"/>
        <path id="Trazado_106248" data-name="Trazado 106248" d="M913.16,2881.057l144.993-10.783,44.874,6.068-143.744,11.527Z" transform="translate(-881.475 -2747.641)" fill="#d8dee8"/>
      </g>
      <path id="Trazado_106249" data-name="Trazado 106249" d="M1147.723,1883.142l.726,3.72a29.452,29.452,0,0,0-4.619,2.308l-2.481-2.849a1.861,1.861,0,0,0-2.638-.163l-4.884,4.3a1.9,1.9,0,0,0-.192,2.66l2.5,2.889a30.4,30.4,0,0,0-2.87,4.315l-3.625-1.233a1.892,1.892,0,0,0-2.388,1.192l-2.139,6.208a1.884,1.884,0,0,0,1.152,2.407l3.637,1.243a30.2,30.2,0,0,0-.364,5.194l-3.806.776a1.936,1.936,0,0,0-1.5,2.25l1.209,6.484a1.866,1.866,0,0,0,2.206,1.5l3.817-.779a29.913,29.913,0,0,0,2.235,4.709l-2.935,2.609a1.958,1.958,0,0,0-.2,2.723l4.28,5.015a1.869,1.869,0,0,0,2.677.176l2.935-2.616a29.779,29.779,0,0,0,4.3,2.943l-1.263,3.753a1.944,1.944,0,0,0,1.18,2.464l6.221,2.156a1.9,1.9,0,0,0,2.419-1.22l1.243-3.724a29.179,29.179,0,0,0,5.219.347l.753,3.855a1.91,1.91,0,0,0,2.245,1.53l6.463-1.318a1.942,1.942,0,0,0,1.492-2.292l-.758-3.822a29.443,29.443,0,0,0,4.717-2.353l2.518,2.906a1.884,1.884,0,0,0,2.694.177l4.926-4.429a1.96,1.96,0,0,0,.157-2.736l-2.509-2.881a30.406,30.406,0,0,0,2.9-4.446l3.573,1.221a1.884,1.884,0,0,0,2.4-1.212l2.053-6.307a1.942,1.942,0,0,0-1.211-2.436l-3.539-1.2a30.238,30.238,0,0,0,.292-5.31l3.65-.744a1.9,1.9,0,0,0,1.467-2.253l-1.337-6.458a1.9,1.9,0,0,0-2.236-1.488l-3.639.742a29.919,29.919,0,0,0-2.345-4.726l2.764-2.464a1.9,1.9,0,0,0,.153-2.673l-4.322-4.89a1.877,1.877,0,0,0-2.654-.164l-2.782,2.472a29.777,29.777,0,0,0-4.343-2.877l1.181-3.54a1.881,1.881,0,0,0-1.183-2.38l-6.135-2.057a1.877,1.877,0,0,0-2.373,1.184l-1.194,3.548a29.161,29.161,0,0,0-5.159-.294l-.731-3.688a1.86,1.86,0,0,0-2.2-1.463l-6.335,1.292A1.892,1.892,0,0,0,1147.723,1883.142Zm-7.228,35.268a19.355,19.355,0,0,1,15.005-22.634,19.034,19.034,0,0,1,22.411,15,19.346,19.346,0,0,1-14.964,22.841A19.027,19.027,0,0,1,1140.494,1918.41Z" transform="translate(-1071.937 -1853.578)" fill="#bfc8d6"/>
    </g>
    <g id="Grupo_92537" data-name="Grupo 92537" transform="translate(602.932 516.18)">
      <g id="Grupo_92531" data-name="Grupo 92531" transform="translate(0 0)">
        <path id="Trazado_106250" data-name="Trazado 106250" d="M1629.543,519.757l-135.233-3.573c-6.447-.17-11.7,4.631-11.7,10.725V719.566c0,6.094,5.25,10.736,11.7,10.37l135.233-7.668a11.12,11.12,0,0,0,10.406-10.952V530.394A10.715,10.715,0,0,0,1629.543,519.757Z" transform="translate(-1482.614 -516.18)" fill="#1565c0"/>
        <path id="Trazado_106251" data-name="Trazado 106251" d="M1528.979,758.9a7.253,7.253,0,0,1-7.95-7.06V559.465a7.518,7.518,0,0,1,7.95-7.3l135.233,3.389a7.3,7.3,0,0,1,7.093,7.241V743.963a7.578,7.578,0,0,1-7.093,7.455Z" transform="translate(-1517.283 -548.653)" fill="#039be5" style="mix-blend-mode: soft-light;isolation: isolate"/>
        <path id="Trazado_106252" data-name="Trazado 106252" d="M1629.543,519.757l-135.233-3.573c-6.446-.17-11.7,4.631-11.7,10.725v7.915l157.336,3v-7.433A10.715,10.715,0,0,0,1629.543,519.757Z" transform="translate(-1482.614 -516.18)" fill="#111e61"/>
        <path id="Trazado_106253" data-name="Trazado 106253" d="M1625.567,586.047a3.6,3.6,0,0,1-3.789,3.5,3.8,3.8,0,0,1-3.8-3.673,3.6,3.6,0,0,1,3.8-3.5A3.8,3.8,0,0,1,1625.567,586.047Z" transform="translate(-1604.776 -575.918)" fill="#fff"/>
        <path id="Trazado_106254" data-name="Trazado 106254" d="M1761.86,589.286a3.568,3.568,0,0,1-3.75,3.484,3.768,3.768,0,0,1-3.761-3.654,3.568,3.568,0,0,1,3.761-3.484A3.768,3.768,0,0,1,1761.86,589.286Z" transform="translate(-1727.848 -578.858)" fill="#fff"/>
        <path id="Trazado_106255" data-name="Trazado 106255" d="M1896.75,592.492a3.54,3.54,0,0,1-3.712,3.467,3.738,3.738,0,0,1-3.723-3.635,3.54,3.54,0,0,1,3.723-3.467A3.738,3.738,0,0,1,1896.75,592.492Z" transform="translate(-1849.653 -581.769)" fill="#fff"/>
        <path id="Trazado_106256" data-name="Trazado 106256" d="M1753.964,1157.558l-131.556,4.943V1050.077l131.556.813Z" transform="translate(-1608.775 -998.011)" fill="#fff"/>
        <path id="Trazado_106257" data-name="Trazado 106257" d="M1753.964,2231.265l-131.556,5.618v-5.607l131.556-5.331Z" transform="translate(-1608.775 -2059.207)" fill="#fff" opacity="0.42"/>
        <path id="Trazado_106258" data-name="Trazado 106258" d="M1753.964,2365.093l-131.556,6.323v-5.607l131.556-6.035Z" transform="translate(-1608.775 -2179.984)" fill="#fff" opacity="0.42"/>
        <g id="Grupo_92529" data-name="Grupo 92529" transform="translate(13.633 38.88)" opacity="0.42">
          <path id="Trazado_106259" data-name="Trazado 106259" d="M1723.623,916.012l-101.214-1.145v5.607l101.214.924Z" transform="translate(-1622.409 -914.867)" fill="#fff"/>
          <path id="Trazado_106260" data-name="Trazado 106260" d="M2857.245,928.835v5.344l11.133.1v-5.32Z" transform="translate(-2736.822 -927.473)" fill="#fff"/>
        </g>
      </g>
      <g id="Grupo_92536" data-name="Grupo 92536" transform="translate(20.949 58.512)">
        <path id="Trazado_106262" data-name="Trazado 106262" d="M2080.08,1116.326l-41.011-.153a6.714,6.714,0,0,0-6.869,6.58v11.18a6.7,6.7,0,0,0,6.869,6.565l41.011-.242a6.583,6.583,0,0,0,6.612-6.5v-10.939A6.565,6.565,0,0,0,2080.08,1116.326Z" transform="translate(-1999.553 -1116.172)" fill="#ffca28"/>
        <g id="Grupo_92532" data-name="Grupo 92532" transform="translate(0 40.173)">
          <path id="Trazado_106263" data-name="Trazado 106263" d="M1730.537,1538.566l-29.462.37a3.608,3.608,0,0,0-3.643,3.5v12.757a3.468,3.468,0,0,0,3.643,3.381l29.462-.6a3.566,3.566,0,0,0,3.55-3.477v-12.575A3.427,3.427,0,0,0,1730.537,1538.566Z" transform="translate(-1697.431 -1537.547)" fill="#ffca28"/>
          <path id="Trazado_106264" data-name="Trazado 106264" d="M2163.545,1533.254l-28.5.358a3.517,3.517,0,0,0-3.524,3.442V1549.6a3.38,3.38,0,0,0,3.524,3.326l28.5-.577a3.477,3.477,0,0,0,3.435-3.419v-12.37A3.342,3.342,0,0,0,2163.545,1533.254Z" transform="translate(-2089.185 -1532.753)" fill="#ffca28"/>
          <path id="Trazado_106265" data-name="Trazado 106265" d="M2582.5,1528.113l-27.591.346a3.429,3.429,0,0,0-3.411,3.385v12.343a3.3,3.3,0,0,0,3.411,3.273l27.591-.558a3.393,3.393,0,0,0,3.326-3.363v-12.172A3.261,3.261,0,0,0,2582.5,1528.113Z" transform="translate(-2468.206 -1528.112)" fill="#ffca28"/>
        </g>
        <g id="Grupo_92533" data-name="Grupo 92533" transform="translate(17.794 25.677)">
          <path id="Trazado_106266" data-name="Trazado 106266" d="M2309.314,1393.256l-1.287.015v-13.314l1.287-.008Z" transform="translate(-2266.275 -1379.901)" fill="#ffca28"/>
          <path id="Trazado_106267" data-name="Trazado 106267" d="M1881.228,1394.187l-1.33.016v-3.428a3.471,3.471,0,0,1,3.5-3.378l28.844-.264a2.112,2.112,0,0,0,2.122-2.068v-4.622l1.295-.008v4.62a3.4,3.4,0,0,1-3.416,3.332l-28.844.279a2.154,2.154,0,0,0-2.174,2.1Z" transform="translate(-1879.898 -1380.34)" fill="#ffca28"/>
          <path id="Trazado_106268" data-name="Trazado 106268" d="M2416.667,1392.343l-1.246.015v-3.317a2,2,0,0,0-2.042-1.99l-27.751.268a3.293,3.293,0,0,1-3.371-3.249v-4.6l1.28-.008v4.593a2.044,2.044,0,0,0,2.092,2.017l27.751-.255a3.23,3.23,0,0,1,3.288,3.206Z" transform="translate(-2333.267 -1379.466)" fill="#ffca28"/>
        </g>
        <g id="Grupo_92534" data-name="Grupo 92534" transform="translate(0 75.929)">
          <path id="Trazado_106269" data-name="Trazado 106269" d="M1730.537,1917.381l-29.462.8a3.673,3.673,0,0,0-3.643,3.553v12.757a3.409,3.409,0,0,0,3.643,3.328l29.462-1.026a3.63,3.63,0,0,0,3.55-3.529V1920.69A3.368,3.368,0,0,0,1730.537,1917.381Z" transform="translate(-1697.431 -1915.175)" fill="#ffca28"/>
          <path id="Trazado_106270" data-name="Trazado 106270" d="M2163.545,1905.89l-28.5.774a3.58,3.58,0,0,0-3.524,3.493V1922.7a3.322,3.322,0,0,0,3.524,3.275l28.5-.993a3.539,3.539,0,0,0,3.435-3.469v-12.37A3.284,3.284,0,0,0,2163.545,1905.89Z" transform="translate(-2089.185 -1904.804)" fill="#ffca28"/>
          <path id="Trazado_106271" data-name="Trazado 106271" d="M2582.5,1894.767l-27.591.75a3.491,3.491,0,0,0-3.411,3.435v12.343a3.24,3.24,0,0,0,3.411,3.223l27.591-.961a3.453,3.453,0,0,0,3.326-3.412v-12.172A3.2,3.2,0,0,0,2582.5,1894.767Z" transform="translate(-2468.206 -1894.766)" fill="#ffca28"/>
        </g>
        <g id="Grupo_92535" data-name="Grupo 92535" transform="translate(17.794 62.109)">
          <path id="Trazado_106272" data-name="Trazado 106272" d="M2309.314,1767.927l-1.287.034v-13.314l1.287-.027Z" transform="translate(-2266.275 -1754.467)" fill="#ffca28"/>
          <path id="Trazado_106273" data-name="Trazado 106273" d="M1881.228,1770.451l-1.33.035v-3.427a3.533,3.533,0,0,1,3.5-3.429l28.844-.686a2.149,2.149,0,0,0,2.122-2.1v-4.622l1.295-.027v4.62a3.463,3.463,0,0,1-3.416,3.382l-28.844.7a2.193,2.193,0,0,0-2.174,2.129Z" transform="translate(-1879.898 -1755.889)" fill="#ffca28"/>
          <path id="Trazado_106274" data-name="Trazado 106274" d="M2416.667,1765.447l-1.246.033v-3.317a1.97,1.97,0,0,0-2.042-1.96l-27.751.674a3.236,3.236,0,0,1-3.371-3.2v-4.6l1.28-.027v4.593a2.009,2.009,0,0,0,2.092,1.986l27.751-.66a3.174,3.174,0,0,1,3.288,3.158Z" transform="translate(-2333.267 -1753.054)" fill="#ffca28"/>
        </g>
      </g>
    </g>
  </g>
</svg>
