<svg xmlns="http://www.w3.org/2000/svg" width="85" height="85" viewBox="0 0 85 85">
  <g id="Grupo_92551" data-name="Grupo 92551" transform="translate(-284 -1406)">
    <g id="Elipse_1699" data-name="Elipse 1699" transform="translate(284 1406)" fill="#4dd0e1" stroke="#fff" stroke-width="2">
      <circle cx="42.5" cy="42.5" r="42.5" stroke="none"/>
      <circle cx="42.5" cy="42.5" r="41.5" fill="none"/>
    </g>
    <g id="permiso" transform="translate(309.309 1425.363)">
      <path id="Trazado_106275" data-name="Trazado 106275" d="M37.306,8H9.542A1.547,1.547,0,0,0,8,9.542V51.188A1.547,1.547,0,0,0,9.542,52.73H32.679l6.17-6.17V9.542A1.547,1.547,0,0,0,37.306,8Zm0,0" transform="translate(-7.229 -7.229)" fill="#dbfbff"/>
      <path id="Trazado_106276" data-name="Trazado 106276" d="M265.542,408A1.547,1.547,0,0,0,264,409.542v4.627l6.17-6.17Zm0,0" transform="translate(-238.55 -368.668)" fill="#ffca28"/>
      <path id="Trazado_106277" data-name="Trazado 106277" d="M255.424,144.967H250.8l-2.314,2.314-2.314-2.314h-4.627A1.547,1.547,0,0,1,240,143.424V129.542A1.547,1.547,0,0,1,241.542,128h13.882a1.547,1.547,0,0,1,1.542,1.542v13.882A1.547,1.547,0,0,1,255.424,144.967Zm0,0" transform="translate(-216.864 -115.661)" fill="#ffca28"/>
      <g id="Grupo_92540" data-name="Grupo 92540" transform="translate(3.856 3.856)">
        <path id="Trazado_106278" data-name="Trazado 106278" d="M120,40h9.254v1.542H120Zm0,0" transform="translate(-112.288 -40)" fill="#ceb195"/>
        <path id="Trazado_106279" data-name="Trazado 106279" d="M40,80h2.314v1.542H40Zm0,0" transform="translate(-40 -76.144)" fill="#ceb195"/>
        <path id="Trazado_106280" data-name="Trazado 106280" d="M80,80h20.823v1.542H80Zm0,0" transform="translate(-76.144 -76.144)" fill="#ceb195"/>
        <path id="Trazado_106281" data-name="Trazado 106281" d="M40,128h2.314v1.542H40Zm0,0" transform="translate(-40 -119.517)" fill="#ceb195"/>
        <path id="Trazado_106282" data-name="Trazado 106282" d="M80,128H92.339v1.542H80Zm0,0" transform="translate(-76.144 -119.517)" fill="#ceb195"/>
        <path id="Trazado_106283" data-name="Trazado 106283" d="M40,176h2.314v1.542H40Zm0,0" transform="translate(-40 -162.889)" fill="#ceb195"/>
        <path id="Trazado_106284" data-name="Trazado 106284" d="M80,176H92.339v1.542H80Zm0,0" transform="translate(-76.144 -162.889)" fill="#ceb195"/>
        <path id="Trazado_106285" data-name="Trazado 106285" d="M40,224h2.314v1.542H40Zm0,0" transform="translate(-40 -206.262)" fill="#ceb195"/>
        <path id="Trazado_106286" data-name="Trazado 106286" d="M80,224H92.339v1.542H80Zm0,0" transform="translate(-76.144 -206.262)" fill="#ceb195"/>
        <path id="Trazado_106287" data-name="Trazado 106287" d="M40,272h2.314v1.542H40Zm0,0" transform="translate(-40 -249.635)" fill="#ceb195"/>
        <path id="Trazado_106288" data-name="Trazado 106288" d="M80,272H92.339v1.542H80Zm0,0" transform="translate(-76.144 -249.635)" fill="#ceb195"/>
        <path id="Trazado_106289" data-name="Trazado 106289" d="M40,320h2.314v1.542H40Zm0,0" transform="translate(-40 -293.008)" fill="#ceb195"/>
        <path id="Trazado_106290" data-name="Trazado 106290" d="M80,320H92.339v1.542H80Zm0,0" transform="translate(-76.144 -293.008)" fill="#ceb195"/>
        <path id="Trazado_106291" data-name="Trazado 106291" d="M40,368h2.314v1.542H40Zm0,0" transform="translate(-40 -336.38)" fill="#ceb195"/>
        <path id="Trazado_106292" data-name="Trazado 106292" d="M80,368h20.823v1.542H80Zm0,0" transform="translate(-76.144 -336.38)" fill="#ceb195"/>
        <path id="Trazado_106293" data-name="Trazado 106293" d="M40,416h2.314v1.542H40Zm0,0" transform="translate(-40 -379.753)" fill="#ceb195"/>
        <path id="Trazado_106294" data-name="Trazado 106294" d="M80,416H94.653v1.542H80Zm0,0" transform="translate(-76.144 -379.753)" fill="#ceb195"/>
      </g>
      <path id="Trazado_106295" data-name="Trazado 106295" d="M302.17,158.17h-1.542v-3.085a1.542,1.542,0,1,0-3.085,0H296a3.085,3.085,0,0,1,6.17,0Zm0,0" transform="translate(-267.465 -137.347)" fill="#3a6289"/>
      <path id="Trazado_106296" data-name="Trazado 106296" d="M289.542,208h4.627a1.547,1.547,0,0,1,1.542,1.542v3.085a1.547,1.547,0,0,1-1.542,1.542h-4.627A1.547,1.547,0,0,1,288,212.627v-3.085A1.547,1.547,0,0,1,289.542,208Zm0,0" transform="translate(-260.237 -187.949)" fill="#ffca28"/>
      <path id="Trazado_106297" data-name="Trazado 106297" d="M38.56,11.568h-6.17V2.314A2.272,2.272,0,0,0,30.077,0H2.314A2.272,2.272,0,0,0,0,2.314V43.959a2.272,2.272,0,0,0,2.314,2.314H25.758l6.632-6.632V34.7H30.848V38.56H26.992a2.272,2.272,0,0,0-2.314,2.314V44.73H2.314a.729.729,0,0,1-.771-.771V2.314a.729.729,0,0,1,.771-.771H30.077a.729.729,0,0,1,.771.771v9.254h-6.17a2.272,2.272,0,0,0-2.314,2.314V27.763a2.272,2.272,0,0,0,2.314,2.314H29L31.62,32.7l2.622-2.622H38.56a2.272,2.272,0,0,0,2.314-2.314V13.882A2.272,2.272,0,0,0,38.56,11.568ZM26.992,40.1h2.776L26.221,43.65V40.874A.729.729,0,0,1,26.992,40.1ZM39.332,27.763a.729.729,0,0,1-.771.771H33.625L31.62,30.54l-2.005-2.005H24.679a.729.729,0,0,1-.771-.771V13.882a.729.729,0,0,1,.771-.771H38.56a.729.729,0,0,1,.771.771Zm0,0"/>
      <path id="Trazado_106298" data-name="Trazado 106298" d="M120,40h9.254v1.542H120Zm0,0" transform="translate(-108.432 -36.144)"/>
      <path id="Trazado_106299" data-name="Trazado 106299" d="M40,80h2.314v1.542H40Zm0,0" transform="translate(-36.144 -72.288)"/>
      <path id="Trazado_106300" data-name="Trazado 106300" d="M80,80h20.823v1.542H80Zm0,0" transform="translate(-72.288 -72.288)"/>
      <path id="Trazado_106301" data-name="Trazado 106301" d="M40,128h2.314v1.542H40Zm0,0" transform="translate(-36.144 -115.661)"/>
      <path id="Trazado_106302" data-name="Trazado 106302" d="M80,128H92.339v1.542H80Zm0,0" transform="translate(-72.288 -115.661)"/>
      <path id="Trazado_106303" data-name="Trazado 106303" d="M40,176h2.314v1.542H40Zm0,0" transform="translate(-36.144 -159.033)"/>
      <path id="Trazado_106304" data-name="Trazado 106304" d="M80,176H92.339v1.542H80Zm0,0" transform="translate(-72.288 -159.033)"/>
      <path id="Trazado_106305" data-name="Trazado 106305" d="M40,224h2.314v1.542H40Zm0,0" transform="translate(-36.144 -202.406)"/>
      <path id="Trazado_106306" data-name="Trazado 106306" d="M80,224H92.339v1.542H80Zm0,0" transform="translate(-72.288 -202.406)"/>
      <path id="Trazado_106307" data-name="Trazado 106307" d="M40,272h2.314v1.542H40Zm0,0" transform="translate(-36.144 -245.779)"/>
      <path id="Trazado_106308" data-name="Trazado 106308" d="M80,272H92.339v1.542H80Zm0,0" transform="translate(-72.288 -245.779)"/>
      <path id="Trazado_106309" data-name="Trazado 106309" d="M40,320h2.314v1.542H40Zm0,0" transform="translate(-36.144 -289.152)"/>
      <path id="Trazado_106310" data-name="Trazado 106310" d="M80,320H92.339v1.542H80Zm0,0" transform="translate(-72.288 -289.152)"/>
      <path id="Trazado_106311" data-name="Trazado 106311" d="M40,368h2.314v1.542H40Zm0,0" transform="translate(-36.144 -332.524)"/>
      <path id="Trazado_106312" data-name="Trazado 106312" d="M80,368h20.823v1.542H80Zm0,0" transform="translate(-72.288 -332.524)"/>
      <path id="Trazado_106313" data-name="Trazado 106313" d="M40,416h2.314v1.542H40Zm0,0" transform="translate(-36.144 -375.897)"/>
      <path id="Trazado_106314" data-name="Trazado 106314" d="M80,416H94.653v1.542H80Zm0,0" transform="translate(-72.288 -375.897)"/>
      <path id="Trazado_106315" data-name="Trazado 106315" d="M287.712,156.782v-1.7a3.085,3.085,0,1,0-6.17,0h1.542a1.542,1.542,0,0,1,3.085,0v1.542h-3.856A2.272,2.272,0,0,0,280,158.941v3.085a2.272,2.272,0,0,0,2.314,2.314h4.627a2.272,2.272,0,0,0,2.314-2.314v-3.085A2.246,2.246,0,0,0,287.712,156.782Zm0,5.244a.729.729,0,0,1-.771.771h-4.627a.729.729,0,0,1-.771-.771v-3.085a.729.729,0,0,1,.771-.771h4.627a.729.729,0,0,1,.771.771Zm0,0" transform="translate(-253.008 -137.347)"/>
    </g>
  </g>
</svg>
