<svg xmlns="http://www.w3.org/2000/svg" width="85" height="85" viewBox="0 0 85 85">
  <g id="Grupo_92552" data-name="Grupo 92552" transform="translate(-800 -1406)">
    <g id="Elipse_1700" data-name="Elipse 1700" transform="translate(800 1406)" fill="#ffca28" stroke="#fff" stroke-width="2">
      <circle cx="42.5" cy="42.5" r="42.5" stroke="none"/>
      <circle cx="42.5" cy="42.5" r="41.5" fill="none"/>
    </g>
    <g id="app" transform="translate(742.544 1422.75)">
      <path id="Trazado_106371" data-name="Trazado 106371" d="M121.105,54.946H92.367a1.338,1.338,0,0,1-1.338-1.338V8.838A1.338,1.338,0,0,1,92.367,7.5h28.738a1.338,1.338,0,0,1,1.338,1.338v44.77A1.338,1.338,0,0,1,121.105,54.946Z" transform="translate(-6.78 -6.78)" fill="#fff3ef"/>
      <path id="Trazado_106372" data-name="Trazado 106372" d="M377.312,7.5h-2.879a1.338,1.338,0,0,1,1.338,1.338v44.77a1.338,1.338,0,0,1-1.338,1.338h2.879a1.338,1.338,0,0,0,1.338-1.338V8.838A1.338,1.338,0,0,0,377.312,7.5Z" transform="translate(-262.987 -6.78)" fill="#d9e7ec"/>
      <path id="Trazado_106373" data-name="Trazado 106373" d="M122.443,16.719V8.838A1.338,1.338,0,0,0,121.105,7.5H92.367a1.338,1.338,0,0,0-1.338,1.338v7.881h31.414Z" transform="translate(-6.78 -6.78)" fill="#4dd0e1"/>
      <path id="Trazado_106374" data-name="Trazado 106374" d="M377.312,7.5h-2.879a1.338,1.338,0,0,1,1.338,1.338v7.881h2.879V8.838A1.338,1.338,0,0,0,377.312,7.5Z" transform="translate(-262.987 -6.78)" fill="#039be5"/>
      <circle id="Elipse_1701" data-name="Elipse 1701" cx="1.516" cy="1.516" r="1.516" transform="translate(86.379 5.33) rotate(-45)" fill="#05e39c"/>
      <circle id="Elipse_1702" data-name="Elipse 1702" cx="1.516" cy="1.516" r="1.516" transform="translate(91.848 4.522) rotate(-22.717)" fill="#80d261"/>
      <circle id="Elipse_1703" data-name="Elipse 1703" cx="1.516" cy="1.516" r="1.516" transform="translate(91.848 4.522) rotate(-22.717)" fill="#fedf30"/>
      <circle id="Elipse_1704" data-name="Elipse 1704" cx="1.516" cy="1.516" r="1.516" transform="translate(97.161 4.524) rotate(-22.717)" fill="#fee45a"/>
      <circle id="Elipse_1705" data-name="Elipse 1705" cx="1.516" cy="1.516" r="1.516" transform="translate(97.161 4.524) rotate(-22.717)" fill="#fe7d43"/>
      <path id="Trazado_106375" data-name="Trazado 106375" d="M165.338,159.838h-18.3a1.308,1.308,0,0,1-1.308-1.308v-3.745a1.308,1.308,0,0,1,1.308-1.308h18.3a1.308,1.308,0,0,1,1.308,1.308v3.745A1.308,1.308,0,0,1,165.338,159.838Z" transform="translate(-56.233 -138.749)" fill="#4dd0e1"/>
      <path id="Trazado_106376" data-name="Trazado 106376" d="M322.925,153.478h-2.879a1.308,1.308,0,0,1,1.308,1.308v3.744a1.308,1.308,0,0,1-1.308,1.308h2.879a1.308,1.308,0,0,0,1.308-1.308v-3.744A1.308,1.308,0,0,0,322.925,153.478Z" transform="translate(-213.819 -138.749)" fill="#26a6fe"/>
      <path id="Trazado_106377" data-name="Trazado 106377" d="M165.338,270.05h-18.3a1.308,1.308,0,0,1-1.308-1.308V265a1.308,1.308,0,0,1,1.308-1.308h18.3A1.308,1.308,0,0,1,166.646,265v3.744A1.308,1.308,0,0,1,165.338,270.05Z" transform="translate(-56.233 -238.385)" fill="#4dd0e1"/>
      <path id="Trazado_106378" data-name="Trazado 106378" d="M322.925,263.689h-2.879A1.308,1.308,0,0,1,321.354,265v3.744a1.308,1.308,0,0,1-1.308,1.308h2.879a1.308,1.308,0,0,0,1.308-1.308V265A1.308,1.308,0,0,0,322.925,263.689Z" transform="translate(-213.819 -238.384)" fill="#26a6fe"/>
      <path id="Trazado_106379" data-name="Trazado 106379" d="M186.929,388.689H174.7a1.729,1.729,0,0,1-1.729-1.729v-2.472a1.729,1.729,0,0,1,1.729-1.729h12.228a1.729,1.729,0,0,1,1.729,1.729v2.472A1.729,1.729,0,0,1,186.929,388.689Z" transform="translate(-80.859 -346.027)" fill="#ffa726"/>
      <path id="Trazado_106380" data-name="Trazado 106380" d="M291.292,382.758h-2.879a1.729,1.729,0,0,1,1.729,1.729v2.472a1.729,1.729,0,0,1-1.729,1.729h2.879a1.729,1.729,0,0,0,1.729-1.729v-2.472A1.729,1.729,0,0,0,291.292,382.758Z" transform="translate(-185.222 -346.026)" fill="#ffca28"/>
      <path id="Trazado_106381" data-name="Trazado 106381" d="M169.9,32.237a2.236,2.236,0,1,0,2.236,2.236A2.238,2.238,0,0,0,169.9,32.237Zm0,3.032a.8.8,0,1,1,.8-.8A.8.8,0,0,1,169.9,35.269Z" transform="translate(-76.063 -29.143)"/>
      <path id="Trazado_106382" data-name="Trazado 106382" d="M225.279,36.709a2.236,2.236,0,1,0-2.236-2.236A2.238,2.238,0,0,0,225.279,36.709Zm0-3.032a.8.8,0,1,1-.8.8A.8.8,0,0,1,225.279,33.677Z" transform="translate(-126.125 -29.144)"/>
      <path id="Trazado_106383" data-name="Trazado 106383" d="M114.325,0H85.587a2.06,2.06,0,0,0-2.058,2.058v44.77a2.06,2.06,0,0,0,2.058,2.058h28.738a2.06,2.06,0,0,0,2.058-2.058V2.058A2.06,2.06,0,0,0,114.325,0Zm0,47.446H85.587a.619.619,0,0,1-.618-.618V10.659H95.355a.72.72,0,0,0,0-1.439H84.969V2.058a.619.619,0,0,1,.618-.618h28.738a.619.619,0,0,1,.618.618V9.219H98.234a.72.72,0,0,0,0,1.439h16.71V46.828A.619.619,0,0,1,114.325,47.446Z"/>
      <path id="Trazado_106384" data-name="Trazado 106384" d="M114.525,32.237a2.236,2.236,0,1,0,2.236,2.236A2.238,2.238,0,0,0,114.525,32.237Zm0,3.032a.8.8,0,1,1,.8-.8A.8.8,0,0,1,114.525,35.269Z" transform="translate(-26 -29.143)"/>
      <path id="Trazado_106385" data-name="Trazado 106385" d="M158.558,145.978h-18.3a2.03,2.03,0,0,0-2.027,2.027v3.745a2.03,2.03,0,0,0,2.027,2.027h18.3a2.03,2.03,0,0,0,2.027-2.027v-3.745A2.03,2.03,0,0,0,158.558,145.978Zm.588,5.772a.589.589,0,0,1-.588.588h-18.3a.589.589,0,0,1-.588-.588v-3.745a.589.589,0,0,1,.588-.588h18.3a.589.589,0,0,1,.588.588Z" transform="translate(-49.452 -131.969)"/>
      <path id="Trazado_106386" data-name="Trazado 106386" d="M158.558,256.189H146.17a.72.72,0,0,0,0,1.439h12.388a.589.589,0,0,1,.588.588v3.744a.589.589,0,0,1-.588.588h-18.3a.589.589,0,0,1-.588-.588v-3.744a.589.589,0,0,1,.588-.588h3.033a.72.72,0,1,0,0-1.439h-3.033a2.03,2.03,0,0,0-2.027,2.027v3.744a2.03,2.03,0,0,0,2.027,2.027h18.3a2.03,2.03,0,0,0,2.027-2.027v-3.744A2.03,2.03,0,0,0,158.558,256.189Z" transform="translate(-49.452 -231.603)"/>
      <path id="Trazado_106387" data-name="Trazado 106387" d="M180.148,375.259H167.92a2.452,2.452,0,0,0-2.449,2.449v2.472a2.452,2.452,0,0,0,2.449,2.449h12.228a2.452,2.452,0,0,0,2.449-2.449v-2.472A2.452,2.452,0,0,0,180.148,375.259Zm-4.293,5.93h-3.642v-4.47c0-.007,0-.013,0-.02h3.644c0,.007,0,.013,0,.02v4.47Zm-8.945-1.009v-2.472a1.011,1.011,0,0,1,1.009-1.009h2.855c0,.007,0,.013,0,.02v4.47H167.92A1.011,1.011,0,0,1,166.911,380.179Zm14.247,0a1.011,1.011,0,0,1-1.009,1.009h-2.854v-4.47c0-.007,0-.013,0-.02h2.855a1.01,1.01,0,0,1,1.009,1.009v2.472Z" transform="translate(-74.078 -339.247)"/>
      <path id="Trazado_106388" data-name="Trazado 106388" d="M191.426,179.115H178.007a.72.72,0,1,0,0,1.44h13.419a.72.72,0,1,0,0-1.44Z" transform="translate(-84.76 -161.926)"/>
      <path id="Trazado_106389" data-name="Trazado 106389" d="M177.287,290.045a.72.72,0,0,0,.72.72h13.419a.72.72,0,1,0,0-1.44H178.007A.72.72,0,0,0,177.287,290.045Z" transform="translate(-84.76 -261.559)"/>
    </g>
  </g>
</svg>
