<svg xmlns="http://www.w3.org/2000/svg" width="85" height="85" viewBox="0 0 85 85">
  <g id="Grupo_92550" data-name="Grupo 92550" transform="translate(-284 -1616)">
    <g id="Elipse_1718" data-name="Elipse 1718" transform="translate(284 1616)" fill="#ffca28" stroke="#fff" stroke-width="2">
      <circle cx="42.5" cy="42.5" r="42.5" stroke="none"/>
      <circle cx="42.5" cy="42.5" r="41.5" fill="none"/>
    </g>
    <g id="Fill_Outlines" data-name="Fill Outlines" transform="translate(300.91 1634.356)">
      <g id="Color" transform="translate(2.788 2.788)">
        <g id="Grupo_92547" data-name="Grupo 92547">
          <g id="Grupo_92544" data-name="Grupo 92544">
            <path id="Trazado_106390" data-name="Trazado 106390" d="M3,3H36.091V6.152H3Z" transform="translate(-3 -3)" fill="#d0d8da"/>
            <path id="Trazado_106391" data-name="Trazado 106391" d="M3,55H36.091v3.152H3Z" transform="translate(-3 -14.03)" fill="#d0d8da"/>
            <g id="Grupo_92541" data-name="Grupo 92541" transform="translate(3.152 22.061)">
              <path id="Trazado_106392" data-name="Trazado 106392" d="M7,47H33.788v6.3H7Z" transform="translate(-7 -34.394)" fill="#d0d8da"/>
              <path id="Trazado_106393" data-name="Trazado 106393" d="M7,39H33.788v6.3H7Z" transform="translate(-7 -32.697)" fill="#d0d8da"/>
              <path id="Trazado_106394" data-name="Trazado 106394" d="M10.152,39H7v6.3H33.788V42.152H13.3A3.152,3.152,0,0,1,10.152,39Z" transform="translate(-7 -32.697)" fill="#93999a"/>
              <path id="Trazado_106395" data-name="Trazado 106395" d="M10.152,47H7v6.3H33.788V50.152H13.3A3.152,3.152,0,0,1,10.152,47Z" transform="translate(-7 -34.394)" fill="#93999a"/>
              <path id="Trazado_106396" data-name="Trazado 106396" d="M7,31H33.788v6.3H7Z" transform="translate(-7 -31)" fill="#d0d8da"/>
              <path id="Trazado_106397" data-name="Trazado 106397" d="M10.152,31H7v6.3H33.788V34.152H13.3A3.152,3.152,0,0,1,10.152,31Z" transform="translate(-7 -31)" fill="#93999a"/>
            </g>
            <g id="Grupo_92542" data-name="Grupo 92542" transform="translate(3.152 3.152)">
              <path id="Trazado_106398" data-name="Trazado 106398" d="M7,23H33.788v6.3H7Z" transform="translate(-7 -10.394)" fill="#d0d8da"/>
              <path id="Trazado_106399" data-name="Trazado 106399" d="M7,15H33.788v6.3H7Z" transform="translate(-7 -8.697)" fill="#d0d8da"/>
              <path id="Trazado_106400" data-name="Trazado 106400" d="M10.152,15H7v6.3H33.788V18.152H13.3A3.152,3.152,0,0,1,10.152,15Z" transform="translate(-7 -8.697)" fill="#93999a"/>
              <path id="Trazado_106401" data-name="Trazado 106401" d="M10.152,23H7v6.3H33.788V26.152H13.3A3.152,3.152,0,0,1,10.152,23Z" transform="translate(-7 -10.394)" fill="#93999a"/>
              <path id="Trazado_106402" data-name="Trazado 106402" d="M7,7H33.788v6.3H7Z" transform="translate(-7 -7)" fill="#d0d8da"/>
              <path id="Trazado_106403" data-name="Trazado 106403" d="M10.152,7H7v6.3H33.788V10.152H13.3A3.152,3.152,0,0,1,10.152,7Z" transform="translate(-7 -7)" fill="#93999a"/>
            </g>
            <g id="Grupo_92543" data-name="Grupo 92543">
              <path id="Trazado_106404" data-name="Trazado 106404" d="M6.152,3H3V6.152H36.091V4.576H7.727A1.576,1.576,0,0,1,6.152,3Z" transform="translate(-3 -3)" fill="#93999a"/>
              <path id="Trazado_106405" data-name="Trazado 106405" d="M6.152,55H3v3.152H36.091V56.576H7.727A1.576,1.576,0,0,1,6.152,55Z" transform="translate(-3 -14.03)" fill="#93999a"/>
            </g>
          </g>
          <g id="Grupo_92546" data-name="Grupo 92546" transform="translate(14.174 14.182)">
            <circle id="Elipse_1706" data-name="Elipse 1706" cx="15.5" cy="15.5" r="15.5" transform="translate(0.038 0.03)" fill="#cae2e5"/>
            <path id="Trazado_106406" data-name="Trazado 106406" d="M42.271,48.26A15.737,15.737,0,0,1,29.554,23.225,15.749,15.749,0,1,0,49.473,46.507a15.672,15.672,0,0,1-7.2,1.753Z" transform="translate(-20.99 -21.472)" fill="#a8f5ff"/>
            <circle id="Elipse_1707" data-name="Elipse 1707" cx="12.5" cy="12.5" r="12.5" transform="translate(3.038 3.03)" fill="#4dd0e1"/>
            <g id="Grupo_92545" data-name="Grupo 92545" transform="translate(3.162 3.152)">
              <path id="Trazado_106407" data-name="Trazado 106407" d="M38.306,25a12.571,12.571,0,0,0-10,4.962,12.59,12.59,0,0,1,17.647,17.65A12.6,12.6,0,0,0,38.306,25Z" transform="translate(-25.703 -25)" fill="#4dd0e1"/>
              <path id="Trazado_106408" data-name="Trazado 106408" d="M43.122,49.952A15.733,15.733,0,0,1,27.657,31.2a12.6,12.6,0,0,0,16.1,18.719C43.545,49.928,43.336,49.952,43.122,49.952Z" transform="translate(-25.003 -26.315)" fill="#4dd0e1"/>
            </g>
          </g>
        </g>
      </g>
      <g id="Outlines_copy" data-name="Outlines copy" transform="translate(2 2)">
        <g id="Grupo_92548" data-name="Grupo 92548">
          <path id="Trazado_106409" data-name="Trazado 106409" d="M28.152,43.455a1.576,1.576,0,0,1-1.576-1.576.788.788,0,0,0-1.576,0,3.152,3.152,0,1,0,3.152-3.152,1.576,1.576,0,1,1,1.576-1.576.788.788,0,0,0,1.576,0A3.152,3.152,0,1,0,28.152,40.3a1.576,1.576,0,1,1,0,3.152Z" transform="translate(-6.879 -8.788)" fill="#12263f"/>
          <path id="Trazado_106410" data-name="Trazado 106410" d="M55.3,44.242a.788.788,0,0,0-.788-.788H50.576V34.788a.788.788,0,1,0-1.576,0v9.455a.788.788,0,0,0,.788.788h4.727A.788.788,0,0,0,55.3,44.242Z" transform="translate(-11.97 -8.788)" fill="#12263f"/>
          <path id="Trazado_106411" data-name="Trazado 106411" d="M44.455,38.727a4.727,4.727,0,1,0-9.455,0V40.3a4.719,4.719,0,0,0,7.462,3.849l.648.648a.788.788,0,1,0,1.114-1.114l-.648-.648a4.7,4.7,0,0,0,.878-2.735Zm-3.382,1.807a.788.788,0,1,0-1.114,1.114l1.36,1.36a3.11,3.11,0,0,1-1.591.447A3.152,3.152,0,0,1,36.576,40.3V38.727a3.152,3.152,0,1,1,6.3,0V40.3a3.11,3.11,0,0,1-.447,1.591Z" transform="translate(-9 -8.788)" fill="#12263f"/>
          <path id="Trazado_106412" data-name="Trazado 106412" d="M49.354,26.077a.788.788,0,1,0-1.219,1,14.984,14.984,0,1,1-2.118-2.118.788.788,0,1,0,1-1.22,16.546,16.546,0,1,0,2.34,2.339Z" transform="translate(-5.818 -5.819)" fill="#12263f"/>
          <path id="Trazado_106413" data-name="Trazado 106413" d="M47.362,30.008a.788.788,0,0,0,1.23-.986,13.378,13.378,0,0,0-20.895,0,.788.788,0,0,0,1.228.986,11.8,11.8,0,0,1,18.436,0Z" transform="translate(-7.416 -6.667)" fill="#12263f"/>
          <path id="Trazado_106414" data-name="Trazado 106414" d="M38.14,56.3a13.337,13.337,0,0,0,10.447-5.022.788.788,0,0,0-1.229-.986,11.8,11.8,0,0,1-18.436,0,.788.788,0,0,0-1.23.986A13.337,13.337,0,0,0,38.14,56.3Z" transform="translate(-7.413 -12.182)" fill="#12263f"/>
          <circle id="Elipse_1708" data-name="Elipse 1708" cx="0.5" cy="0.5" r="0.5" transform="translate(20 13)" fill="#12263f"/>
          <circle id="Elipse_1709" data-name="Elipse 1709" cx="0.5" cy="0.5" r="0.5" transform="translate(23 13)" fill="#12263f"/>
          <path id="Trazado_106415" data-name="Trazado 106415" d="M10.788,18a.788.788,0,0,0,0,1.576h9.455a.788.788,0,0,0,0-1.576Z" transform="translate(-3.697 -5.394)" fill="#12263f"/>
          <ellipse id="Elipse_1710" data-name="Elipse 1710" cx="0.5" cy="1" rx="0.5" ry="1" transform="translate(20 6)" fill="#12263f"/>
          <ellipse id="Elipse_1711" data-name="Elipse 1711" cx="0.5" cy="1" rx="0.5" ry="1" transform="translate(23 6)" fill="#12263f"/>
          <circle id="Elipse_1712" data-name="Elipse 1712" cx="1" cy="1" r="1" transform="translate(26 6)" fill="#12263f"/>
          <path id="Trazado_106416" data-name="Trazado 106416" d="M10.788,11.576h9.455a.788.788,0,0,0,0-1.576H10.788a.788.788,0,1,0,0,1.576Z" transform="translate(-3.697 -3.697)" fill="#12263f"/>
          <path id="Trazado_106417" data-name="Trazado 106417" d="M20.378,46.121H3.576V44.546H17.544a.788.788,0,1,0,0-1.576H6.727V38.243h7.814a.788.788,0,1,0,0-1.576H6.727V31.94H13.9a.788.788,0,0,0,0-1.576H6.727V25.636h9.218a.788.788,0,0,0,0-1.576H6.727V19.333H20.378a.788.788,0,0,0,0-1.576H6.727V13.03H31.939v.788a.788.788,0,0,0,1.576,0V6.727h2.364a.788.788,0,0,0,.788-.788V2.788A.788.788,0,0,0,35.879,2H2.788A.788.788,0,0,0,2,2.788V5.939a.788.788,0,0,0,.788.788H5.152V42.97H2.788A.788.788,0,0,0,2,43.758v3.152a.788.788,0,0,0,.788.788h17.59a.788.788,0,1,0,0-1.576ZM3.576,3.576H35.091V5.152H3.576ZM31.94,6.727v4.727H6.727V6.727Z" transform="translate(-2 -2)" fill="#12263f"/>
          <path id="Trazado_106418" data-name="Trazado 106418" d="M14.788,26a.788.788,0,1,0,0,1.576H20.3A.788.788,0,1,0,20.3,26Z" transform="translate(-4.545 -7.091)" fill="#12263f"/>
          <path id="Trazado_106419" data-name="Trazado 106419" d="M11.788,50a.788.788,0,1,0,0,1.576h2.364a.788.788,0,1,0,0-1.576Z" transform="translate(-3.909 -12.182)" fill="#12263f"/>
          <path id="Trazado_106420" data-name="Trazado 106420" d="M11.788,34a.788.788,0,1,0,0,1.576h1.576a.788.788,0,1,0,0-1.576Z" transform="translate(-3.909 -8.788)" fill="#12263f"/>
          <ellipse id="Elipse_1713" data-name="Elipse 1713" cx="0.5" cy="1" rx="0.5" ry="1" transform="translate(12 25)" fill="#12263f"/>
          <ellipse id="Elipse_1714" data-name="Elipse 1714" cx="1" cy="0.5" rx="1" ry="0.5" transform="translate(7 32)" fill="#12263f"/>
          <ellipse id="Elipse_1715" data-name="Elipse 1715" cx="1" cy="0.5" rx="1" ry="0.5" transform="translate(10 32)" fill="#12263f"/>
          <circle id="Elipse_1716" data-name="Elipse 1716" cx="0.5" cy="0.5" r="0.5" transform="translate(13 38)" fill="#12263f"/>
          <ellipse id="Elipse_1717" data-name="Elipse 1717" cx="1" cy="0.5" rx="1" ry="0.5" transform="translate(7 19)" fill="#12263f"/>
        </g>
      </g>
    </g>
  </g>
</svg>
