<svg id="retrasar" xmlns="http://www.w3.org/2000/svg" width="100.307" height="100.307" viewBox="0 0 100.307 100.307">
  <path id="Trazado_106549" data-name="Trazado 106549" d="M52.993,82.25H9.109A8.357,8.357,0,0,1,.75,73.891V9.109A8.357,8.357,0,0,1,9.109.75H52.993a8.357,8.357,0,0,1,8.359,8.359V73.891A8.357,8.357,0,0,1,52.993,82.25Z" transform="translate(2.385 2.385)" fill="#fff"/>
  <path id="Trazado_106550" data-name="Trazado 106550" d="M35.333,23.513A17.791,17.791,0,0,1,4.99,36.093l12.58-12.58V5.75A17.748,17.748,0,0,1,35.333,23.513Z" transform="translate(15.866 18.282)" fill="#2196f3"/>
  <path id="Trazado_106551" data-name="Trazado 106551" d="M21.513,5.75V23.513L8.933,36.093A17.791,17.791,0,0,1,21.513,5.75Z" transform="translate(11.923 18.282)" fill="#ffc107"/>
  <path id="Trazado_106552" data-name="Trazado 106552" d="M35.782,59.814A24.032,24.032,0,1,1,59.814,35.782,24.062,24.062,0,0,1,35.782,59.814Z" transform="translate(37.359 37.359)" fill="#4dd0e1"/>
  <path id="Trazado_106553" data-name="Trazado 106553" d="M34.481,87.769H11.494A11.5,11.5,0,0,1,0,76.275V11.494A11.5,11.5,0,0,1,11.494,0H55.378A11.5,11.5,0,0,1,66.872,11.494V34.481a3.135,3.135,0,1,1-6.269,0V11.494a5.232,5.232,0,0,0-5.224-5.224H11.494a5.232,5.232,0,0,0-5.224,5.224V76.275A5.232,5.232,0,0,0,11.494,81.5H34.481a3.135,3.135,0,1,1,0,6.269Z" fill="#21214b"/>
  <path id="Trazado_106554" data-name="Trazado 106554" d="M29.288,41.167a3.145,3.145,0,0,1-2.081-.79l-9.4-8.359a3.147,3.147,0,0,1-1.053-2.345V17.135a3.135,3.135,0,0,1,6.269,0v11.13l8.351,7.423a3.135,3.135,0,0,1-2.081,5.479Z" transform="translate(53.256 44.513)"/>
  <path id="Trazado_106555" data-name="Trazado 106555" d="M38.167,65.333A27.167,27.167,0,1,1,65.333,38.167,27.2,27.2,0,0,1,38.167,65.333Zm0-48.064a20.9,20.9,0,1,0,20.9,20.9A20.921,20.921,0,0,0,38.167,17.269Z" transform="translate(34.974 34.974)"/>
  <path id="Trazado_106556" data-name="Trazado 106556" d="M23.9,46.795a20.9,20.9,0,1,1,20.9-20.9,15.82,15.82,0,0,1-.217,2.767,3.135,3.135,0,0,1-6.173-1.1,9.45,9.45,0,0,0,.121-1.663A14.628,14.628,0,1,0,23.9,40.525a13.931,13.931,0,0,0,5.091-.911,3.134,3.134,0,1,1,2.278,5.839A20.184,20.184,0,0,1,23.9,46.795Z" transform="translate(9.538 15.897)"/>
  <path id="Trazado_106557" data-name="Trazado 106557" d="M7.374,41.612a3.137,3.137,0,0,1-2.215-5.354L16.819,24.6V8.135a3.135,3.135,0,1,1,6.269,0V25.9a3.121,3.121,0,0,1-.919,2.215L9.589,40.693A3.11,3.11,0,0,1,7.374,41.612Z" transform="translate(13.482 15.897)"/>
</svg>
