<svg xmlns="http://www.w3.org/2000/svg" width="113.106" height="100.307" viewBox="0 0 113.106 100.307">
  <g id="precaucion" transform="translate(0)">
    <path id="Trazado_106558" data-name="Trazado 106558" d="M20.83,108.68c-5.213,0-7.345-3.694-4.738-8.208L63.483,18.386c2.606-4.515,6.872-4.515,9.478,0l47.392,82.086c2.607,4.514.475,8.208-4.739,8.208Zm0,0" transform="translate(-11.669 -11.686)" fill="#fedb41"/>
    <path id="Trazado_106559" data-name="Trazado 106559" d="M308.131,100.472,260.739,18.386C259.436,16.129,257.718,15,256,15v93.68h47.392C308.605,108.68,310.738,104.986,308.131,100.472Zm0,0" transform="translate(-199.447 -11.686)" fill="#fcbf29"/>
    <g id="Grupo_99593" data-name="Grupo 99593" transform="translate(0)">
      <path id="Trazado_106560" data-name="Trazado 106560" d="M103.946,100.307H9.16c-3.7,0-6.679-1.483-8.171-4.068s-1.287-5.907.563-9.111L48.944,5.043C50.794,1.838,53.568,0,56.553,0s5.759,1.838,7.609,5.043l47.393,82.086c1.85,3.2,2.056,6.525.563,9.11S107.647,100.307,103.946,100.307ZM56.553,6.628c-.434,0-1.18.534-1.869,1.728L7.292,90.442c-.689,1.194-.78,2.108-.563,2.484s1.052.753,2.431.753h94.785c1.379,0,2.215-.379,2.433-.754s.126-1.288-.563-2.483L58.422,8.357C57.733,7.162,56.987,6.628,56.553,6.628Zm0,0" transform="translate(0)" fill="#21214b"/>
      <path id="Trazado_106561" data-name="Trazado 106561" d="M225.536,327.652a8.638,8.638,0,1,0,8.639,8.639A8.648,8.648,0,0,0,225.536,327.652Zm0,0" transform="translate(-168.983 -255.27)" fill="#21214b"/>
      <path id="Trazado_106562" data-name="Trazado 106562" d="M225.536,99.484a8.648,8.648,0,0,0-8.638,8.639V137.23a8.638,8.638,0,0,0,17.277,0V108.123A8.649,8.649,0,0,0,225.536,99.484Zm0,0" transform="translate(-168.983 -77.507)" fill="#21214b"/>
    </g>
    <path id="Trazado_106563" data-name="Trazado 106563" d="M311,87.129,263.608,5.043C261.758,1.838,258.985,0,256,0V6.628c.434,0,1.18.535,1.869,1.728l47.392,82.086c.69,1.194.78,2.107.564,2.483s-1.053.754-2.433.754H256v6.628h47.392c3.7,0,6.679-1.483,8.172-4.069S312.852,90.333,311,87.129Zm0,0" transform="translate(-199.447)" fill="#21214b"/>
    <path id="Trazado_106564" data-name="Trazado 106564" d="M264.639,336.29A8.648,8.648,0,0,0,256,327.652v17.277A8.649,8.649,0,0,0,264.639,336.29Zm0,0" transform="translate(-199.447 -255.27)" fill="#3c3a41"/>
    <path id="Trazado_106565" data-name="Trazado 106565" d="M264.639,137.23V108.123A8.649,8.649,0,0,0,256,99.484v46.383A8.648,8.648,0,0,0,264.639,137.23Zm0,0" transform="translate(-199.447 -77.507)" fill="#3c3a41"/>
  </g>
</svg>
