<svg xmlns="http://www.w3.org/2000/svg" width="85" height="85" viewBox="0 0 85 85">
  <g id="Grupo_92549" data-name="Grupo 92549" transform="translate(-800 -1616)">
    <g id="Elipse_1719" data-name="Elipse 1719" transform="translate(800 1616)" fill="#4dd0e1" stroke="#fff" stroke-width="2">
      <circle cx="42.5" cy="42.5" r="42.5" stroke="none"/>
      <circle cx="42.5" cy="42.5" r="41.5" fill="none"/>
    </g>
    <g id="desarrollo-web_2_" data-name="desarrollo-web (2)" transform="translate(818.799 1635.753)">
      <path id="Trazado_106448" data-name="Trazado 106448" d="M54.725,10.012H11.073a.932.932,0,0,0-.932.932v5.587H55.657V10.944A.932.932,0,0,0,54.725,10.012Zm0,0" transform="translate(-9.203 -8.631)" fill="#ffca28"/>
      <path id="Trazado_106449" data-name="Trazado 106449" d="M10.141,116.76v1.75a.932.932,0,0,0,.932.932H54.725a.932.932,0,0,0,.932-.932V80.445H10.141V109.27" transform="translate(-9.203 -72.546)" fill="#edf3f2"/>
      <path id="Trazado_106450" data-name="Trazado 106450" d="M90.04,151.265H54.233a.932.932,0,0,1-.932-.932V120.311a.932.932,0,0,1,.932-.932H90.04a.932.932,0,0,1,.932.932v30.022A.932.932,0,0,1,90.04,151.265Zm0,0" transform="translate(-48.368 -107.876)" fill="#fff"/>
      <path id="Trazado_106451" data-name="Trazado 106451" d="M109.521,205.739a1.972,1.972,0,0,1-1.4-.58l-7.745-7.745a1.979,1.979,0,0,1,0-2.8l7.745-7.745a1.979,1.979,0,0,1,2.8,2.8l-6.345,6.345,6.345,6.345a1.979,1.979,0,0,1-1.4,3.379Zm0,0" transform="translate(-90.561 -168.596)" fill="#ffca28"/>
      <path id="Trazado_106452" data-name="Trazado 106452" d="M289.439,186.289a1.973,1.973,0,0,1,1.4.58l7.745,7.745a1.979,1.979,0,0,1,0,2.8l-7.745,7.745a1.979,1.979,0,0,1-2.8-2.8l6.345-6.345-6.345-6.345a1.98,1.98,0,0,1,1.4-3.379Zm0,0" transform="translate(-260.855 -168.594)" fill="#ffca28"/>
      <path id="Trazado_106453" data-name="Trazado 106453" d="M45.587.5H1.934A1.866,1.866,0,0,0,.07,2.364V36.776a.932.932,0,0,0,1.864,0V8.883H45.587V46.016H1.934v-1.75a.932.932,0,1,0-1.864,0v1.75A1.866,1.866,0,0,0,1.934,47.88H45.587a1.866,1.866,0,0,0,1.864-1.864V2.364A1.866,1.866,0,0,0,45.587.5ZM1.934,7.019V2.364H45.587V7.019Zm0,0" transform="translate(-0.064)"/>
      <path id="Trazado_106454" data-name="Trazado 106454" d="M38.9,37.021a.932.932,0,1,0-1.728.7l.013.033a.932.932,0,0,0,1.728-.7Zm0,0" transform="translate(-33.672 -32.612)"/>
      <path id="Trazado_106455" data-name="Trazado 106455" d="M69.234,37.021a.932.932,0,1,0-1.728.7l.013.033a.932.932,0,0,0,1.728-.7Zm0,0" transform="translate(-61.197 -32.612)"/>
      <path id="Trazado_106456" data-name="Trazado 106456" d="M80.9,143.618a1.866,1.866,0,0,0,1.864-1.864V111.731a1.866,1.866,0,0,0-1.864-1.864H45.095a1.866,1.866,0,0,0-1.864,1.864v30.022a1.866,1.866,0,0,0,1.864,1.864ZM45.095,111.731H80.9v30.022H45.095Zm0,0" transform="translate(-39.23 -99.245)"/>
      <path id="Trazado_106457" data-name="Trazado 106457" d="M99.567,37.021a.932.932,0,0,0-1.728.7l.013.033a.932.932,0,0,0,1.728-.7Zm0,0" transform="translate(-88.722 -32.612)"/>
      <path id="Trazado_106458" data-name="Trazado 106458" d="M344.656,37.021a.932.932,0,0,0-1.728.7l.013.033a.932.932,0,0,0,1.728-.7Zm0,0" transform="translate(-311.128 -32.612)"/>
      <path id="Trazado_106459" data-name="Trazado 106459" d="M102.442,177.634a2.911,2.911,0,0,0-4.117,0l-7.745,7.745a2.911,2.911,0,0,0,0,4.117l7.745,7.745a2.912,2.912,0,0,0,4.117-4.117l-5.686-5.686,5.686-5.686A2.915,2.915,0,0,0,102.442,177.634Zm-1.318,2.8-6.345,6.345a.932.932,0,0,0,0,1.318l6.345,6.345a1.047,1.047,0,1,1-1.481,1.481L91.9,188.178a1.047,1.047,0,0,1,0-1.481l7.745-7.745a1.047,1.047,0,1,1,1.481,1.482Zm0,0" transform="translate(-81.423 -159.966)"/>
      <path id="Trazado_106460" data-name="Trazado 106460" d="M282.371,177.634a2.912,2.912,0,0,0-4.118,4.118l5.686,5.686-5.686,5.686a2.912,2.912,0,1,0,4.118,4.117l7.745-7.745a2.911,2.911,0,0,0,0-4.117Zm6.427,10.544-7.745,7.745a1.047,1.047,0,0,1-1.481-1.481l6.345-6.345a.932.932,0,0,0,0-1.318l-6.345-6.345a1.047,1.047,0,1,1,1.481-1.481L288.8,186.7a1.047,1.047,0,0,1,0,1.481Zm0,0" transform="translate(-251.729 -159.966)"/>
      <path id="Trazado_106461" data-name="Trazado 106461" d="M390.16,35.719h-6.532a.932.932,0,1,0,0,1.864h6.532a.932.932,0,1,0,0-1.864Zm0,0" transform="translate(-347.277 -31.959)"/>
      <path id="Trazado_106462" data-name="Trazado 106462" d="M.081,424.268a.932.932,0,1,0,1.727-.7l-.012-.031a.932.932,0,1,0-1.727.7Zm0,0" transform="translate(0 -383.355)"/>
    </g>
  </g>
</svg>
