<svg xmlns="http://www.w3.org/2000/svg" xmlns:xlink="http://www.w3.org/1999/xlink" width="546.435" height="458.213" viewBox="0 0 546.435 458.213">
  <defs>
    <linearGradient id="linear-gradient" x1="0.5" y1="1" x2="0.5" gradientUnits="objectBoundingBox">
      <stop offset="0" stop-color="#2fe3e6"/>
      <stop offset="1" stop-color="#2fe3e6" stop-opacity="0"/>
    </linearGradient>
    <linearGradient id="linear-gradient-2" x1="0.5" y1="1" x2="0.5" gradientUnits="objectBoundingBox">
      <stop offset="0" stop-color="#2fe3e6" stop-opacity="0"/>
      <stop offset="1" stop-color="#2fe3e6"/>
    </linearGradient>
    <linearGradient id="linear-gradient-3" x1="0.5" y1="1" x2="0.5" gradientUnits="objectBoundingBox">
      <stop offset="0" stop-color="#ffa5ff"/>
      <stop offset="1" stop-color="#ffa5ff" stop-opacity="0"/>
    </linearGradient>
    <linearGradient id="linear-gradient-5" y1="0.5" x2="1" y2="0.5" gradientUnits="objectBoundingBox">
      <stop offset="0" stop-color="#9339e6" stop-opacity="0"/>
      <stop offset="1" stop-color="#9339e6"/>
    </linearGradient>
  </defs>
  <g id="Grupo_99632" data-name="Grupo 99632" transform="translate(-7.227 -112.268)">
    <rect id="Rectángulo_33791" data-name="Rectángulo 33791" width="13.363" height="13.363" transform="translate(324.177 218.981)" opacity="0.45" fill="url(#linear-gradient)"/>
    <rect id="Rectángulo_33798" data-name="Rectángulo 33798" width="13.363" height="13.363" transform="translate(83.641 416.81)" opacity="0.45" fill="url(#linear-gradient-2)"/>
    <rect id="Rectángulo_33799" data-name="Rectángulo 33799" width="9.354" height="9.354" transform="translate(378.089 207.362)" fill="url(#linear-gradient-3)"/>
    <rect id="Rectángulo_33803" data-name="Rectángulo 33803" width="9.354" height="9.354" transform="translate(247.542 112.268)" fill="url(#linear-gradient-3)"/>
    <rect id="Rectángulo_33804" data-name="Rectángulo 33804" width="215.411" height="134.857" transform="translate(484.617 395.077) rotate(180)" fill="#a6f3f4" opacity="0.27"/>
    <path id="Trazado_106588" data-name="Trazado 106588" d="M410.235,350.942H189.009V211.934H410.235Zm-219.863-1.364h218.5V213.3h-218.5Z" transform="translate(63.872 33.523)" fill="#5b4f78"/>
    <rect id="Rectángulo_33805" data-name="Rectángulo 33805" width="209.63" height="123.397" transform="translate(468.309 379.552) rotate(180)" fill="#12263f"/>
    <path id="Trazado_106589" data-name="Trazado 106589" d="M271.691,219.94H193.347v123.4H330.215A1227.578,1227.578,0,0,1,271.691,219.94Z" transform="translate(65.331 36.215)" fill="#1b0a43" opacity="0.29" style="mix-blend-mode: multiply;isolation: isolate"/>
    <g id="Grupo_99624" data-name="Grupo 99624" transform="translate(323.081 285.158)">
      <path id="Trazado_106590" data-name="Trazado 106590" d="M241.854,244.5h.027c.281,0,.421-.11.421-.327q.006-1.223.007-1.363a1.171,1.171,0,0,1,.31-.842,1.03,1.03,0,0,1,.779-.327,1.707,1.707,0,0,1,.194.009.508.508,0,0,1,.147.051.232.232,0,0,1,.114.143,1.113,1.113,0,0,1,0,.541.24.24,0,0,1-.114.147.5.5,0,0,1-.144.056.943.943,0,0,1-.19.015c-.09,0-.134.087-.134.261V244a1.428,1.428,0,0,1-.1.541,1.194,1.194,0,0,1-.194.347l-.1.1a.293.293,0,0,1,.04.031c.017.016.049.052.1.107a.875.875,0,0,1,.119.2,1.511,1.511,0,0,1,.094.306,1.943,1.943,0,0,1,.044.424c-.005.438-.007.763-.007.977v.16a.194.194,0,0,0,.036.124c.024.028.044.044.057.045a.206.206,0,0,0,.04,0,1.3,1.3,0,0,1,.19.011.486.486,0,0,1,.147.049.225.225,0,0,1,.118.143.887.887,0,0,1,.033.27.865.865,0,0,1-.036.278.245.245,0,0,1-.118.144.5.5,0,0,1-.144.049,1.081,1.081,0,0,1-.183.011,1.027,1.027,0,0,1-.782-.334,1.207,1.207,0,0,1-.314-.862V247c0-.077,0-.175,0-.293s0-.229,0-.331c0-.285,0-.481-.013-.588q0-.321-.4-.321h-.04a.455.455,0,0,1-.107-.011.313.313,0,0,1-.1-.053.274.274,0,0,1-.087-.146,1.01,1.01,0,0,1-.029-.271,1.039,1.039,0,0,1,.029-.274.263.263,0,0,1,.087-.147.326.326,0,0,1,.1-.051A.425.425,0,0,1,241.854,244.5Z" transform="translate(-241.54 -241.643)" fill="#ec89ca"/>
    </g>
    <g id="Grupo_99625" data-name="Grupo 99625" transform="translate(321.437 358.925)">
      <path id="Trazado_106591" data-name="Trazado 106591" d="M241.386,302.122c-.036.076-.064.132-.084.167a.314.314,0,0,1-.1.1.265.265,0,0,1-.163.051.965.965,0,0,1-.367-.107,1.061,1.061,0,0,1-.285-.171.242.242,0,0,1-.076-.176,1.286,1.286,0,0,1,.08-.327l2.151-4.5.063-.124a.753.753,0,0,1,.067-.1.279.279,0,0,1,.1-.078.327.327,0,0,1,.127-.023.978.978,0,0,1,.367.107c.241.116.361.242.361.381a1.19,1.19,0,0,1-.093.334Z" transform="translate(-240.31 -296.843)" fill="#ec89ca"/>
      <path id="Trazado_106592" data-name="Trazado 106592" d="M245.565,299.748a.458.458,0,0,1,.1.009.3.3,0,0,1,.1.051.256.256,0,0,1,.087.147,1.03,1.03,0,0,1,.031.274.741.741,0,0,1-.06.331c-.04.076-.08.123-.12.132a.523.523,0,0,1-.147.017h-.04q-.4,0-.4.321c-.009.107-.013.3-.013.588,0,.1,0,.212,0,.331s0,.215,0,.294v.123a1.207,1.207,0,0,1-.314.862,1.029,1.029,0,0,1-.782.334,1.1,1.1,0,0,1-.184-.011.508.508,0,0,1-.143-.049.227.227,0,0,1-.114-.144.915.915,0,0,1-.033-.278.877.877,0,0,1,.033-.273.226.226,0,0,1,.114-.14.508.508,0,0,1,.143-.049,1.313,1.313,0,0,1,.191-.011.205.205,0,0,0,.04,0c.013,0,.032-.017.056-.045a.187.187,0,0,0,.037-.124v-.16l-.007-.976a1.774,1.774,0,0,1,.1-.631.9.9,0,0,1,.2-.351l.1-.08a1.126,1.126,0,0,1-.114-.114,1.34,1.34,0,0,1-.178-.327,1.36,1.36,0,0,1-.11-.548l.007-1.136a.474.474,0,0,0-.027-.18c-.019-.04-.035-.064-.051-.071a.16.16,0,0,0-.063-.009,1.085,1.085,0,0,1-.191-.013.546.546,0,0,1-.14-.056.247.247,0,0,1-.11-.148.881.881,0,0,1-.033-.27.891.891,0,0,1,.033-.271.231.231,0,0,1,.11-.143.431.431,0,0,1,.144-.049,1.369,1.369,0,0,1,.194-.011,1.029,1.029,0,0,1,.778.327,1.172,1.172,0,0,1,.311.842l.007,1.363c0,.218.14.327.421.327Z" transform="translate(-239.224 -296.828)" fill="#ec89ca"/>
    </g>
    <rect id="Rectángulo_33806" data-name="Rectángulo 33806" width="84.012" height="3.492" transform="translate(331.843 286.817)" fill="#ffa726"/>
    <rect id="Rectángulo_33807" data-name="Rectángulo 33807" width="22.377" height="3.492" transform="translate(294.897 286.817)" fill="#2fe3e6"/>
    <rect id="Rectángulo_33808" data-name="Rectángulo 33808" width="84.012" height="3.492" transform="translate(331.843 320.966)" fill="#fff05f"/>
    <rect id="Rectángulo_33809" data-name="Rectángulo 33809" width="22.377" height="3.492" transform="translate(294.897 320.966)" fill="#2fe3e6"/>
    <rect id="Rectángulo_33810" data-name="Rectángulo 33810" width="70.187" height="3.492" transform="translate(345.668 332.547)" fill="#4dd0e1"/>
    <rect id="Rectángulo_33811" data-name="Rectángulo 33811" width="70.187" height="3.492" transform="translate(345.668 344.129)" fill="#4dd0e1"/>
    <rect id="Rectángulo_33812" data-name="Rectángulo 33812" width="150.903" height="287.953" rx="5" transform="translate(120.426 152.06)" fill="#12263f"/>
    <path id="Trazado_106634" data-name="Trazado 106634" d="M2.248,0H138.66a2.248,2.248,0,0,1,2.248,2.248v260.24a2.248,2.248,0,0,1-2.248,2.248H2.248A2.248,2.248,0,0,1,0,262.488V2.248A2.248,2.248,0,0,1,2.248,0Z" transform="translate(125.748 159.492)" fill="#ffca28"/>
    <g id="Grupo_99626" data-name="Grupo 99626" transform="translate(140.185 201.557)">
      <rect id="Rectángulo_33814" data-name="Rectángulo 33814" width="40.104" height="6.229" transform="translate(50.084)" fill="#fefefe"/>
      <rect id="Rectángulo_33815" data-name="Rectángulo 33815" width="61.951" height="2.336" transform="translate(50.084 14.221)" fill="#fefefe"/>
      <rect id="Rectángulo_33816" data-name="Rectángulo 33816" width="61.951" height="2.336" transform="translate(50.084 23.257)" fill="#fefefe"/>
      <rect id="Rectángulo_33817" data-name="Rectángulo 33817" width="54.033" height="2.336" transform="translate(50.084 32.293)" fill="#fefefe"/>
      <rect id="Rectángulo_33818" data-name="Rectángulo 33818" width="112.035" height="0.873" transform="translate(0 51.521)" fill="#fefefe"/>
    </g>
    <rect id="Rectángulo_33819" data-name="Rectángulo 33819" width="40.663" height="40.663" transform="translate(140.848 198.356)" fill="#4dd0e1"/>
    <path id="Trazado_106594" data-name="Trazado 106594" d="M160.425,155.591H188.6c2.579,0,2.583-4.009,0-4.009H160.425c-2.579,0-2.583,4.009,0,4.009Z" transform="translate(53.607 13.223)" fill="#bca2e6" style="mix-blend-mode: soft-light;isolation: isolate"/>
    <path id="Trazado_106595" data-name="Trazado 106595" d="M187.147,155.551c.032.015.064.029.1.043,1.609.669,6.37,1.07,6.247-1.717-.059-1.336-1.272-1.86-2.435-2.007-1.557-.2-5.308-.943-5.385,1.553A2.53,2.53,0,0,0,187.147,155.551Z" transform="translate(62.749 13.233)" fill="#bca2e6" style="mix-blend-mode: soft-light;isolation: isolate"/>
    <path id="Trazado_106596" data-name="Trazado 106596" d="M190.515,239.9q1.115,18.4.4,36.835c-.1,2.579,3.909,2.575,4.009,0q.718-18.418-.4-36.835c-.155-2.563-4.165-2.58-4.009,0Z" transform="translate(64.377 42.281)" fill="#bca2e6" style="mix-blend-mode: soft-light;isolation: isolate"/>
    <path id="Trazado_106597" data-name="Trazado 106597" d="M190.594,274.871c.148,1.906-.281,3.718-.254,5.586a2.1,2.1,0,0,0,1.431,2.269,2.03,2.03,0,0,0,2.466-1.4c.362-2.022.874-4.78.313-6.8a2.355,2.355,0,0,0-1.108-1.477A2.041,2.041,0,0,0,190.594,274.871Z" transform="translate(64.32 54.016)" fill="#bca2e6" style="mix-blend-mode: soft-light;isolation: isolate"/>
    <path id="Trazado_106598" data-name="Trazado 106598" d="M314.361,133.2H231.684A6.682,6.682,0,0,0,225,139.887v56.3a2.205,2.205,0,0,0,3.585,1.72l12.451-10h73.323a6.682,6.682,0,0,0,6.682-6.682V139.887A6.682,6.682,0,0,0,314.361,133.2Z" transform="translate(75.978 7.042)" fill="#ffca28"/>
    <g id="Grupo_99627" data-name="Grupo 99627" transform="translate(293.43 130.301)">
      <path id="Trazado_106599" data-name="Trazado 106599" d="M309.312,126.362H226.635a6.682,6.682,0,0,0-6.682,6.682v56.3a2.2,2.2,0,0,0,3.585,1.719l12.451-10h73.323a6.682,6.682,0,0,0,6.682-6.682V133.044A6.682,6.682,0,0,0,309.312,126.362Z" transform="translate(-219.15 -125.56)" fill="#fefefe"/>
      <path id="Trazado_106600" data-name="Trazado 106600" d="M222.365,192.555a3.016,3.016,0,0,1-1.306-.3,2.986,2.986,0,0,1-1.708-2.711v-56.3a7.493,7.493,0,0,1,7.485-7.484h82.677A7.492,7.492,0,0,1,317,133.246V174.58a7.493,7.493,0,0,1-7.484,7.485H236.473l-12.23,9.824A2.988,2.988,0,0,1,222.365,192.555Zm4.471-65.19a5.885,5.885,0,0,0-5.88,5.88v56.3a1.4,1.4,0,0,0,2.283,1.094l12.449-10a.8.8,0,0,1,.5-.178h73.323a5.886,5.886,0,0,0,5.88-5.88V133.246a5.886,5.886,0,0,0-5.88-5.88Z" transform="translate(-219.352 -125.762)" fill="#ffca28"/>
    </g>
    <g id="Grupo_99628" data-name="Grupo 99628" transform="translate(308.971 147.976)">
      <rect id="Rectángulo_33820" data-name="Rectángulo 33820" width="66.604" height="3.492" fill="#4dd0e1"/>
      <rect id="Rectángulo_33821" data-name="Rectángulo 33821" width="66.604" height="3.492" transform="translate(0 14.605)" fill="#4dd0e1"/>
    </g>
    <rect id="Rectángulo_33822" data-name="Rectángulo 33822" width="30.87" height="3.492" transform="translate(70.446 249.941)" fill="#ffca28"/>
    <rect id="Rectángulo_33823" data-name="Rectángulo 33823" width="30.87" height="3.492" transform="translate(70.446 261.873)" fill="#ffca28"/>
    <rect id="Rectángulo_33824" data-name="Rectángulo 33824" width="30.87" height="3.492" transform="translate(70.446 273.785)" fill="#ffca28"/>
    <path id="Trazado_106601" data-name="Trazado 106601" d="M361.634,178.165a21.9,21.9,0,0,1,14.684,5.65v-6.386a27.833,27.833,0,0,1,55.666,0v26.112h-92.35v-3.377A22,22,0,0,1,361.634,178.165Z" transform="translate(121.677 12.556)" fill="#a9ebf4" opacity="0.77"/>
    <path id="Trazado_106603" data-name="Trazado 106603" d="M88.106,385.122a25.8,25.8,0,0,0-17.307,6.66v-7.528a32.807,32.807,0,1,0-65.615,0v30.779H114.038v-3.981A25.932,25.932,0,0,0,88.106,385.122Z" transform="translate(2.043 155.448)" fill="#a9ebf4" opacity="0.77"/>
    <path id="Trazado_106606" data-name="Trazado 106606" d="M154.48,261.737H57.1a6.682,6.682,0,0,0-6.682,6.682v41.336a6.682,6.682,0,0,0,6.682,6.682h88.023l12.451,10a2.205,2.205,0,0,0,3.585-1.72v-56.3A6.682,6.682,0,0,0,154.48,261.737Z" transform="translate(17.258 50.274)" fill="url(#linear-gradient-5)" style="mix-blend-mode: multiply;isolation: isolate"/>
    <g id="Grupo_99629" data-name="Grupo 99629" transform="translate(74.858 300.457)">
      <path id="Trazado_106607" data-name="Trazado 106607" d="M160.453,253.69H63.075a6.682,6.682,0,0,0-6.682,6.682v41.335a6.682,6.682,0,0,0,6.682,6.682H151.1l12.451,10a2.205,2.205,0,0,0,3.587-1.719v-56.3A6.682,6.682,0,0,0,160.453,253.69Z" transform="translate(-55.591 -252.89)" fill="#fefefe"/>
      <path id="Trazado_106608" data-name="Trazado 106608" d="M165.125,319.883a2.992,2.992,0,0,1-1.876-.667l-12.232-9.825H63.277a7.493,7.493,0,0,1-7.484-7.484V260.573a7.492,7.492,0,0,1,7.484-7.482h97.378a7.491,7.491,0,0,1,7.484,7.482v56.3a2.984,2.984,0,0,1-1.707,2.711A3.027,3.027,0,0,1,165.125,319.883ZM63.277,254.693a5.887,5.887,0,0,0-5.879,5.88v41.335a5.887,5.887,0,0,0,5.879,5.881H151.3a.8.8,0,0,1,.5.175l12.451,10a1.4,1.4,0,0,0,2.283-1.094v-56.3a5.888,5.888,0,0,0-5.88-5.88Z" transform="translate(-55.793 -253.091)" fill="#522d82"/>
    </g>
    <g id="Grupo_99630" data-name="Grupo 99630" transform="translate(145.658 313.438)">
      <path id="Trazado_106609" data-name="Trazado 106609" d="M108.773,267.21a.745.745,0,0,1,.428-.727q3.666-2.171,4.565-2.715a1.654,1.654,0,0,1,.3-.155.905.905,0,0,1,.267-.044.44.44,0,0,1,.3.123,1.735,1.735,0,0,1,.3.4,1.426,1.426,0,0,1,.187.432.458.458,0,0,1-.043.326.819.819,0,0,1-.176.221c-.064.052-.158.119-.278.2q-3.187,1.88-3.314,1.967l3.314,1.966a2.532,2.532,0,0,1,.294.194.874.874,0,0,1,.176.214.424.424,0,0,1,.043.325,1.53,1.53,0,0,1-.2.444,1.676,1.676,0,0,1-.31.385.464.464,0,0,1-.3.13.7.7,0,0,1-.267-.048,3.2,3.2,0,0,1-.294-.155l-4.576-2.717A.762.762,0,0,1,108.773,267.21Z" transform="translate(-108.773 -262.548)" fill="#4dd0e1"/>
      <path id="Trazado_106610" data-name="Trazado 106610" d="M116.47,271.251c-.057.12-.1.21-.134.266a.532.532,0,0,1-.16.166.442.442,0,0,1-.262.082,1.552,1.552,0,0,1-.588-.171,1.642,1.642,0,0,1-.454-.273.387.387,0,0,1-.123-.283,2.1,2.1,0,0,1,.128-.525l3.442-7.194c.043-.086.076-.152.1-.2a1.018,1.018,0,0,1,.107-.155.4.4,0,0,1,.155-.123.492.492,0,0,1,.2-.037,1.55,1.55,0,0,1,.588.171c.385.184.577.389.577.609a1.907,1.907,0,0,1-.15.533Z" transform="translate(-106.763 -262.805)" fill="#4dd0e1"/>
      <path id="Trazado_106611" data-name="Trazado 106611" d="M126.3,267.21a.762.762,0,0,1-.417.758l-4.565,2.717a1.753,1.753,0,0,1-.3.16.811.811,0,0,1-.273.043.459.459,0,0,1-.3-.13,1.641,1.641,0,0,1-.31-.385,1.5,1.5,0,0,1-.2-.444.412.412,0,0,1,.043-.325.818.818,0,0,1,.176-.214,2.318,2.318,0,0,1,.294-.194l3.325-1.966-3.314-1.967a2.817,2.817,0,0,1-.289-.2.819.819,0,0,1-.176-.221.451.451,0,0,1-.043-.326,1.394,1.394,0,0,1,.187-.432,1.735,1.735,0,0,1,.3-.4.44.44,0,0,1,.3-.123.905.905,0,0,1,.267.044,1.654,1.654,0,0,1,.3.155l4.565,2.715A.747.747,0,0,1,126.3,267.21Z" transform="translate(-105.026 -262.548)" fill="#4dd0e1"/>
    </g>
    <rect id="Rectángulo_33825" data-name="Rectángulo 33825" width="70.739" height="3.492" transform="translate(94.598 329.943)" fill="#2fe3e6"/>
    <rect id="Rectángulo_33826" data-name="Rectángulo 33826" width="19.775" height="3.492" transform="translate(145.563 340.597)" fill="#ffca28"/>
    <path id="Trazado_106612" data-name="Trazado 106612" d="M399.754,377.429l-25.909-28.081a4.2,4.2,0,0,0-6.179,0l-25.909,28.081a4.2,4.2,0,0,0,3.09,7.053h6.838v26.229a4.2,4.2,0,0,0,4.2,4.2h29.736a4.2,4.2,0,0,0,4.2-4.2V384.483h6.838A4.2,4.2,0,0,0,399.754,377.429Z" transform="translate(114.871 79.287)" fill="#ffca28"/>
    <path id="Trazado_106614" data-name="Trazado 106614" d="M365.821,356.79a7.243,7.243,0,0,0,2.872,3.457c1.175.659,2.92.266,2.518-1.467a9.224,9.224,0,0,0-2.858-4.012C366.609,353.38,364.955,354.658,365.821,356.79Z" transform="translate(123.263 81.37)" fill="#fff" style="mix-blend-mode: soft-light;isolation: isolate"/>
    <path id="Trazado_106615" data-name="Trazado 106615" d="M370.753,362.833a121.976,121.976,0,0,0,9.2,9.662,1.576,1.576,0,1,0,2.229-2.229,121.966,121.966,0,0,1-9.2-9.662,1.582,1.582,0,0,0-2.229,0,1.618,1.618,0,0,0,0,2.229Z" transform="translate(124.852 83.373)" fill="#fff" style="mix-blend-mode: soft-light;isolation: isolate"/>
    <rect id="Rectángulo_33827" data-name="Rectángulo 33827" width="63.434" height="33.465" rx="4" transform="translate(363.839 405.99)" fill="#a9ebf4"/>
    <g id="Grupo_99631" data-name="Grupo 99631" transform="translate(378.209 416.284)">
      <path id="Trazado_106617" data-name="Trazado 106617" d="M282.793,346.922a1.215,1.215,0,0,1,.695-1.181q5.958-3.526,7.418-4.411a2.725,2.725,0,0,1,.486-.253,1.514,1.514,0,0,1,.434-.071.707.707,0,0,1,.494.2,2.807,2.807,0,0,1,.5.643,2.249,2.249,0,0,1,.3.7.739.739,0,0,1-.069.529,1.325,1.325,0,0,1-.286.357,4.849,4.849,0,0,1-.452.321q-5.178,3.057-5.385,3.2l5.385,3.2a4.113,4.113,0,0,1,.477.313,1.425,1.425,0,0,1,.287.348.691.691,0,0,1,.069.531,2.482,2.482,0,0,1-.33.72,2.787,2.787,0,0,1-.5.627.767.767,0,0,1-.5.207,1.1,1.1,0,0,1-.434-.079,4.128,4.128,0,0,1-.477-.251l-7.435-4.413A1.242,1.242,0,0,1,282.793,346.922Z" transform="translate(-282.793 -339.348)" fill="#fefefe"/>
      <path id="Trazado_106618" data-name="Trazado 106618" d="M295.3,353.489c-.094.2-.166.342-.218.434a.878.878,0,0,1-.261.27.713.713,0,0,1-.426.13,2.519,2.519,0,0,1-.954-.278,2.65,2.65,0,0,1-.739-.442.632.632,0,0,1-.2-.461,3.375,3.375,0,0,1,.208-.851l5.594-11.692c.069-.139.124-.245.164-.321a1.766,1.766,0,0,1,.174-.253.665.665,0,0,1,.253-.2.822.822,0,0,1,.33-.061,2.529,2.529,0,0,1,.955.278q.938.453.938.99a3.151,3.151,0,0,1-.243.869Z" transform="translate(-279.527 -339.765)" fill="#fefefe"/>
      <path id="Trazado_106619" data-name="Trazado 106619" d="M311.275,346.922a1.242,1.242,0,0,1-.678,1.233l-7.418,4.413a2.525,2.525,0,0,1-.486.261,1.289,1.289,0,0,1-.444.069.761.761,0,0,1-.494-.207,2.748,2.748,0,0,1-.5-.627,2.447,2.447,0,0,1-.33-.72.686.686,0,0,1,.068-.531,1.457,1.457,0,0,1,.287-.348,3.925,3.925,0,0,1,.478-.313l5.4-3.2-5.385-3.2a3.976,3.976,0,0,1-.469-.321,1.328,1.328,0,0,1-.287-.357.739.739,0,0,1-.069-.529,2.227,2.227,0,0,1,.3-.7,2.8,2.8,0,0,1,.494-.643.709.709,0,0,1,.494-.2,1.525,1.525,0,0,1,.436.071,2.725,2.725,0,0,1,.485.253l7.419,4.411A1.217,1.217,0,0,1,311.275,346.922Z" transform="translate(-276.704 -339.348)" fill="#fefefe"/>
    </g>
    <path id="Trazado_106620" data-name="Trazado 106620" d="M303.16,337.482q4.318.315,8.65.206a1.5,1.5,0,0,0,0-3.007q-4.328.11-8.65-.206a1.51,1.51,0,0,0-1.5,1.5,1.541,1.541,0,0,0,1.5,1.5Z" transform="translate(101.761 74.738)" fill="#bca2e6" style="mix-blend-mode: soft-light;isolation: isolate"/>
    <path id="Trazado_106621" data-name="Trazado 106621" d="M314.162,337.687c1.014.171,2.832-.416,2.788-1.7-.028-.815-.759-1.169-1.441-1.363-.978-.279-2.618.107-2.83,1.279a1.476,1.476,0,0,0,.429,1.314A2,2,0,0,0,314.162,337.687Z" transform="translate(105.461 74.759)" fill="#bca2e6" style="mix-blend-mode: soft-light;isolation: isolate"/>
    <path id="Trazado_106627" data-name="Trazado 106627" d="M172.065,300.085a6.662,6.662,0,0,0-.16,2.356c.211,1.817.3,4.2,1.491,5.7a1.968,1.968,0,0,0,2.957.234c1.768-1.843.063-6,.138-8.264a2.087,2.087,0,0,0-1.88-2.087C173.152,297.828,172.392,298.856,172.065,300.085Z" transform="translate(58.106 62.47)" fill="#fdd7cf" opacity="0.55" style="mix-blend-mode: soft-light;isolation: isolate"/>
    <path id="Trazado_106629" data-name="Trazado 106629" d="M195.673,335.968a11.385,11.385,0,0,1,4.113.722c1.2.5,2.629.931,3.378-.488a2.211,2.211,0,0,0-.776-2.957,10.3,10.3,0,0,0-7.856-1.372,2.179,2.179,0,0,0-1.51,2.659,2.044,2.044,0,0,0,2.089,1.414Z" transform="translate(65.193 73.779)" fill="#fdd7cf" opacity="0.55" style="mix-blend-mode: soft-light;isolation: isolate"/>
  </g>
</svg>
